<svg width="27" height="20" viewBox="0 0 27 20" fill="none" xmlns="http://www.w3.org/2000/svg">
<g clip-path="url(#clip0_402_143)">
<path d="M23.6594 14.5357C21.2116 17.0741 17.7009 17.5489 15.818 15.5963C13.9352 13.6437 14.3931 10.003 16.8408 7.46463C19.2886 4.92622 22.7993 4.45135 24.6821 6.40397C26.5651 8.35659 26.1071 11.9973 23.6594 14.5357Z" stroke="#F1EADA" stroke-width="1.5" stroke-linecap="round" stroke-linejoin="round"/>
<path d="M24.6825 6.40381C24.6825 6.40381 24.3415 8.87868 22.9778 10.2929C21.6141 11.7071 18.8867 10.2929 17.523 11.7071C16.1593 13.1213 15.8184 15.5962 15.8184 15.5962" stroke="#F1EADA" stroke-width="1.5" stroke-linecap="round" stroke-linejoin="round"/>
</g>
<g clip-path="url(#clip1_402_143)">
<path d="M14.2322 9.70882C14.3 13.265 12.2165 16.1916 9.57872 16.2457C6.94091 16.2998 4.74759 13.4608 4.67981 9.90461C4.61203 6.34844 6.69546 3.42176 9.33325 3.36772C11.9711 3.31359 14.1644 6.15263 14.2322 9.70882Z" stroke="#F1EADA" stroke-width="1.5" stroke-linecap="round" stroke-linejoin="round"/>
<path d="M9.3334 3.36779C9.3334 3.36779 10.804 5.31969 10.8418 7.3009C10.8795 9.28213 8.03271 10.3315 8.07047 12.3127C8.10822 14.294 9.57885 16.2458 9.57885 16.2458" stroke="#F1EADA" stroke-width="1.5" stroke-linecap="round" stroke-linejoin="round"/>
</g>
<defs>
<clipPath id="clip0_402_143">
<rect width="13.5" height="14" fill="white" transform="translate(13.5 4)"/>
</clipPath>
<clipPath id="clip1_402_143">
<rect width="13.6357" height="13.6161" fill="white" transform="matrix(0.679795 -0.733403 0.708226 0.705985 0 10.0005)"/>
</clipPath>
</defs>
</svg>
