<svg width="166" height="101" viewBox="0 0 166 101" fill="none" xmlns="http://www.w3.org/2000/svg">
<path d="M8.81152 82.8872L8.76276 82.6033L8.76275 82.6033L8.81152 82.8872ZM16.5957 82.4634L16.6088 82.1756L16.6088 82.1756L16.5957 82.4634ZM23.5068 83.5874L23.5852 83.3102L23.5852 83.3102L23.5068 83.5874ZM26.2646 84.6528L26.407 84.4024L26.407 84.4024L26.2646 84.6528ZM27.1152 85.2954L27.3291 85.1024L27.329 85.1023L27.1152 85.2954ZM27.457 86.0679H27.7451V86.0678L27.457 86.0679ZM27.457 86.0776L27.7433 86.1094L27.7451 86.0936V86.0776H27.457ZM27.4561 86.0864L27.1697 86.0546L27.1692 86.0595L27.4561 86.0864ZM27.4189 87.4292L27.1311 87.4397L27.1311 87.4398L27.4189 87.4292ZM27.4365 87.7417L27.1492 87.762L27.1741 88.1146L27.5144 88.0191L27.4365 87.7417ZM27.4971 87.7251L27.5727 88.0031L27.5727 88.0031L27.4971 87.7251ZM28.2109 87.5649L28.1611 87.2812L28.1611 87.2812L28.2109 87.5649ZM30.0352 87.6108L30.1357 87.3409L30.1357 87.3409L30.0352 87.6108ZM31.7598 90.0571L32.0459 90.0238L32.0459 90.0238L31.7598 90.0571ZM31.2256 93.2749L31.4896 93.3902L31.4896 93.3901L31.2256 93.2749ZM27.3877 96.7222L27.5071 96.9843L27.5071 96.9843L27.3877 96.7222ZM23.2686 97.937L23.2232 97.6525L23.1294 97.6675L23.0629 97.7353L23.2686 97.937ZM22.4922 98.6812L22.6843 98.8959L22.6843 98.8958L22.4922 98.6812ZM21.5762 99.3823L21.705 99.6401L21.711 99.6369L21.5762 99.3823ZM21.5547 99.3931L21.6219 99.6732L21.654 99.6655L21.6835 99.6507L21.5547 99.3931ZM21.5303 99.3989L21.5962 99.6794L21.5975 99.6791L21.5303 99.3989ZM14.501 99.98L14.4931 100.268H14.4931L14.501 99.98ZM11.8994 99.8208L11.8712 100.107H11.8712L11.8994 99.8208ZM11.1055 99.729L11.0651 100.014L11.0651 100.014L11.1055 99.729ZM10.8672 99.6909L10.8148 99.9742L10.8148 99.9742L10.8672 99.6909ZM10.7178 99.6528L10.6037 99.9173L10.6043 99.9176L10.7178 99.6528ZM10.5898 99.5786L10.4307 99.8187L10.4307 99.8188L10.5898 99.5786ZM10.4111 99.4526L10.2409 99.685L10.2409 99.685L10.4111 99.4526ZM9.87988 99.0415L9.69919 99.2659L9.6992 99.2659L9.87988 99.0415ZM8.35352 97.7153L8.15717 97.9261L8.15717 97.9261L8.35352 97.7153ZM5.49902 94.2583L5.23734 94.3788L5.23737 94.3788L5.49902 94.2583ZM3.86426 85.6616L4.15227 85.6557L4.15187 85.6361L4.14883 85.6168L3.86426 85.6616ZM3.86133 85.1616L3.57649 85.1185L3.57621 85.1204L3.86133 85.1616ZM3.86621 85.1294L3.61033 84.997L3.5885 85.0393L3.58138 85.0862L3.86621 85.1294ZM3.88086 85.1011L3.62527 84.9682L3.62498 84.9687L3.88086 85.1011ZM5.67871 83.729L5.56723 83.4634L5.5672 83.4634L5.67871 83.729ZM29.4141 89.2446L29.4245 88.9567L29.4243 88.9567L29.4141 89.2446ZM27.1973 89.5845L27.2776 89.8611L27.2794 89.8606L27.1973 89.5845ZM27.167 89.5933L27.0867 89.3166L26.9498 89.3563L26.8983 89.4893L27.167 89.5933ZM27.1553 89.6235L26.8866 89.5195L26.8862 89.5208L27.1553 89.6235ZM24.8584 95.6382L25.127 95.7422L25.1275 95.741L24.8584 95.6382ZM24.8164 95.7466L24.5478 95.6425L24.357 96.1349L24.8743 96.0288L24.8164 95.7466ZM24.9307 95.7231L24.873 95.4409L24.8728 95.4409L24.9307 95.7231ZM27.1797 94.9663L27.3008 95.2277L27.3008 95.2277L27.1797 94.9663ZM29.4629 93.3003L29.6912 93.476L29.6912 93.4759L29.4629 93.3003ZM30.3379 90.6343L30.6253 90.6153L30.6253 90.6152L30.3379 90.6343ZM30.0547 89.6587L30.2976 89.5038L30.2975 89.5037L30.0547 89.6587ZM16.2803 83.7778L16.2828 83.4898L16.2828 83.4898L16.2803 83.7778ZM5.51562 86.4771L5.35869 86.2355L4.92808 86.5152L5.39126 86.7369L5.51562 86.4771ZM25.6162 86.8647L25.7255 87.1313L26.1105 86.9734L25.8272 86.6686L25.6162 86.8647ZM8.81152 82.8872L8.86028 83.1711C11.2303 82.7641 14.0937 82.6379 16.5826 82.7512L16.5957 82.4634L16.6088 82.1756C14.0872 82.0608 11.1814 82.1879 8.76276 82.6033L8.81152 82.8872ZM16.5957 82.4634L16.5826 82.7512C18.6134 82.8436 21.276 83.2564 23.4285 83.8646L23.5068 83.5874L23.5852 83.3102C21.3892 82.6896 18.6828 82.2701 16.6088 82.1756L16.5957 82.4634ZM23.5068 83.5874L23.4285 83.8646C24.5052 84.1689 25.4495 84.521 26.1223 84.9033L26.2646 84.6528L26.407 84.4024C25.6757 83.9869 24.6806 83.6197 23.5852 83.3102L23.5068 83.5874ZM26.2646 84.6528L26.1223 84.9033C26.4585 85.0943 26.7225 85.2905 26.9015 85.4885L27.1152 85.2954L27.329 85.1023C27.0932 84.8413 26.7716 84.6096 26.407 84.4024L26.2646 84.6528ZM27.1152 85.2954L26.9014 85.4885C27.0805 85.6869 27.1689 85.8806 27.169 86.068L27.457 86.0679L27.7451 86.0678C27.745 85.689 27.565 85.3637 27.3291 85.1024L27.1152 85.2954ZM27.457 86.0679H27.169V86.0776H27.457H27.7451V86.0679H27.457ZM27.457 86.0776L27.1707 86.0458L27.1697 86.0546L27.4561 86.0864L27.7424 86.1182L27.7433 86.1094L27.457 86.0776ZM27.4561 86.0864L27.1692 86.0595C27.1181 86.6046 27.1183 87.0907 27.1311 87.4397L27.4189 87.4292L27.7068 87.4187C27.6947 87.088 27.6946 86.6277 27.7429 86.1133L27.4561 86.0864ZM27.4189 87.4292L27.1311 87.4398C27.1357 87.5672 27.1432 87.6771 27.1492 87.762L27.4365 87.7417L27.7239 87.7214C27.718 87.6382 27.7111 87.5361 27.7068 87.4186L27.4189 87.4292ZM27.4365 87.7417L27.5144 88.0191C27.5319 88.0141 27.5511 88.009 27.5727 88.0031L27.4971 87.7251L27.4214 87.4471C27.4014 87.4526 27.379 87.4586 27.3586 87.4643L27.4365 87.7417ZM27.4971 87.7251L27.5727 88.0031C27.7464 87.9558 27.9888 87.8965 28.2608 87.8487L28.2109 87.5649L28.1611 87.2812C27.8675 87.3328 27.6074 87.3965 27.4214 87.4471L27.4971 87.7251ZM28.2109 87.5649L28.2607 87.8487C28.8106 87.7522 29.4645 87.7058 29.9347 87.8808L30.0352 87.6108L30.1357 87.3409C29.5102 87.108 28.7223 87.1827 28.1611 87.2812L28.2109 87.5649ZM30.0352 87.6108L29.9346 87.8808C30.898 88.2397 31.3567 89.0868 31.4736 90.0905L31.7598 90.0571L32.0459 90.0238C31.9137 88.8888 31.3702 87.8008 30.1357 87.3409L30.0352 87.6108ZM31.7598 90.0571L31.4736 90.0904C31.5906 91.0956 31.3615 92.243 30.9615 93.1597L31.2256 93.2749L31.4896 93.3901C31.9215 92.4001 32.1769 91.1499 32.0459 90.0238L31.7598 90.0571ZM31.2256 93.2749L30.9616 93.1596C30.2895 94.6992 28.8194 95.7533 27.2683 96.46L27.3877 96.7222L27.5071 96.9843C29.1099 96.2541 30.7338 95.1213 31.4896 93.3902L31.2256 93.2749ZM27.3877 96.7222L27.2683 96.46C25.7529 97.1502 24.1725 97.5012 23.2232 97.6525L23.2686 97.937L23.3139 98.2215C24.2935 98.0653 25.9286 97.7033 27.5071 96.9843L27.3877 96.7222ZM23.2686 97.937L23.0629 97.7353C22.875 97.9268 22.592 98.2053 22.3001 98.4665L22.4922 98.6812L22.6843 98.8958C22.9883 98.6238 23.2807 98.336 23.4742 98.1388L23.2686 97.937ZM22.4922 98.6812L22.3001 98.4665C21.9813 98.7517 21.6592 99.0124 21.4414 99.1277L21.5762 99.3823L21.711 99.6369C21.9989 99.4845 22.3688 99.1781 22.6843 98.8959L22.4922 98.6812ZM21.5762 99.3823L21.4473 99.1247L21.4259 99.1354L21.5547 99.3931L21.6835 99.6507L21.705 99.64L21.5762 99.3823ZM21.5547 99.3931L21.4875 99.1129L21.463 99.1188L21.5303 99.3989L21.5975 99.6791L21.6219 99.6732L21.5547 99.3931ZM21.5303 99.3989L21.4643 99.1185C19.1787 99.6561 16.574 99.7483 14.5088 99.692L14.501 99.98L14.4931 100.268C16.5798 100.325 19.2409 100.233 21.5962 99.6794L21.5303 99.3989ZM14.501 99.98L14.5088 99.692C13.477 99.6639 12.5801 99.5983 11.9276 99.5341L11.8994 99.8208L11.8712 100.107C12.536 100.173 13.4466 100.239 14.4931 100.268L14.501 99.98ZM11.8994 99.8208L11.9276 99.5341C11.6011 99.502 11.3356 99.4706 11.1458 99.4438L11.1055 99.729L11.0651 100.014C11.2655 100.043 11.5396 100.075 11.8712 100.107L11.8994 99.8208ZM11.1055 99.729L11.1459 99.4438C11.0518 99.4305 10.9752 99.4179 10.9196 99.4076L10.8672 99.6909L10.8148 99.9742C10.8802 99.9863 10.965 100 11.0651 100.014L11.1055 99.729ZM10.8672 99.6909L10.9196 99.4076C10.8955 99.4032 10.8737 99.3989 10.855 99.3944C10.8459 99.3922 10.839 99.3903 10.8341 99.3888C10.8288 99.3872 10.8284 99.3868 10.8313 99.3881L10.7178 99.6528L10.6043 99.9176C10.6774 99.949 10.7708 99.9661 10.8148 99.9742L10.8672 99.6909ZM10.7178 99.6528L10.8319 99.3883C10.8208 99.3835 10.7936 99.3681 10.749 99.3385L10.5898 99.5786L10.4307 99.8188C10.4747 99.8479 10.5402 99.89 10.6037 99.9173L10.7178 99.6528ZM10.5898 99.5786L10.749 99.3385C10.7056 99.3097 10.6492 99.2699 10.5814 99.2202L10.4111 99.4526L10.2409 99.685C10.3121 99.7372 10.3766 99.7829 10.4307 99.8187L10.5898 99.5786ZM10.4111 99.4526L10.5814 99.2203C10.4464 99.1214 10.2684 98.9845 10.0606 98.8171L9.87988 99.0415L9.6992 99.2659C9.91213 99.4373 10.0972 99.5798 10.2409 99.685L10.4111 99.4526ZM9.87988 99.0415L10.0606 98.8171C9.64428 98.4819 9.10741 98.0238 8.54986 97.5045L8.35352 97.7153L8.15717 97.9261C8.72536 98.4554 9.27272 98.9224 9.69919 99.2659L9.87988 99.0415ZM8.35352 97.7153L8.54986 97.5045C7.43127 96.4626 6.24211 95.183 5.76068 94.1378L5.49902 94.2583L5.23737 94.3788C5.77136 95.5381 7.04014 96.8857 8.15717 97.9261L8.35352 97.7153ZM5.49902 94.2583L5.76071 94.1378C4.83816 92.1337 4.21326 88.6041 4.15227 85.6557L3.86426 85.6616L3.57624 85.6676C3.63811 88.6587 4.26925 92.2757 5.23734 94.3788L5.49902 94.2583ZM3.86426 85.6616L4.14883 85.6168C4.12771 85.4828 4.12606 85.344 4.14645 85.2028L3.86133 85.1616L3.57621 85.1204C3.54748 85.3193 3.54971 85.5162 3.57969 85.7065L3.86426 85.6616ZM3.86133 85.1616L4.14616 85.2048L4.15104 85.1726L3.86621 85.1294L3.58138 85.0862L3.5765 85.1185L3.86133 85.1616ZM3.86621 85.1294L4.12209 85.2617L4.13674 85.2334L3.88086 85.1011L3.62498 84.9687L3.61033 84.997L3.86621 85.1294ZM3.88086 85.1011L4.13645 85.234C4.38391 84.7581 4.96127 84.3426 5.79022 83.9946L5.67871 83.729L5.5672 83.4634C4.7057 83.8251 3.9689 84.3073 3.62527 84.9682L3.88086 85.1011ZM5.67871 83.729L5.79019 83.9946C6.61562 83.6482 7.67512 83.3747 8.8603 83.1711L8.81152 82.8872L8.76275 82.6033C7.55481 82.8108 6.4483 83.0936 5.56723 83.4634L5.67871 83.729ZM29.4141 89.2446L29.4243 88.9567C28.609 88.9277 27.5417 89.1815 27.1152 89.3083L27.1973 89.5845L27.2794 89.8606C27.6898 89.7386 28.6843 89.5069 29.4038 89.5325L29.4141 89.2446ZM27.1973 89.5845L27.1169 89.3078L27.0867 89.3166L27.167 89.5933L27.2473 89.8699L27.2776 89.8611L27.1973 89.5845ZM27.167 89.5933L26.8983 89.4893L26.8866 89.5195L27.1553 89.6235L27.4239 89.7275L27.4356 89.6973L27.167 89.5933ZM27.1553 89.6235L26.8862 89.5208L24.5893 95.5354L24.8584 95.6382L25.1275 95.741L27.4244 89.7263L27.1553 89.6235ZM24.8584 95.6382L24.5898 95.5341L24.5478 95.6425L24.8164 95.7466L25.085 95.8506L25.127 95.7422L24.8584 95.6382ZM24.8164 95.7466L24.8743 96.0288L24.9886 96.0053L24.9307 95.7231L24.8728 95.4409L24.7585 95.4644L24.8164 95.7466ZM24.9307 95.7231L24.9883 96.0054C25.5366 95.8934 26.4169 95.6372 27.3008 95.2277L27.1797 94.9663L27.0586 94.7049C26.2184 95.0942 25.381 95.3371 24.873 95.4409L24.9307 95.7231ZM27.1797 94.9663L27.3008 95.2277C28.1789 94.8208 29.1001 94.2441 29.6912 93.476L29.4629 93.3003L29.2346 93.1246C28.7261 93.7854 27.9022 94.314 27.0586 94.7049L27.1797 94.9663ZM29.4629 93.3003L29.6912 93.4759C30.4185 92.5304 30.6815 91.4656 30.6253 90.6153L30.3379 90.6343L30.0504 90.6533C30.0973 91.3628 29.8769 92.2894 29.2345 93.1247L29.4629 93.3003ZM30.3379 90.6343L30.6253 90.6152C30.5972 90.1915 30.4873 89.8014 30.2976 89.5038L30.0547 89.6587L29.8118 89.8136C29.9362 90.0087 30.0269 90.2983 30.0504 90.6533L30.3379 90.6343ZM30.0547 89.6587L30.2975 89.5037C30.1058 89.2034 29.8098 88.9707 29.4245 88.9567L29.4141 89.2446L29.4037 89.5325C29.5452 89.5376 29.6886 89.6206 29.8119 89.8137L30.0547 89.6587ZM16.2803 83.7778L16.2828 83.4898C11.0051 83.443 6.81694 85.2881 5.35869 86.2355L5.51562 86.4771L5.67256 86.7186C7.04367 85.8279 11.1221 84.0202 16.2777 84.0659L16.2803 83.7778ZM5.51562 86.4771L5.39126 86.7369C13.2613 90.5037 22.2212 88.5684 25.7255 87.1313L25.6162 86.8647L25.5069 86.5982C22.0845 88.0017 13.3074 89.8869 5.63999 86.2172L5.51562 86.4771ZM25.6162 86.8647L25.8272 86.6686C24.8277 85.5932 21.5673 83.5367 16.2828 83.4898L16.2803 83.7778L16.2777 84.0659C21.4274 84.1117 24.5285 86.1176 25.4052 87.0609L25.6162 86.8647Z" fill="#F3EFE6"/>
<path fill-rule="evenodd" clip-rule="evenodd" d="M17.7402 93.294C17.7762 93.1945 17.8866 93.1432 17.9863 93.1788C18.0861 93.2147 18.1384 93.325 18.1025 93.4249C18.0913 93.4563 18.0498 93.5811 18.0537 93.8135C18.0542 93.827 18.0708 93.875 18.1445 93.9581C18.178 93.9958 18.2158 94.0324 18.2539 94.0674L18.3682 94.168L18.3799 94.1788L18.3896 94.1905C18.4207 94.2281 18.4611 94.2622 18.5059 94.296C18.5167 94.3041 18.5282 94.3124 18.5391 94.3204C18.5497 94.3282 18.5616 94.3377 18.5723 94.3458C18.5887 94.3582 18.6144 94.378 18.6367 94.4014C18.6485 94.4134 18.6639 94.4255 18.6885 94.4454C18.7707 94.5122 18.7834 94.6334 18.7168 94.7159C18.65 94.7982 18.5288 94.8108 18.4463 94.7442C18.4244 94.7265 18.3927 94.7017 18.3633 94.6719L18.3564 94.6641C18.3538 94.6619 18.3485 94.6582 18.3408 94.6524C18.3327 94.6463 18.3228 94.6392 18.3115 94.6309C18.3007 94.623 18.2883 94.6133 18.2754 94.6036C18.2291 94.5687 18.1696 94.519 18.1143 94.4571C18.0488 94.3997 17.9433 94.3107 17.8564 94.213C17.8299 94.183 17.8018 94.1466 17.7744 94.1065C17.7157 94.1438 17.6355 94.1931 17.54 94.2276C17.4934 94.2445 17.4835 94.2555 17.4072 94.2901C17.342 94.3197 17.2638 94.3462 17.1562 94.3575C17 94.3739 16.9068 94.4019 16.8096 94.4307C16.7059 94.4615 16.5951 94.4939 16.4248 94.503C16.2054 94.5147 15.778 94.5341 15.5469 94.5128C15.3719 94.4966 15.242 94.4457 15.1406 94.4014C15.0315 94.3538 14.9845 94.3302 14.9297 94.3233C14.7777 94.3042 14.6352 94.2555 14.5186 94.2071C14.524 94.2767 14.5233 94.3364 14.5117 94.3887C14.496 94.4595 14.4683 94.5052 14.4531 94.5294C14.4447 94.5428 14.4387 94.5549 14.4307 94.5694C14.4232 94.5829 14.4118 94.6032 14.3975 94.6241C14.3647 94.6718 14.3241 94.7109 14.2656 94.754L14.2646 94.752C14.2489 94.7649 14.2343 94.7778 14.2246 94.7842C14.2061 94.7965 14.1852 94.8095 14.165 94.8214C14.1308 94.8415 14.078 94.8709 14.042 94.8839C14.0399 94.8848 14.0346 94.8872 14.0254 94.8917C14.0128 94.8978 13.9935 94.9074 13.9746 94.9161C13.9555 94.9249 13.9316 94.9359 13.9072 94.9444C13.8875 94.9513 13.8475 94.9639 13.8027 94.9639C13.6967 94.9639 13.6106 94.8775 13.6104 94.7715C13.6105 94.6731 13.6848 94.5922 13.7803 94.5811C13.7874 94.5786 13.7981 94.5741 13.8125 94.5674C13.8275 94.5605 13.8421 94.5539 13.8584 94.546C13.8658 94.5424 13.8739 94.5379 13.8818 94.5342C13.8892 94.5309 13.9006 94.5257 13.9121 94.5215C13.9154 94.52 13.9203 94.5176 13.9258 94.5147C13.9386 94.508 13.9548 94.4987 13.9707 94.4893C13.9867 94.4799 14.0016 94.4713 14.0127 94.4639C14.0181 94.4604 14.0215 94.4576 14.0234 94.4561L14.0264 94.4532L14.0371 94.4444C14.0717 94.4189 14.0783 94.4089 14.0801 94.4063C14.0828 94.4023 14.0866 94.3965 14.0947 94.3819C14.1024 94.3681 14.1132 94.3476 14.1279 94.3243C14.1318 94.3181 14.1332 94.3157 14.1338 94.3145C14.1341 94.3138 14.1356 94.3107 14.1367 94.3057C14.1392 94.2944 14.1437 94.2625 14.1348 94.1983C14.1187 94.0838 14.0859 93.9376 14.0479 93.8087C14.0289 93.7446 14.0086 93.687 13.9902 93.6417C13.9812 93.6194 13.9729 93.6007 13.9658 93.587C13.9595 93.5748 13.9552 93.5681 13.9541 93.5665C13.889 93.4829 13.9039 93.3623 13.9873 93.2969C14.071 93.2317 14.1925 93.2464 14.2578 93.3301C14.2946 93.3776 14.3239 93.4411 14.3467 93.4971C14.3711 93.5573 14.3948 93.6274 14.416 93.6993C14.4195 93.7111 14.4214 93.7234 14.4248 93.7354C14.5149 93.7825 14.7327 93.9106 14.9775 93.9415C15.1025 93.9572 15.2166 94.0147 15.2949 94.0489C15.3811 94.0865 15.4668 94.1193 15.582 94.1299C15.7796 94.1482 16.1769 94.1314 16.4043 94.1192C16.5282 94.1126 16.6039 94.0911 16.7002 94.0626C16.8029 94.0321 16.9236 93.9958 17.1162 93.9756C17.1747 93.9695 17.2124 93.9557 17.248 93.9395C17.2697 93.9297 17.2869 93.9213 17.3154 93.9073C17.3415 93.8945 17.3735 93.8795 17.4102 93.8663C17.5048 93.832 17.5772 93.7798 17.6396 93.7393L17.6572 93.7286L17.6719 93.7217C17.6784 93.4957 17.7181 93.3557 17.7402 93.294Z" fill="#F3EFE6"/>
<path d="M10.165 93.1571C10.1578 93.1571 10.1685 93.1403 10.192 93.098C10.2203 93.047 10.2084 92.9792 10.1941 92.941C10.1762 92.8934 10.1073 92.9323 10.0784 92.9449C10.0466 92.9589 10.0277 92.9957 10.0168 93.0317C9.99444 93.1059 10.0203 93.1947 10.0761 93.284C10.1154 93.3467 10.1793 93.3521 10.2118 93.3585C10.2299 93.3606 10.2514 93.3606 10.2624 93.3081C10.2735 93.2557 10.2735 93.1507 10.2735 93.0426" stroke="#F3EFE6" stroke-width="0.512611" stroke-linecap="round"/>
<path fill-rule="evenodd" clip-rule="evenodd" d="M22.0971 92.6709C22.1598 92.6862 22.2242 92.726 22.2699 92.794C22.2751 92.7972 22.2816 92.7992 22.2865 92.8028C22.311 92.8205 22.331 92.8407 22.3471 92.8604L22.3851 92.917L22.4232 93.0078C22.4491 93.0967 22.4429 93.18 22.433 93.2363C22.4261 93.275 22.416 93.3091 22.4086 93.333C22.4051 93.3443 22.4008 93.357 22.3988 93.3633C22.3969 93.3695 22.3961 93.3724 22.3959 93.3731C22.3795 93.4351 22.3404 93.5238 22.2455 93.5772C22.2022 93.6014 22.1591 93.6102 22.1254 93.6133H22.0531L22.0453 93.6113C22.0402 93.6108 21.8379 93.6 21.7142 93.4414C21.6309 93.3343 21.5261 93.1464 21.6029 92.9414C21.6262 92.8797 21.6881 92.7548 21.8344 92.7031L21.8451 92.6992C21.8512 92.697 21.86 92.6938 21.8695 92.6904C21.8878 92.6841 21.9168 92.6741 21.9496 92.668C21.9791 92.6625 22.0345 92.6557 22.0971 92.6709Z" fill="#F3EFE6"/>
<path d="M0.320312 99.853L93.9459 100.173" stroke="#F3EFE6" stroke-width="0.640175" stroke-linecap="round"/>
<path d="M10.0826 81.2878C11.3628 79.0471 13.8595 79.0792 10.4026 76.6465C6.94564 74.2138 9.60237 71.4717 11.3628 70.4048" stroke="white" stroke-width="0.640175" stroke-linecap="round"/>
<path d="M20.5699 81.2878C24.9675 75.6862 21.6833 75.426 20.0062 74.2458C16.5493 71.8132 20.0897 71.4717 21.8502 70.4048" stroke="white" stroke-width="0.640175" stroke-linecap="round"/>
<path d="M14.8077 77.4469C16.0879 75.2063 18.2646 73.958 14.8077 71.5253C11.3507 69.0927 14.3275 67.6309 16.0879 66.564" stroke="white" stroke-width="0.640175" stroke-linecap="round"/>
<path d="M125.113 58.2417H164.193C164.836 58.2417 165.298 58.862 165.112 59.4782L153.001 99.8092C152.879 100.215 152.505 100.493 152.081 100.493H113.51H82.261C81.7307 100.493 81.3008 100.063 81.3008 99.533V98.2526C81.3008 97.7223 81.7307 97.2924 82.261 97.2924H114.333L124.183 58.9629C124.292 58.5385 124.675 58.2417 125.113 58.2417Z" fill="#F3EFE6"/>
<path d="M114.333 97.2924L113.51 100.493H152.081C152.505 100.493 152.879 100.215 153.001 99.8092L165.112 59.4782C165.298 58.862 164.836 58.2417 164.193 58.2417H125.113C124.675 58.2417 124.292 58.5385 124.183 58.9629L114.333 97.2924ZM113.51 100.493H82.261C81.7307 100.493 81.3008 100.063 81.3008 99.533V98.2526C81.3008 97.7223 81.7307 97.2924 82.261 97.2924H114.333" stroke="#F3EFE6" stroke-width="0.960262" stroke-linecap="round"/>
<path d="M67.2176 17.7507C67.3727 20.4052 69.9384 23.9924 69.9384 23.9924C69.9384 23.9924 70.4186 18.871 73.6195 16.4703L82.1017 11.1889C82.1017 11.1889 79.381 11.0288 79.221 10.8688C79.0609 10.7088 82.1017 6.70766 82.1017 6.70766C82.1017 6.70766 78.1041 6.02203 75.6999 6.70766C73.4631 7.34555 72.2104 8.091 70.5785 9.74849C68.2005 12.1638 67.02 14.367 67.2176 17.7507Z" fill="#F3EFE6"/>
<path d="M82.1017 6.70766C82.1017 6.70766 78.1041 6.02203 75.6999 6.70766C73.4631 7.34555 72.2104 8.091 70.5785 9.74849C68.2005 12.1638 67.02 14.367 67.2176 17.7507C67.3727 20.4052 69.9384 23.9924 69.9384 23.9924C69.9384 23.9924 70.4186 18.871 73.6195 16.4703L82.1017 11.1889C82.1017 11.1889 79.381 11.0288 79.221 10.8688C79.0609 10.7088 82.1017 6.70766 82.1017 6.70766ZM82.1017 6.70766C82.1017 6.70766 85.0401 2.63146 87.8633 1.58626C90.5595 0.588065 93.4534 -0.677856 95.2253 1.58626C96.612 3.35817 96.1556 5.29912 95.2253 7.34783C94.3474 9.28105 91.2242 11.0288 91.2242 11.0288" stroke="#F3EFE6" stroke-width="0.640175" stroke-linecap="round"/>
<path d="M82.103 6.70752C82.103 6.70752 77.6534 11.1385 79.5423 10.8687C84.023 10.2285 86.5837 10.3885 86.5837 10.3885" stroke="#F3EFE6" stroke-width="0.640175" stroke-linecap="round"/>
<path d="M95.6255 23.0322C95.6255 23.0322 97.5037 23.4385 98.5863 23.0322C100.901 22.1635 101.202 19.5545 100.827 17.1106C100.307 13.7241 93.945 11.6691 93.945 11.6691C93.945 11.6691 90.104 10.7085 86.743 10.3888C82.4783 9.98318 80.0596 12.3261 76.5002 14.7099C73.779 16.5325 71.9789 17.2802 70.7387 20.3115C69.8837 22.4012 69.795 24.3158 70.0985 26.5532C70.5157 29.6287 73.1393 33.275 73.1393 33.275L75.0598 28.7938C75.0598 28.7938 73.1393 24.3126 75.54 23.0322C76.3836 22.5823 77.9406 23.5123 77.9406 23.5123C77.9406 23.5123 77.8728 25.6847 78.7408 26.5532C80.4618 28.2749 80.8292 23.1884 82.902 21.9119C85.1479 20.5288 89.4638 20.3115 89.4638 20.3115C89.4638 20.3115 91.092 22.5652 92.6647 23.0322C93.7731 23.3614 95.6255 23.0322 95.6255 23.0322M95.6255 23.0322C95.6255 23.0322 94.9505 28.3411 94.105 31.9947C93.1121 36.2858 91.8644 39.5167 88.8236 42.5575C87.2149 44.1663 84.8225 44.6381 84.8225 44.6381C84.8225 44.6381 81.3155 43.9711 79.381 43.0377C76.7862 41.7856 74.5797 38.2364 74.5797 38.2364" stroke="#F3EFE6" stroke-width="0.640175" stroke-linecap="round"/>
<path d="M113.951 69.4458V72.0056L112.83 71.8464C112.83 71.8464 107.389 76.0066 107.709 76.1667C107.911 76.2679 115.551 85.1291 115.551 85.1291V87.5298C115.551 87.5298 110.751 81.6495 106.748 79.0475C102.681 76.4032 100.057 74.8454 95.2253 74.4062C84.6624 73.4459 69.1382 75.5265 62.8965 76.1667C62.7373 76.183 37.4497 89.7713 37.4497 89.7713C37.4497 89.7713 30.7817 79.0111 32.1682 71.8464C34.0887 61.9228 37.4497 55.201 44.9717 46.0794C51.0239 38.7403 68.3381 39.1975 68.3381 39.1975L80.3414 48.48C80.3414 48.48 85.3115 44.4905 88.0235 46.0794C103.868 55.3619 113.951 69.4458 113.951 69.4458Z" fill="#F3EFE6" stroke="#F3EFE6" stroke-width="0.640175" stroke-linecap="round"/>
<path d="M86.2635 91.6908C80.3884 94.3783 77.602 97.5714 71.2194 98.5726C63.0572 99.853 58.826 100.433 52.3343 98.5726C45.8425 96.7124 37.4502 89.7702 37.4502 89.7702L63.0572 76.1665C63.0572 76.1665 84.343 73.1257 96.5063 74.5661C103.729 75.4213 112.831 83.5285 112.831 83.5285L118.912 92.651C118.912 92.651 118.897 94.2299 118.272 94.8916C117.285 95.9369 114.591 94.8916 114.591 94.8916L108.67 89.7702L111.55 95.0517C111.55 95.0517 110.507 97.4172 109.15 97.6124C107.565 97.8404 105.949 95.0517 105.949 95.0517L101.948 91.0506L104.188 94.0914C104.188 94.0914 103.59 95.9405 102.588 96.332C101.334 96.8222 99.3871 95.0517 99.3871 95.0517L95.5461 93.9314C95.5461 93.9314 92.985 94.2152 91.3849 93.9314C89.2354 93.5501 88.2636 92.5658 86.2635 91.6908ZM86.2635 91.6908C86.8885 90.0657 87.864 87.5296 87.864 87.5296M112.831 72.0054C112.831 72.0054 117.761 73.9318 120.193 76.1665C123.429 79.1409 125.794 85.9292 125.794 85.9292L127.875 88.3298" stroke="#F3EFE6" stroke-width="0.640175" stroke-linecap="round"/>
<path d="M112.83 72.0054L107.869 76.1665L116.031 85.129M116.031 85.129L116.992 79.3674M116.031 85.129V88.1698" stroke="#F3EFE6" stroke-width="0.640175" stroke-linecap="round"/>
<path d="M84.8223 44.6377L85.1424 45.9036" stroke="#F3EFE6" stroke-width="0.640175" stroke-linecap="round"/>
</svg>
