<svg width="22" height="22" viewBox="0 0 22 22" fill="none" xmlns="http://www.w3.org/2000/svg">
<g clip-path="url(#clip0_169_161)">
<path d="M1.39042 18.3015C1.46997 19.798 2.61691 21.2029 4.11549 21.2142C4.12917 21.2143 4.14288 21.2143 4.15658 21.2143C4.1703 21.2143 4.18398 21.2143 4.19769 21.2142C5.69626 21.2029 6.84319 19.798 6.92275 18.3015C6.94722 17.8411 6.96356 17.3741 6.96356 16.9014C6.96356 15.9823 6.90177 15.0841 6.8385 14.2153C6.78409 13.468 6.21575 12.8469 5.46872 12.7884C4.57516 12.7183 3.73801 12.7183 2.84444 12.7884C2.09743 12.8469 1.52909 13.468 1.47467 14.2153C1.4114 15.0841 1.34961 15.9823 1.34961 16.9014C1.34961 17.3741 1.36595 17.8411 1.39042 18.3015Z" stroke="#F1EADA" stroke-width="1.57143" stroke-linecap="round" stroke-linejoin="round"/>
<path d="M2.20272 4.21057C2.2278 5.28933 3.07689 6.19354 4.15594 6.19354C5.235 6.19354 6.08407 5.28933 6.10917 4.21057C6.12461 3.54584 6.11871 2.88886 6.09141 2.21819C6.06061 1.46101 5.46678 0.840407 4.71001 0.800778C4.32519 0.780626 3.9867 0.780598 3.60188 0.800705C2.84509 0.840246 2.25126 1.46087 2.22046 2.21805C2.19318 2.88877 2.18726 3.54578 2.20272 4.21057Z" stroke="#F1EADA" stroke-width="1.57143" stroke-linecap="round" stroke-linejoin="round"/>
<path d="M4.15625 12.5268V6.23486" stroke="#F1EADA" stroke-width="1.57143" stroke-linecap="round" stroke-linejoin="round"/>
<path d="M12.5271 1.00483C12.5271 4.14739 13.3876 4.92453 14.9173 4.92453C16.447 4.92453 17.3075 4.14739 17.3075 1.00483C17.3075 0.880989 17.4236 0.788961 17.5426 0.823099C19.7376 1.45256 20.9352 3.0116 20.9352 5.33572C20.9352 7.51723 19.8801 9.02467 17.9355 9.72201C17.8638 9.74772 17.8181 9.81863 17.8225 9.89463C17.8812 10.9274 17.934 13.1688 17.934 14.2533C17.934 15.3378 17.8814 17.6052 17.8225 18.6379C17.7524 19.8684 16.8644 21.0056 15.6395 21.143C15.1652 21.1961 14.6694 21.1961 14.1951 21.143C12.9702 21.0056 12.0822 19.8684 12.0121 18.6379C11.9532 17.6052 11.9005 15.3378 11.9005 14.2533C11.9005 13.1688 11.9533 10.9274 12.0122 9.89463C12.0165 9.81863 11.9708 9.74772 11.8992 9.72201C9.95452 9.02467 8.89941 7.51723 8.89941 5.33572C8.89941 3.0116 10.097 1.45256 12.2919 0.823099C12.411 0.788961 12.5271 0.880989 12.5271 1.00483Z" stroke="#F1EADA" stroke-width="1.57143" stroke-linecap="round" stroke-linejoin="round"/>
</g>
<defs>
<clipPath id="clip0_169_161">
<rect width="22" height="22" fill="white"/>
</clipPath>
</defs>
</svg>
