<svg width="28" height="29" viewBox="0 0 28 29" fill="none" xmlns="http://www.w3.org/2000/svg">
<path d="M8.16699 25.375H19.8337" stroke="#41210A" stroke-width="1.5" stroke-linecap="round" stroke-linejoin="round"/>
<path d="M14 25.375C16.7848 25.375 19.4555 24.2292 21.4246 22.1898C23.3938 20.1503 24.5 17.3842 24.5 14.5H3.5C3.5 17.3842 4.60625 20.1503 6.57538 22.1898C8.54451 24.2292 11.2152 25.375 14 25.375Z" stroke="#41210A" stroke-width="1.5" stroke-linecap="round" stroke-linejoin="round"/>
<path d="M13.2763 14.4999C12.5697 14.5067 11.8868 14.2366 11.3645 13.7437C10.8421 13.2508 10.519 12.5716 10.46 11.8423C10.4009 11.113 10.6103 10.3876 11.0461 9.81151C11.4819 9.23541 12.1118 8.85126 12.8096 8.73611C12.6979 8.22405 12.7225 7.69019 12.8807 7.19146C13.039 6.69274 13.325 6.24785 13.7082 5.90427C14.0915 5.56069 14.5575 5.33129 15.0568 5.24055C15.556 5.14981 16.0697 5.20113 16.543 5.38903C16.7502 5.05113 17.0227 4.76133 17.3434 4.53788C17.6641 4.31442 18.026 4.16214 18.4063 4.09063C18.7865 4.01913 19.177 4.02993 19.553 4.12238C19.9291 4.21482 20.2826 4.3869 20.5913 4.62778C21.1298 4.18942 21.8047 3.97069 22.4884 4.01297C23.1721 4.05525 23.8171 4.3556 24.3014 4.85721C24.7858 5.35881 25.0757 6.02687 25.1166 6.73498C25.1574 7.44309 24.9462 8.14214 24.523 8.69986C24.7864 9.06228 24.9641 9.48365 25.0417 9.9301C25.1193 10.3766 25.0947 10.8357 24.9699 11.2705C24.8451 11.7053 24.6235 12.1037 24.323 12.4338C24.0225 12.7638 23.6514 13.0162 23.2396 13.1707C23.3461 13.6056 23.358 14.0596 23.2746 14.4999" stroke="#41210A" stroke-width="1.5" stroke-linecap="round" stroke-linejoin="round"/>
<path d="M15.167 14.4998L19.8337 9.6665" stroke="#41210A" stroke-width="1.5" stroke-linecap="round" stroke-linejoin="round"/>
<path d="M12.7171 8.76056C12.0771 8.05401 11.2465 7.56351 10.3335 7.353C9.42052 7.14249 8.46746 7.22173 7.59857 7.58039C6.72968 7.93906 5.98527 8.56051 5.46236 9.36374C4.93946 10.167 4.66231 11.1147 4.66705 12.0835C4.66705 12.9656 4.90039 13.7872 5.29705 14.5001" stroke="#41210A" stroke-width="1.5" stroke-linecap="round" stroke-linejoin="round"/>
</svg>
