<svg width="134" height="38" viewBox="0 0 134 38" fill="none" xmlns="http://www.w3.org/2000/svg">
<path fill-rule="evenodd" clip-rule="evenodd" d="M8.14618 9.28018C12.0681 8.60655 16.7921 8.39802 20.8952 8.58486C24.2568 8.73796 28.6525 9.41938 32.2136 10.4257C33.9922 10.9283 35.581 11.5177 36.7321 12.1718C37.3069 12.4984 37.7884 12.8496 38.1296 13.2274C38.4712 13.6059 38.6931 14.0344 38.6931 14.5038V14.5194L38.6911 14.5351C38.6097 15.4022 38.6102 16.1761 38.6306 16.7323C38.6375 16.9228 38.6496 17.0876 38.6589 17.2216C38.6838 17.2146 38.7101 17.2074 38.737 17.2001C39.032 17.1198 39.443 17.0189 39.9069 16.9374C40.8167 16.7777 42.0005 16.6779 42.902 17.0136C44.7094 17.6867 45.5335 19.2774 45.738 21.0321C45.9416 22.7804 45.543 24.7453 44.861 26.3085C43.6898 28.9926 41.153 30.7857 38.569 31.9628C36.0371 33.1161 33.4075 33.7006 31.8268 33.953C31.5144 34.2713 31.0453 34.7311 30.5593 35.1659C30.0398 35.6307 29.4728 36.0958 29.0563 36.3163L29.0192 36.3358L28.9772 36.3456C25.1755 37.2401 20.8634 37.3894 17.4636 37.2968C15.7615 37.2504 14.2826 37.1432 13.2038 37.037C12.6647 36.9839 12.2238 36.9309 11.904 36.8856C11.7444 36.8631 11.612 36.8425 11.5124 36.8241C11.4294 36.8088 11.3293 36.7885 11.2643 36.7606C11.2014 36.7336 11.1244 36.685 11.0515 36.6366C10.9713 36.5835 10.8724 36.5141 10.7585 36.4306C10.5299 36.2631 10.2324 36.0336 9.88739 35.7558C9.19721 35.1999 8.30921 34.4444 7.38739 33.5858C5.55698 31.8809 3.54309 29.7271 2.71063 27.9188C1.16149 24.5534 0.134271 18.7014 0.0338752 13.8378C-0.0078379 13.5712 -0.012459 13.2969 0.0280158 13.0175L0.0368048 12.9618L0.0621955 12.912C0.549092 11.9758 1.62911 11.2395 3.01434 10.6581C4.41307 10.0711 6.18628 9.61684 8.14618 9.28018ZM41.8806 19.6972C40.6234 19.6523 38.9354 20.051 38.2497 20.2548L38.197 20.2704L38.1774 20.3222L34.4157 30.1688L34.3444 30.3563L34.5417 30.3163C35.4069 30.1395 36.8117 29.7301 38.2233 29.0761C39.6335 28.4226 41.0636 27.5188 41.9645 26.3476C43.0869 24.8883 43.4818 23.2569 43.3972 21.9784C43.3548 21.3402 43.1921 20.7831 42.9343 20.3788C42.6757 19.9737 42.3144 19.7128 41.8806 19.6972Z" fill="#F1EADA"/>
<path d="M20.3784 10.7548C11.8371 10.6789 5.06999 13.6692 2.7541 15.1738C15.4732 21.2614 29.9927 18.1327 35.6625 15.8074C34.1267 14.1548 28.9197 10.8307 20.3784 10.7548Z" fill="#41210A"/>
<path d="M31.4446 13.7506L6.88322 2.85284C6.88322 2.85284 7.52444 2.54801 7.82364 2.18898C8.10023 1.85708 8.43214 1.63581 8.43214 1.63581C16.1767 0.529439 26.3553 4.75209 30.3383 7.05703C32.6063 9.6017 33.3566 12.325 33.3566 12.7233C33.3566 13.2211 31.4446 15.2995 31.4446 15.4101V13.7506Z" fill="#41210A"/>
<path d="M14.1669 0.0281433C11.2563 0.223571 9.0136 1.19939 8.25606 1.66287C10.0171 2.30272 14.645 2.7896 14.645 2.7896C14.645 2.7896 25.4741 3.96309 30.0294 7.49701C32.6084 9.49781 33.3362 12.8532 33.3362 12.8532C33.5749 12.6896 32.7996 9.73808 32.0749 8.0451C30.8698 5.23001 29.002 4.26235 26.3235 2.7816C24.1489 1.57941 20.6888 0.719104 20.6888 0.719104C20.6888 0.719104 17.0774 -0.167284 14.1669 0.0281433Z" fill="#B59E7D"/>
<path d="M16.895 5.18054L7.25835 2.59841C6.72128 2.70375 5.54001 3.48391 5.11152 5.76186C4.6763 11.2045 10.5818 14.9228 16.8117 16.7644C21.9402 18.2805 27.6256 18.1988 31.0319 15.877C32.1446 15.1185 32.7346 13.8989 32.06 12.0399C30.9382 8.94855 23.9572 6.76401 23.9572 6.76401C23.9572 6.76401 19.1637 5.58254 16.895 5.18054Z" fill="#B59E7D"/>
<path d="M31.4446 13.7506L6.88322 2.85284C6.88322 2.85284 7.52444 2.54801 7.82364 2.18898C8.10023 1.85708 8.43214 1.63581 8.43214 1.63581C16.1767 0.529439 26.3553 4.75209 30.3383 7.05703C32.6063 9.6017 33.3566 12.325 33.3566 12.7233C33.3566 13.2211 31.4446 15.2995 31.4446 15.4101V13.7506Z" stroke="#B59E7D"/>
<path d="M14.1669 0.0281433C11.2563 0.223571 9.0136 1.19939 8.25606 1.66287C10.0171 2.30272 14.645 2.7896 14.645 2.7896C14.645 2.7896 25.4741 3.96309 30.0294 7.49701C32.6084 9.49781 33.3362 12.8532 33.3362 12.8532C33.5749 12.6896 32.7996 9.73808 32.0749 8.0451C30.8698 5.23001 29.002 4.26235 26.3235 2.7816C24.1489 1.57941 20.6888 0.719104 20.6888 0.719104C20.6888 0.719104 17.0774 -0.167284 14.1669 0.0281433Z" stroke="#B59E7D"/>
<path d="M16.895 5.18054L7.25835 2.59841C6.72128 2.70375 5.54001 3.48391 5.11152 5.76186C4.6763 11.2045 10.5818 14.9228 16.8117 16.7644C21.9402 18.2805 27.6256 18.1988 31.0319 15.877C32.1446 15.1185 32.7346 13.8989 32.06 12.0399C30.9382 8.94855 23.9572 6.76401 23.9572 6.76401C23.9572 6.76401 19.1637 5.58254 16.895 5.18054Z" stroke="#B59E7D"/>
<path d="M16.8551 26.6416C16.9814 26.8054 17.1467 27.3998 17.2026 27.8031C17.2387 28.0642 17.1829 28.1574 17.1485 28.2127C17.0739 28.3324 17.0769 28.3777 16.9272 28.4893C16.8896 28.5268 16.703 28.6362 16.6506 28.6552C16.5982 28.6743 16.4427 28.7659 16.374 28.7659" stroke="#41210A" stroke-width="0.663822" stroke-linecap="round"/>
<path d="M22.9328 26.3945C22.9032 26.4762 22.8283 26.7149 22.8354 27.1332C22.8403 27.4184 23.2289 27.7396 23.4549 27.9357C23.6046 28.1153 23.8148 28.2261 23.8782 28.297C23.9119 28.3308 23.949 28.3605 23.9871 28.391" stroke="#41210A" stroke-width="0.663822" stroke-linecap="round"/>
<path d="M17.2598 27.3828C17.3787 27.4423 17.7895 27.6801 18.256 27.7368C18.5441 27.7718 18.7688 27.987 19.2337 28.0285C19.5771 28.0592 20.2372 28.0323 20.5951 28.0138C21.0665 27.9894 21.1919 27.8461 21.7513 27.7895C22.0176 27.7625 22.1217 27.6642 22.2938 27.6041C22.4863 27.5368 22.6354 27.4345 22.7248 27.3784C22.7772 27.3594 22.8438 27.3594 22.9124 27.3594" stroke="#41210A" stroke-width="0.663822" stroke-linecap="round"/>
<path d="M30.0454 25.9458C29.9274 25.7229 29.8283 26.118 29.8768 26.0436C29.9355 25.9536 29.9108 25.834 29.8812 25.7667C29.8443 25.6828 29.7017 25.7513 29.6421 25.7736C29.5763 25.7982 29.5371 25.8632 29.5147 25.9266C29.4684 26.0574 29.5218 26.214 29.6373 26.3714C29.7184 26.4821 29.8507 26.4915 29.9178 26.5027C29.9552 26.5065 29.9996 26.5065 30.0225 26.414C30.0454 26.3215 30.1346 26.1143 30.0454 25.9458Z" stroke="#41210A" stroke-width="0.885096" stroke-linecap="round"/>
<path d="M10.3914 26.0895C10.3766 26.0895 10.3986 26.0599 10.4471 25.9855C10.5058 25.8955 10.4811 25.7759 10.4515 25.7086C10.4146 25.6247 10.2721 25.6932 10.2124 25.7155C10.1466 25.7401 10.1074 25.8051 10.085 25.8685C10.0387 25.9992 10.0922 26.1559 10.2076 26.3133C10.2887 26.4239 10.421 26.4334 10.4881 26.4446C10.5255 26.4484 10.57 26.4484 10.5928 26.3559C10.6157 26.2634 10.6157 26.0783 10.6157 25.8876" stroke="#41210A" stroke-width="0.885096" stroke-linecap="round"/>
<circle cx="29.8717" cy="26.1104" r="0.221274" fill="#41210A"/>
<path d="M61.975 29.1C62.0417 29.2167 62.075 29.325 62.075 29.425C62.075 29.6583 61.9583 29.8583 61.725 30.025C61.5083 30.2083 61.2583 30.3 60.975 30.3C60.8083 30.3 60.6417 30.25 60.475 30.15C60.325 30.0667 60.2083 29.9333 60.125 29.75C59.9417 29.6667 59.775 29.4917 59.625 29.225C59.475 28.9417 59.4083 28.7 59.425 28.5C59.125 28.4333 58.9083 28.3 58.775 28.1C58.6583 27.9 58.5917 27.6083 58.575 27.225C58.3417 27.0917 58.1417 26.925 57.975 26.725C57.825 26.5083 57.775 26.2917 57.825 26.075C57.575 26.025 57.35 25.8667 57.15 25.6C56.9667 25.3167 56.8833 25.0417 56.9 24.775C56.5667 24.6917 56.3417 24.2667 56.225 23.5C56.2083 23.6167 56.1417 23.7333 56.025 23.85C55.925 23.95 55.825 24 55.725 24C55.6917 24.1667 55.6333 24.3083 55.55 24.425C55.4667 24.5417 55.3667 24.6 55.25 24.6C55.2667 24.7833 55.2417 24.9667 55.175 25.15C55.1083 25.3167 55.0083 25.4583 54.875 25.575C54.925 25.675 54.95 25.8167 54.95 26C54.95 26.25 54.9167 26.4083 54.85 26.475C55.05 26.6917 55.15 26.9 55.15 27.1C55.15 27.2167 55.0917 27.3667 54.975 27.55C55.0917 27.7667 55.15 27.9583 55.15 28.125C55.15 28.2917 55.1333 28.425 55.1 28.525C55.1667 28.675 55.2 28.8417 55.2 29.025C55.2 29.325 55.0833 29.5833 54.85 29.8C54.6167 30 54.3583 30.1 54.075 30.1C53.6083 30.1 53.3167 29.8417 53.2 29.325C53.0333 29.125 52.95 28.8833 52.95 28.6C52.95 28.4667 52.975 28.3417 53.025 28.225C52.8917 28.0083 52.825 27.7417 52.825 27.425C52.825 27.1583 52.8667 26.925 52.95 26.725C52.8333 26.5583 52.775 26.2667 52.775 25.85C52.775 25.3333 52.8333 24.9167 52.95 24.6C52.8167 24.4333 52.75 24.25 52.75 24.05C52.75 23.7833 52.8333 23.5667 53 23.4C52.8 23.2 52.7 22.95 52.7 22.65C52.7 22.5 52.7417 22.3417 52.825 22.175C52.7083 21.9917 52.65 21.8083 52.65 21.625C52.65 21.4583 52.6917 21.3083 52.775 21.175C52.7083 21.0917 52.675 20.9 52.675 20.6C52.675 20.2833 52.7083 20.05 52.775 19.9C52.7083 19.5667 52.675 19.3833 52.675 19.35C52.675 19.2333 52.7417 19.025 52.875 18.725C52.625 18.3917 52.5 18.0667 52.5 17.75C52.5 17.55 52.5333 17.375 52.6 17.225C52.4833 17.0583 52.425 16.8583 52.425 16.625C52.425 16.5083 52.4417 16.3667 52.475 16.2C52.375 16.05 52.325 15.8583 52.325 15.625C52.325 15.375 52.3833 15.15 52.5 14.95C52.3333 14.65 52.25 14.3833 52.25 14.15C52.25 13.95 52.3083 13.7583 52.425 13.575C52.3417 13.4083 52.3 13.2 52.3 12.95C52.3 12.55 52.4167 12.2083 52.65 11.925C52.9 11.625 53.2167 11.5083 53.6 11.575C53.7333 11.625 53.8833 11.7667 54.05 12C54.2167 12.2333 54.3 12.4833 54.3 12.75L54.275 12.95C54.5417 13.15 54.675 13.4167 54.675 13.75C54.675 13.9833 54.6 14.1917 54.45 14.375C54.7 14.675 54.825 14.9833 54.825 15.3C54.825 15.5833 54.7333 15.825 54.55 16.025C54.7167 16.2583 54.8 16.5417 54.8 16.875C54.8 17.175 54.75 17.4417 54.65 17.675C54.7667 17.7417 54.8583 17.875 54.925 18.075C55.0083 18.2583 55.05 18.4667 55.05 18.7C55.05 19.1167 54.9417 19.4333 54.725 19.65C54.8917 19.8167 54.975 20.0167 54.975 20.25C54.975 20.4167 54.9417 20.5917 54.875 20.775C54.825 20.9417 54.7917 21.0417 54.775 21.075C54.8917 21.1917 54.9833 21.5 55.05 22L55.075 22.025C55.1417 21.7917 55.2917 21.575 55.525 21.375C55.7583 21.1583 55.9417 21.05 56.075 21.05C56.125 20.8333 56.2917 20.575 56.575 20.275C56.8583 19.975 57.1083 19.825 57.325 19.825C57.3417 19.675 57.4583 19.5083 57.675 19.325C57.9083 19.1417 58.1 19.05 58.25 19.05C58.35 18.8 58.5167 18.575 58.75 18.375C59 18.1583 59.2 18.0833 59.35 18.15C59.35 17.8667 59.425 17.6583 59.575 17.525C59.7417 17.375 59.95 17.3 60.2 17.3C60.4833 17.3 60.7333 17.3833 60.95 17.55C61.1833 17.7167 61.3 17.925 61.3 18.175C61.3 18.3417 61.2417 18.5167 61.125 18.7C61.025 19.0667 60.8833 19.325 60.7 19.475C60.5167 19.6083 60.2917 19.6917 60.025 19.725C60.0583 19.9583 59.9667 20.2083 59.75 20.475C59.5333 20.7417 59.2833 20.8667 59 20.85C58.9667 21.1 58.8167 21.35 58.55 21.6C58.3 21.85 58.0417 21.9667 57.775 21.95C58.2083 22.1833 58.425 22.5083 58.425 22.925C58.425 23.075 58.4 23.2417 58.35 23.425C58.5167 23.4583 58.6667 23.5583 58.8 23.725C58.9333 23.875 58.9833 24.0417 58.95 24.225C59.1833 24.325 59.3917 24.525 59.575 24.825C59.7583 25.1083 59.8667 25.3833 59.9 25.65C60.0667 25.7167 60.1917 25.8333 60.275 26C60.3583 26.15 60.4 26.325 60.4 26.525C60.4 26.6417 60.3917 26.7333 60.375 26.8C60.6417 26.8667 60.8583 27.0417 61.025 27.325C61.2083 27.5917 61.325 27.8667 61.375 28.15C61.5417 28.1667 61.7 28.3 61.85 28.55C62 28.7833 62.0417 28.9667 61.975 29.1ZM70.4248 29.7C70.2248 29.9 69.9165 30 69.4998 30C69.1831 30 68.9248 29.95 68.7248 29.85C68.4248 29.9167 68.1581 29.95 67.9248 29.95C67.2748 29.95 66.8081 29.7833 66.5248 29.45C66.4581 29.4667 66.3665 29.475 66.2498 29.475C65.8665 29.475 65.5748 29.3 65.3748 28.95C65.2081 28.9667 64.9915 28.8833 64.7248 28.7C64.4748 28.5 64.3665 28.3083 64.3998 28.125C64.1331 28.0583 63.9081 27.9 63.7248 27.65C63.5581 27.3833 63.4831 27.0833 63.4998 26.75C63.3165 26.6833 63.1748 26.55 63.0748 26.35C62.9748 26.15 62.9248 25.925 62.9248 25.675C62.9248 25.4083 62.9665 25.2167 63.0498 25.1C62.8665 24.8167 62.7748 24.4917 62.7748 24.125C62.7748 23.7417 62.8915 23.4333 63.1248 23.2C62.9415 23.0667 62.8498 22.8667 62.8498 22.6C62.8498 22.4333 62.8915 22.2667 62.9748 22.1C63.0581 21.9333 63.1665 21.8167 63.2998 21.75C63.2665 21.5167 63.2915 21.3 63.3748 21.1C63.4748 20.8833 63.6081 20.725 63.7748 20.625C63.7415 20.575 63.7248 20.5 63.7248 20.4C63.7248 20.25 63.7748 20.1 63.8748 19.95C63.9915 19.8 64.1165 19.7083 64.2498 19.675C64.2331 19.625 64.2248 19.5583 64.2248 19.475C64.2248 19.125 64.3581 18.825 64.6248 18.575C64.8915 18.3083 65.1498 18.1917 65.3998 18.225C65.3998 17.9917 65.4998 17.8 65.6998 17.65C65.9165 17.4833 66.1915 17.4 66.5248 17.4C66.6748 17.4 66.7915 17.4083 66.8748 17.425C66.9915 17.175 67.1915 16.975 67.4748 16.825C67.7581 16.6583 68.0498 16.575 68.3498 16.575C68.5498 16.575 68.7165 16.6167 68.8498 16.7C69.0831 16.5 69.3748 16.4 69.7248 16.4C70.0081 16.4 70.2581 16.4667 70.4748 16.6C70.7081 16.7333 70.8498 16.9167 70.8998 17.15C71.1665 17.15 71.4498 17.25 71.7498 17.45C72.0498 17.6333 72.2248 17.825 72.2748 18.025C72.6748 18.1417 73.0581 18.4 73.4248 18.8C73.8081 19.1833 73.9998 19.575 73.9998 19.975C73.9998 20.0417 73.9831 20.1417 73.9498 20.275C74.6665 20.425 74.9915 21.15 74.9248 22.45C75.0748 22.7 75.1498 22.9667 75.1498 23.25C75.1498 23.5833 75.0415 23.9167 74.8248 24.25C74.8748 24.4 74.8998 24.5417 74.8998 24.675C74.8998 24.875 74.8581 25.0667 74.7748 25.25C74.6915 25.4333 74.5831 25.575 74.4498 25.675C74.4665 25.9417 74.4165 26.1583 74.2998 26.325C74.1998 26.4917 74.0081 26.7167 73.7248 27C73.7415 27.0667 73.7498 27.1667 73.7498 27.3C73.7498 27.8 73.4665 28.125 72.8998 28.275C72.8498 28.5417 72.7081 28.7583 72.4748 28.925C72.2581 29.0917 71.9915 29.175 71.6748 29.175C71.4081 29.5417 71.0831 29.725 70.6998 29.725C70.5831 29.725 70.4915 29.7167 70.4248 29.7ZM68.0748 27.95C68.2081 27.8333 68.4331 27.775 68.7498 27.775C68.9831 27.775 69.1081 27.8083 69.1248 27.875C69.2581 27.725 69.4248 27.6083 69.6248 27.525C69.8248 27.4417 70.0081 27.4083 70.1748 27.425C70.4581 27.1417 70.7665 27 71.0998 27C71.2165 27 71.2998 27.0083 71.3498 27.025C71.3331 26.875 71.3748 26.7333 71.4748 26.6C71.5748 26.45 71.6915 26.35 71.8248 26.3C71.8248 26.0833 71.8748 25.9 71.9748 25.75C72.0915 25.5833 72.2331 25.4583 72.3998 25.375C72.3998 25.0417 72.4665 24.775 72.5998 24.575C72.5498 24.4417 72.5248 24.3083 72.5248 24.175C72.5248 23.9917 72.5665 23.8167 72.6498 23.65C72.7331 23.4667 72.8498 23.3167 72.9998 23.2C72.8331 23.05 72.7498 22.8667 72.7498 22.65C72.7498 22.45 72.8081 22.25 72.9248 22.05C72.5915 21.85 72.3665 21.6583 72.2498 21.475C72.1498 21.275 72.0998 20.9167 72.0998 20.4C71.9498 20.4167 71.7915 20.3333 71.6248 20.15C71.4748 19.9667 71.3831 19.7583 71.3498 19.525C71.1665 19.575 70.9415 19.525 70.6748 19.375C70.4248 19.2083 70.2998 19 70.2998 18.75C70.1665 18.8167 70.0081 18.85 69.8248 18.85C69.4748 18.85 69.1915 18.725 68.9748 18.475C68.7915 18.6583 68.5498 18.8083 68.2498 18.925C67.9665 19.025 67.7165 19.0583 67.4998 19.025C67.4831 19.1917 67.3331 19.3917 67.0498 19.625C66.7831 19.8417 66.5415 19.9833 66.3248 20.05C66.3748 20.15 66.3998 20.2667 66.3998 20.4C66.3998 20.5667 66.3581 20.7333 66.2748 20.9C66.1915 21.0667 66.0748 21.2083 65.9248 21.325C65.9415 21.5583 65.8831 21.7833 65.7498 22C65.6331 22.2167 65.4665 22.3667 65.2498 22.45C65.2831 22.5833 65.2998 22.6917 65.2998 22.775C65.2998 23.0083 65.2415 23.1917 65.1248 23.325C65.1748 23.4417 65.1998 23.5583 65.1998 23.675C65.1998 23.8583 65.1081 24.0583 64.9248 24.275C65.3415 24.5583 65.5498 24.9667 65.5498 25.5C65.5498 25.7833 65.4998 26.025 65.3998 26.225C65.5665 26.2417 65.6831 26.2917 65.7498 26.375C65.8165 26.4583 65.8748 26.5917 65.9248 26.775C66.3415 26.825 66.6498 27.025 66.8498 27.375C67.0331 27.375 67.2581 27.4333 67.5248 27.55C67.8081 27.6667 67.9915 27.8 68.0748 27.95ZM77.4525 19.35C77.1692 19.3333 76.9275 19.225 76.7275 19.025C76.5442 18.825 76.4525 18.5917 76.4525 18.325C76.4525 17.9917 76.5775 17.7417 76.8275 17.575C77.0942 17.3917 77.4025 17.3 77.7525 17.3C78.0359 17.3 78.2609 17.35 78.4275 17.45L78.4775 17.425C78.3775 17.1917 78.3275 16.8333 78.3275 16.35C78.3275 16.0833 78.3525 15.9 78.4025 15.8C78.3692 15.5333 78.3525 15.3333 78.3525 15.2C78.3525 14.6667 78.4859 14.2417 78.7525 13.925C78.8359 13.675 78.9859 13.4417 79.2025 13.225C79.4192 13.0083 79.6525 12.8667 79.9025 12.8C79.9525 12.6167 80.1525 12.4167 80.5025 12.2C80.8525 11.9833 81.2025 11.8833 81.5525 11.9C81.6525 11.7333 81.9275 11.65 82.3775 11.65C82.7942 11.65 83.0859 11.6917 83.2525 11.775C83.4025 11.675 83.6025 11.625 83.8525 11.625C84.2692 11.625 84.6692 11.7333 85.0525 11.95C85.4359 12.1667 85.6275 12.4333 85.6275 12.75C85.6275 13.0333 85.5025 13.275 85.2525 13.475C85.0192 13.6583 84.7442 13.75 84.4275 13.75C84.1609 13.75 83.9359 13.6917 83.7525 13.575C83.5859 13.675 83.4109 13.725 83.2275 13.725C83.0442 13.725 82.8775 13.675 82.7275 13.575C82.6775 13.675 82.5442 13.75 82.3275 13.8C82.1275 13.8333 81.9609 13.8333 81.8275 13.8C81.5775 14.2167 81.2859 14.425 80.9525 14.425C80.9525 14.675 80.9192 14.9417 80.8525 15.225C80.8025 15.4917 80.7109 15.6667 80.5775 15.75C80.7109 15.9333 80.7775 16.2 80.7775 16.55C80.7775 16.8333 80.7192 17.0583 80.6025 17.225C80.6692 17.2083 80.7609 17.2 80.8775 17.2C81.1442 17.2 81.3859 17.2833 81.6025 17.45C81.7525 17.3667 81.9692 17.325 82.2525 17.325C82.5359 17.325 82.7442 17.3667 82.8775 17.45C83.1609 17.4667 83.3692 17.5583 83.5025 17.725C83.6525 17.875 83.7275 18.0667 83.7275 18.3C83.7275 18.5833 83.6359 18.85 83.4525 19.1C83.2692 19.3333 83.0359 19.45 82.7525 19.45C82.6359 19.45 82.4775 19.4083 82.2775 19.325C82.1275 19.425 81.9275 19.475 81.6775 19.475C81.4942 19.475 81.2692 19.4417 81.0025 19.375C80.9359 19.4583 80.8275 19.5333 80.6775 19.6C80.7109 19.7 80.7275 19.7917 80.7275 19.875C80.7275 20.125 80.6275 20.35 80.4275 20.55C80.4442 20.6 80.4525 20.6833 80.4525 20.8C80.4525 20.9 80.4442 20.975 80.4275 21.025C80.6275 21.225 80.7275 21.4667 80.7275 21.75C80.7275 21.8667 80.7025 21.9917 80.6525 22.125C80.8192 22.3417 80.9025 22.6667 80.9025 23.1C80.9025 23.3167 80.8692 23.4917 80.8025 23.625C80.9359 23.8083 81.0025 24.075 81.0025 24.425C81.0025 24.6417 80.9609 24.85 80.8775 25.05C80.9775 25.2167 81.0275 25.3917 81.0275 25.575C81.0275 25.7917 80.9692 25.9833 80.8525 26.15C81.0192 26.55 81.1025 26.8583 81.1025 27.075C81.1025 27.325 81.0109 27.5417 80.8275 27.725C80.8442 27.7917 80.8942 27.975 80.9775 28.275C81.0609 28.5583 81.1025 28.825 81.1025 29.075C81.1025 29.725 80.7442 30.025 80.0275 29.975C79.6775 29.9583 79.3859 29.7083 79.1525 29.225C78.9359 28.725 78.8275 28.2167 78.8275 27.7C78.8275 27.35 78.8859 27.0917 79.0025 26.925C78.8525 26.5917 78.7775 26.3083 78.7775 26.075C78.7775 25.9083 78.8109 25.7583 78.8775 25.625C78.7775 25.475 78.7275 25.3083 78.7275 25.125C78.7275 24.8917 78.7942 24.6833 78.9275 24.5C78.7942 24.4167 78.6859 24.3 78.6025 24.15C78.5359 24 78.5025 23.8417 78.5025 23.675C78.5025 23.3583 78.6192 23.1 78.8525 22.9C78.7025 22.8 78.6275 22.5083 78.6275 22.025C78.6275 21.8417 78.6442 21.675 78.6775 21.525C78.7275 21.3583 78.7859 21.25 78.8525 21.2C78.7359 21.0833 78.6359 20.925 78.5525 20.725C78.4859 20.525 78.4525 20.3333 78.4525 20.15C78.4525 19.9 78.5025 19.6917 78.6025 19.525C78.4359 19.5583 78.3025 19.575 78.2025 19.575C77.9025 19.575 77.6525 19.5 77.4525 19.35ZM87.5525 12.175C87.3359 12.275 87.1609 12.4167 87.0275 12.6C86.8942 12.7833 86.8275 12.975 86.8275 13.175C86.8275 13.4417 86.9359 13.7083 87.1525 13.975C87.1192 14.1917 87.2359 14.4 87.5025 14.6C87.7692 14.8 88.0609 14.9 88.3775 14.9C88.5942 14.9 88.7859 14.8417 88.9525 14.725C89.4192 14.475 89.6525 14.1583 89.6525 13.775C89.6525 13.525 89.5525 13.2417 89.3525 12.925C89.3692 12.5917 89.2692 12.3333 89.0525 12.15C88.8525 11.95 88.6109 11.85 88.3275 11.85C88.0109 11.85 87.7525 11.9583 87.5525 12.175ZM89.1775 23.225C89.3109 23.275 89.4109 23.4333 89.4775 23.7C89.5609 23.9667 89.6025 24.2583 89.6025 24.575C89.6025 24.9417 89.5442 25.1833 89.4275 25.3C89.5275 25.55 89.5775 25.7917 89.5775 26.025C89.5775 26.325 89.5025 26.575 89.3525 26.775C89.4692 27.0583 89.5275 27.3917 89.5275 27.775C89.5275 28.0917 89.4775 28.35 89.3775 28.55C89.4275 28.7 89.4525 28.8417 89.4525 28.975C89.4525 29.275 89.3442 29.5167 89.1275 29.7C88.9109 29.8667 88.6525 29.95 88.3525 29.95C88.0692 29.95 87.8275 29.8667 87.6275 29.7C87.4275 29.5167 87.3359 29.275 87.3525 28.975C87.2692 28.875 87.2025 28.7167 87.1525 28.5C87.1025 28.2833 87.0775 28.0583 87.0775 27.825C87.0775 27.3917 87.1692 27.1083 87.3525 26.975C87.2192 26.7583 87.1525 26.4333 87.1525 26C87.1525 25.5667 87.2109 25.25 87.3275 25.05C87.2609 24.9833 87.2109 24.825 87.1775 24.575C87.1442 24.325 87.1275 24.05 87.1275 23.75C87.1275 23.4667 87.1442 23.2167 87.1775 23C87.2109 22.7667 87.2609 22.6167 87.3275 22.55C87.2275 22.45 87.1775 22.175 87.1775 21.725C87.1775 21.2083 87.2359 20.8333 87.3525 20.6C87.2692 20.4667 87.1942 20.2917 87.1275 20.075C87.0609 19.8583 87.0275 19.6583 87.0275 19.475C87.0275 19.3083 87.0442 19.1917 87.0775 19.125C86.9442 18.6917 86.8775 18.3417 86.8775 18.075C86.8775 17.7917 86.9442 17.5 87.0775 17.2C87.0442 16.95 87.1025 16.7583 87.2525 16.625C87.4025 16.4917 87.6192 16.425 87.9025 16.425C88.6692 16.425 89.0525 16.8917 89.0525 17.825C89.2025 17.925 89.3109 18.0667 89.3775 18.25C89.4609 18.4167 89.5025 18.6083 89.5025 18.825C89.5025 19.175 89.4192 19.475 89.2525 19.725C89.3192 19.825 89.3692 19.975 89.4025 20.175C89.4525 20.375 89.4775 20.575 89.4775 20.775C89.4775 21.0417 89.4359 21.225 89.3525 21.325C89.4192 21.4083 89.4525 21.5833 89.4525 21.85C89.4525 22.1 89.4192 22.3667 89.3525 22.65C89.3025 22.9333 89.2442 23.125 89.1775 23.225ZM104.572 29.45C104.422 29.6333 104.222 29.775 103.972 29.875C103.722 29.9583 103.464 30 103.197 30C102.864 30 102.63 29.9417 102.497 29.825C102.38 29.875 102.255 29.9 102.122 29.9C101.805 29.9 101.539 29.7917 101.322 29.575C101.122 29.6583 100.947 29.7 100.797 29.7C100.53 29.7 100.264 29.6333 99.9971 29.5C99.7471 29.35 99.5721 29.175 99.4721 28.975C99.1554 29.0083 98.8387 28.9167 98.5221 28.7C98.2221 28.4667 98.0471 28.2 97.9971 27.9C97.4971 27.6833 97.1554 27.1 96.9721 26.15C96.8721 26.0667 96.7971 25.9417 96.7471 25.775C96.6971 25.6083 96.6721 25.4417 96.6721 25.275C96.6721 25.1583 96.6804 25.075 96.6971 25.025C96.4137 24.4583 96.2721 23.875 96.2721 23.275C96.2721 22.725 96.3887 22.275 96.6221 21.925C96.5887 21.7583 96.5721 21.6333 96.5721 21.55C96.5721 21.2667 96.6387 21 96.7721 20.75C96.9054 20.4833 97.0721 20.2917 97.2721 20.175C97.2387 20.0917 97.2221 19.975 97.2221 19.825C97.2221 19.5583 97.3054 19.3167 97.4721 19.1C97.6554 18.8667 97.8304 18.725 97.9971 18.675C98.0637 18.4417 98.2221 18.225 98.4721 18.025C98.7387 17.8083 99.0137 17.7083 99.2971 17.725C99.6304 17.225 99.9637 17 100.297 17.05C100.447 16.85 100.647 16.7083 100.897 16.625C101.164 16.5417 101.405 16.5083 101.622 16.525C101.789 16.4083 101.972 16.35 102.172 16.35C102.372 16.35 102.572 16.4 102.772 16.5C102.905 16.4 103.089 16.35 103.322 16.35C103.489 16.35 103.647 16.375 103.797 16.425C103.947 16.475 104.047 16.5333 104.097 16.6C104.23 16.5667 104.372 16.6 104.522 16.7C104.672 16.7833 104.764 16.8917 104.797 17.025C105.08 17.025 105.322 17.1167 105.522 17.3C105.739 17.4667 105.897 17.6667 105.997 17.9C106.114 18.1167 106.164 18.2833 106.147 18.4C106.43 18.5333 106.63 18.75 106.747 19.05C106.864 19.3167 106.922 19.55 106.922 19.75C106.922 20.0833 106.797 20.3417 106.547 20.525C106.38 20.6417 106.205 20.7 106.022 20.7C105.722 20.7 105.43 20.575 105.147 20.325C104.88 20.075 104.705 19.7667 104.622 19.4C104.405 19.3667 104.197 19.2917 103.997 19.175C103.797 19.0417 103.639 18.9 103.522 18.75C103.472 18.7667 103.347 18.775 103.147 18.775C102.964 18.775 102.839 18.7667 102.772 18.75C102.622 18.9 102.455 18.975 102.272 18.975C102.089 18.975 101.914 18.9167 101.747 18.8C101.53 19.1333 101.214 19.3 100.797 19.3C100.58 19.6 100.389 19.8333 100.222 20C100.055 20.15 99.8304 20.2083 99.5471 20.175C99.5637 20.225 99.5721 20.3 99.5721 20.4C99.5721 20.6 99.5221 20.775 99.4221 20.925C99.3221 21.075 99.2054 21.2167 99.0721 21.35C98.9554 21.4667 98.8637 21.5583 98.7971 21.625C98.8804 21.875 98.9221 22.1083 98.9221 22.325C98.9221 22.7083 98.8054 23.1667 98.5721 23.7C98.6554 23.8167 98.7221 23.9833 98.7721 24.2C98.8387 24.4 98.8721 24.6 98.8721 24.8C98.8721 24.9167 98.8637 25 98.8471 25.05C98.9637 25.1333 99.0637 25.275 99.1471 25.475C99.2471 25.675 99.2971 25.8667 99.2971 26.05C99.7137 26.1833 100.055 26.375 100.322 26.625C100.605 26.875 100.747 27.1083 100.747 27.325C100.93 27.175 101.13 27.1 101.347 27.1C101.547 27.1 101.739 27.15 101.922 27.25C102.122 27.35 102.272 27.4833 102.372 27.65C102.455 27.6333 102.555 27.625 102.672 27.625C102.922 27.625 103.139 27.7083 103.322 27.875C103.389 27.7417 103.555 27.6 103.822 27.45C104.089 27.3 104.305 27.2333 104.472 27.25C104.572 27.0833 104.705 26.9583 104.872 26.875C105.055 26.7917 105.247 26.75 105.447 26.75C105.58 26.75 105.672 26.7583 105.722 26.775C105.939 26.5083 106.23 26.375 106.597 26.375C106.914 26.375 107.189 26.4833 107.422 26.7C107.655 26.9167 107.772 27.1833 107.772 27.5C107.772 27.8667 107.614 28.175 107.297 28.425C106.997 28.6583 106.655 28.775 106.272 28.775C106.122 28.775 106.014 28.7667 105.947 28.75C106.08 28.7833 106.064 28.8583 105.897 28.975C105.747 29.0917 105.53 29.2083 105.247 29.325C104.964 29.425 104.739 29.4667 104.572 29.45ZM117.067 27.85C117.084 27.7667 117.126 27.7083 117.192 27.675C117.276 27.6417 117.367 27.6167 117.467 27.6C117.534 27.5833 117.617 27.575 117.717 27.575C118.001 27.575 118.226 27.6833 118.392 27.9C118.576 28.1 118.667 28.3417 118.667 28.625C118.667 28.8417 118.609 29.0333 118.492 29.2C118.376 29.35 118.201 29.4583 117.967 29.525C117.617 29.825 117.201 29.95 116.717 29.9C116.584 30.0167 116.409 30.075 116.192 30.075C115.892 30.075 115.617 29.9667 115.367 29.75C115.201 29.7167 115.001 29.6333 114.767 29.5C114.534 29.35 114.417 29.2167 114.417 29.1C114.184 29.0667 113.942 28.9333 113.692 28.7C113.459 28.4667 113.376 28.1833 113.442 27.85C113.259 27.65 113.151 27.4417 113.117 27.225C112.917 27.125 112.767 26.975 112.667 26.775C112.584 26.575 112.559 26.3667 112.592 26.15C112.376 25.95 112.267 25.65 112.267 25.25C112.267 25.1 112.284 24.9083 112.317 24.675C112.084 24.4917 111.967 24.2417 111.967 23.925C111.967 23.6417 112.059 23.4083 112.242 23.225C112.042 23.025 111.942 22.7667 111.942 22.45C111.942 22.3333 111.976 22.1917 112.042 22.025C111.942 21.825 111.892 21.625 111.892 21.425C111.892 21.1583 111.967 20.95 112.117 20.8C112.017 20.6 111.967 20.3833 111.967 20.15C111.967 19.95 111.992 19.775 112.042 19.625C112.109 19.4583 112.184 19.3333 112.267 19.25C112.084 19.0333 111.992 18.8 111.992 18.55C111.992 18.4167 112.017 18.275 112.067 18.125C111.917 18.175 111.751 18.2 111.567 18.2C111.284 18.2 111.076 18.1417 110.942 18.025C110.742 18.075 110.567 18.1 110.417 18.1C110.117 18.1 109.809 18.0083 109.492 17.825C109.326 17.925 109.151 17.975 108.967 17.975C108.701 17.975 108.484 17.8667 108.317 17.65C108.134 17.4167 108.042 17.1583 108.042 16.875C108.042 16.625 108.126 16.4167 108.292 16.25C108.442 16.0667 108.667 15.9667 108.967 15.95C109.167 15.8667 109.351 15.825 109.517 15.825C109.851 15.825 110.142 15.9083 110.392 16.075C110.609 15.9917 110.851 15.95 111.117 15.95C111.351 15.95 111.534 15.9917 111.667 16.075C111.684 16.0083 111.751 15.95 111.867 15.9C112.001 15.8333 112.109 15.8083 112.192 15.825C112.126 15.675 112.092 15.475 112.092 15.225C112.092 14.925 112.159 14.7667 112.292 14.75C112.176 14.5833 112.117 14.3417 112.117 14.025C112.117 13.5917 112.226 13.2917 112.442 13.125C112.426 12.7917 112.492 12.5417 112.642 12.375C112.792 12.2083 112.984 12.125 113.217 12.125C113.451 12.125 113.667 12.2083 113.867 12.375C114.067 12.525 114.167 12.725 114.167 12.975C114.167 13.1417 114.101 13.3333 113.967 13.55C114.134 13.7 114.217 13.95 114.217 14.3C114.217 14.45 114.192 14.6083 114.142 14.775C114.109 14.925 114.059 15.0417 113.992 15.125C114.092 15.1917 114.142 15.325 114.142 15.525C114.142 15.6917 114.101 15.9167 114.017 16.2C114.167 16.15 114.326 16.125 114.492 16.125C114.742 16.125 114.934 16.1833 115.067 16.3C115.234 16.2167 115.367 16.175 115.467 16.175C115.634 16.175 115.767 16.2417 115.867 16.375C115.984 16.2917 116.126 16.25 116.292 16.25C116.526 16.25 116.709 16.3417 116.842 16.525C117.159 16.525 117.392 16.6 117.542 16.75C117.709 16.8833 117.792 17.0583 117.792 17.275C117.792 17.5417 117.684 17.8 117.467 18.05C117.267 18.2833 117.034 18.4 116.767 18.4C116.617 18.4 116.467 18.35 116.317 18.25C116.151 18.3833 115.934 18.45 115.667 18.45C115.417 18.45 115.209 18.3917 115.042 18.275C114.826 18.3583 114.667 18.4 114.567 18.4C114.434 18.4 114.276 18.3417 114.092 18.225C114.242 18.425 114.317 18.6417 114.317 18.875C114.317 19.125 114.217 19.35 114.017 19.55C114.167 19.75 114.242 20 114.242 20.3C114.242 20.5667 114.167 20.8167 114.017 21.05C114.217 21.1833 114.317 21.4 114.317 21.7C114.317 21.95 114.242 22.1667 114.092 22.35C114.259 22.5333 114.342 22.8583 114.342 23.325C114.342 23.525 114.317 23.6917 114.267 23.825C114.384 23.9917 114.442 24.1667 114.442 24.35C114.442 24.45 114.417 24.5833 114.367 24.75C114.334 24.9 114.309 25.025 114.292 25.125C114.492 25.3583 114.592 25.5833 114.592 25.8C114.876 26.0167 115.017 26.275 115.017 26.575C115.351 26.7583 115.517 27.0667 115.517 27.5C115.551 27.55 115.584 27.5833 115.617 27.6C115.651 27.6167 115.676 27.6333 115.692 27.65L115.867 27.625C116.117 27.625 116.317 27.7 116.467 27.85C116.601 27.8167 116.709 27.8 116.792 27.8C116.842 27.8 116.934 27.8167 117.067 27.85ZM122.025 28.825C122.092 29.1917 122.017 29.4833 121.8 29.7C121.6 29.9 121.35 30 121.05 30C120.784 30 120.55 29.9167 120.35 29.75C120.15 29.5667 120.05 29.3167 120.05 29C120.05 28.8 120.1 28.575 120.2 28.325C120.1 28.0917 120.05 27.85 120.05 27.6C120.05 27.4 120.092 27.2333 120.175 27.1C120.075 27.0333 120 26.9333 119.95 26.8C119.9 26.6667 119.875 26.5167 119.875 26.35C119.875 26.1833 119.909 26 119.975 25.8C119.825 25.6167 119.75 25.4 119.75 25.15C119.75 24.8333 119.867 24.575 120.1 24.375C120.084 24.325 120.075 24.2417 120.075 24.125C120.075 23.9583 120.092 23.8417 120.125 23.775C119.942 23.5417 119.85 23.2083 119.85 22.775C119.85 22.475 119.909 22.2417 120.025 22.075C119.909 21.975 119.809 21.8417 119.725 21.675C119.642 21.4917 119.6 21.3083 119.6 21.125C119.6 20.925 119.659 20.7333 119.775 20.55C119.692 20.35 119.65 20.175 119.65 20.025C119.65 19.775 119.725 19.5417 119.875 19.325C119.675 19.125 119.575 18.9167 119.575 18.7C119.575 18.5333 119.634 18.3083 119.75 18.025C119.634 17.7917 119.575 17.5417 119.575 17.275C119.575 16.925 119.7 16.7083 119.95 16.625C119.967 16.3917 120.05 16.2 120.2 16.05C120.35 15.9 120.534 15.825 120.75 15.825C121 15.825 121.217 15.95 121.4 16.2C121.6 16.4333 121.7 16.775 121.7 17.225C121.7 17.4083 121.692 17.5583 121.675 17.675C121.742 17.6417 121.809 17.5917 121.875 17.525C121.942 17.4417 122.025 17.3833 122.125 17.35C122.225 17.3167 122.375 17.3 122.575 17.3C122.609 17.2167 122.717 17.1333 122.9 17.05C123.1 16.9667 123.292 16.925 123.475 16.925C123.609 16.925 123.7 16.9417 123.75 16.975C123.884 16.9083 124.017 16.875 124.15 16.875C124.35 16.875 124.567 17.0167 124.8 17.3C125.2 17.2667 125.492 17.3583 125.675 17.575C125.942 17.5583 126.175 17.5917 126.375 17.675C126.575 17.7583 126.734 17.9333 126.85 18.2C127.167 18.4 127.325 18.6667 127.325 19C127.325 19.2833 127.2 19.55 126.95 19.8C126.717 20.0333 126.459 20.15 126.175 20.15C125.859 20.15 125.592 19.9833 125.375 19.65C125.192 19.65 125.05 19.6333 124.95 19.6C124.85 19.5667 124.75 19.4917 124.65 19.375C124.55 19.4083 124.467 19.425 124.4 19.425C124.25 19.425 124.092 19.3833 123.925 19.3C123.692 19.45 123.442 19.5167 123.175 19.5C123.075 19.7333 122.817 19.85 122.4 19.85C122.417 19.9 122.425 19.9833 122.425 20.1C122.425 20.3167 122.375 20.5333 122.275 20.75C122.192 20.95 122.084 21.1 121.95 21.2C122.084 21.5167 122.15 21.8333 122.15 22.15C122.15 22.4333 122.084 22.65 121.95 22.8C122 22.8667 122.05 22.95 122.1 23.05C122.167 23.15 122.217 23.2417 122.25 23.325C122.284 23.4583 122.3 23.5583 122.3 23.625C122.3 23.7417 122.259 23.9 122.175 24.1C122.259 24.3 122.3 24.45 122.3 24.55C122.3 24.6833 122.242 24.8667 122.125 25.1C122.225 25.2667 122.275 25.45 122.275 25.65C122.275 25.8833 122.217 26.0833 122.1 26.25C122.217 26.5167 122.275 26.7917 122.275 27.075C122.275 27.2917 122.225 27.4917 122.125 27.675C122.209 27.8417 122.25 28.0083 122.25 28.175C122.25 28.4083 122.175 28.625 122.025 28.825ZM131.686 26.875C131.853 27.0583 131.936 27.3417 131.936 27.725C131.936 27.975 131.894 28.2167 131.811 28.45C131.744 28.6667 131.653 28.825 131.536 28.925C131.586 29.2417 131.503 29.5 131.286 29.7C131.069 29.9 130.811 30 130.511 30C130.311 30 130.119 29.95 129.936 29.85C129.753 29.75 129.619 29.5833 129.536 29.35C129.453 29.1167 129.411 28.8667 129.411 28.6C129.411 28.2333 129.469 27.9417 129.586 27.725C129.503 27.575 129.461 27.3583 129.461 27.075C129.461 26.7583 129.511 26.4333 129.611 26.1C129.494 25.9667 129.436 25.725 129.436 25.375C129.436 24.925 129.503 24.5917 129.636 24.375C129.536 24.1417 129.486 23.9167 129.486 23.7C129.486 23.4 129.561 23.1 129.711 22.8C129.578 22.45 129.511 22.1333 129.511 21.85C129.511 21.6167 129.561 21.35 129.661 21.05C129.494 20.8667 129.411 20.6333 129.411 20.35C129.411 20.2333 129.419 20.15 129.436 20.1C129.253 19.8833 129.161 19.6333 129.161 19.35C129.161 19.1667 129.211 18.9917 129.311 18.825C129.194 18.5583 129.136 18.3 129.136 18.05C129.136 17.65 129.236 17.35 129.436 17.15C129.336 16.9167 129.286 16.6333 129.286 16.3C129.286 16.0333 129.328 15.8417 129.411 15.725C129.328 15.675 129.261 15.5833 129.211 15.45C129.161 15.3167 129.136 15.1667 129.136 15C129.136 14.7167 129.203 14.4833 129.336 14.3C129.286 14.1667 129.261 13.9917 129.261 13.775C129.261 13.6083 129.278 13.4583 129.311 13.325C129.111 13.125 129.011 12.8917 129.011 12.625C129.011 12.3417 129.128 12.1 129.361 11.9C129.611 11.6833 129.886 11.575 130.186 11.575C130.386 11.575 130.569 11.6417 130.736 11.775C130.903 11.8917 131.019 12.075 131.086 12.325C131.336 12.4917 131.461 12.75 131.461 13.1C131.461 13.1667 131.444 13.2667 131.411 13.4C131.611 13.6 131.711 13.8583 131.711 14.175C131.711 14.4417 131.628 14.65 131.461 14.8C131.544 14.8667 131.619 14.9833 131.686 15.15C131.753 15.3 131.786 15.4667 131.786 15.65C131.786 15.95 131.678 16.2 131.461 16.4C131.594 16.5833 131.661 16.8083 131.661 17.075C131.661 17.3417 131.611 17.5583 131.511 17.725C131.578 17.7917 131.611 17.9583 131.611 18.225C131.611 18.375 131.594 18.5333 131.561 18.7C131.528 18.8667 131.478 18.9833 131.411 19.05C131.661 19.2667 131.786 19.5417 131.786 19.875C131.786 20.0583 131.753 20.2167 131.686 20.35C131.786 20.5 131.836 20.725 131.836 21.025C131.836 21.4083 131.769 21.7167 131.636 21.95C131.753 22.1833 131.811 22.4917 131.811 22.875C131.811 23.3417 131.736 23.675 131.586 23.875C131.703 24.0417 131.761 24.25 131.761 24.5C131.761 24.7167 131.711 24.975 131.611 25.275C131.761 25.4417 131.836 25.7 131.836 26.05C131.836 26.35 131.786 26.625 131.686 26.875Z" fill="#F1EADA"/>
</svg>
