<svg width="22" height="22" viewBox="0 0 22 22" fill="none" xmlns="http://www.w3.org/2000/svg">
<path d="M20.0144 5.76649C20.5389 5.24209 20.8337 4.53081 20.8337 3.78911C20.8338 3.04742 20.5393 2.33606 20.0149 1.81153C19.4905 1.28701 18.7792 0.992281 18.0375 0.992188C17.2958 0.992094 16.5845 1.28664 16.0599 1.81104L2.81955 15.0544C2.5892 15.2841 2.41886 15.5669 2.3235 15.8778L1.01296 20.1954C0.987316 20.2812 0.98538 20.3723 1.00735 20.4592C1.02932 20.546 1.07439 20.6252 1.13776 20.6885C1.20113 20.7517 1.28044 20.7967 1.36729 20.8185C1.45413 20.8403 1.54527 20.8383 1.63103 20.8125L5.94958 19.5029C6.26027 19.4084 6.54302 19.2391 6.77301 19.0099L20.0144 5.76649Z" stroke="#41210A" stroke-width="1.98417" stroke-linecap="round" stroke-linejoin="round"/>
</svg>
