<svg width="28" height="28" viewBox="0 0 28 28" fill="none" xmlns="http://www.w3.org/2000/svg">
<path d="M14 3.50016V2.3335" stroke="#41210A" stroke-width="2" stroke-linecap="round" stroke-linejoin="round"/>
<path d="M17.9663 20.3L21.6997 17.0334C21.9218 16.8189 22.1841 16.6502 22.4714 16.5371C22.7587 16.4239 23.0655 16.3685 23.3743 16.3739C23.683 16.3793 23.9877 16.4455 24.2709 16.5687C24.554 16.6918 24.8102 16.8695 25.0247 17.0917C25.2392 17.3138 25.4078 17.5761 25.521 17.8634C25.6341 18.1507 25.6896 18.4575 25.6841 18.7663C25.6787 19.075 25.6125 19.3797 25.4894 19.6629C25.3662 19.9461 25.1885 20.2022 24.9663 20.4167L20.7663 24.2667C19.9497 25.2 18.783 25.6667 17.4997 25.6667H12.833C11.5497 25.6667 10.383 25.2 9.56634 24.2667L8.04734 22.5587C7.93798 22.4355 7.80378 22.3369 7.65357 22.2694C7.50336 22.2018 7.34055 22.1668 7.17584 22.1667H5.83301" stroke="#41210A" stroke-width="2" stroke-linecap="round" stroke-linejoin="round"/>
<path d="M2.33301 16.3335H16.333C16.9518 16.3335 17.5453 16.5793 17.9829 17.0169C18.4205 17.4545 18.6663 18.048 18.6663 18.6668C18.6663 19.2857 18.4205 19.8792 17.9829 20.3167C17.5453 20.7543 16.9518 21.0002 16.333 21.0002H13.9997" stroke="#41210A" stroke-width="2" stroke-linecap="round" stroke-linejoin="round"/>
<path d="M4.66699 11.6665H23.3337" stroke="#41210A" stroke-width="2" stroke-linecap="round" stroke-linejoin="round"/>
<path d="M5.83301 11.6667C5.83301 9.50073 6.69342 7.42351 8.22497 5.89196C9.75652 4.36041 11.8337 3.5 13.9997 3.5C16.1656 3.5 18.2428 4.36041 19.7744 5.89196C21.3059 7.42351 22.1663 9.50073 22.1663 11.6667" stroke="#41210A" stroke-width="2" stroke-linecap="round" stroke-linejoin="round"/>
<path d="M5.83301 16.3335V23.3335C5.83301 23.6429 5.71009 23.9397 5.4913 24.1585C5.27251 24.3772 4.97576 24.5002 4.66634 24.5002H2.33301" stroke="#41210A" stroke-width="2" stroke-linecap="round" stroke-linejoin="round"/>
</svg>
