<svg width="204" height="50" viewBox="0 0 204 50" fill="none" xmlns="http://www.w3.org/2000/svg">
<path d="M88.96 36.56C89.0667 36.7467 89.12 36.92 89.12 37.08C89.12 37.4533 88.9333 37.7733 88.56 38.04C88.2133 38.3333 87.8133 38.48 87.36 38.48C87.0933 38.48 86.8267 38.4 86.56 38.24C86.32 38.1067 86.1333 37.8933 86 37.6C85.7067 37.4667 85.44 37.1867 85.2 36.76C84.96 36.3067 84.8533 35.92 84.88 35.6C84.4 35.4933 84.0533 35.28 83.84 34.96C83.6533 34.64 83.5467 34.1733 83.52 33.56C83.1467 33.3467 82.8267 33.08 82.56 32.76C82.32 32.4133 82.24 32.0667 82.32 31.72C81.92 31.64 81.56 31.3867 81.24 30.96C80.9467 30.5067 80.8133 30.0667 80.84 29.64C80.3067 29.5067 79.9467 28.8267 79.76 27.6C79.7333 27.7867 79.6267 27.9733 79.44 28.16C79.28 28.32 79.12 28.4 78.96 28.4C78.9067 28.6667 78.8133 28.8933 78.68 29.08C78.5467 29.2667 78.3867 29.36 78.2 29.36C78.2267 29.6533 78.1867 29.9467 78.08 30.24C77.9733 30.5067 77.8133 30.7333 77.6 30.92C77.68 31.08 77.72 31.3067 77.72 31.6C77.72 32 77.6667 32.2533 77.56 32.36C77.88 32.7067 78.04 33.04 78.04 33.36C78.04 33.5467 77.9467 33.7867 77.76 34.08C77.9467 34.4267 78.04 34.7333 78.04 35C78.04 35.2667 78.0133 35.48 77.96 35.64C78.0667 35.88 78.12 36.1467 78.12 36.44C78.12 36.92 77.9333 37.3333 77.56 37.68C77.1867 38 76.7733 38.16 76.32 38.16C75.5733 38.16 75.1067 37.7467 74.92 36.92C74.6533 36.6 74.52 36.2133 74.52 35.76C74.52 35.5467 74.56 35.3467 74.64 35.16C74.4267 34.8133 74.32 34.3867 74.32 33.88C74.32 33.4533 74.3867 33.08 74.52 32.76C74.3333 32.4933 74.24 32.0267 74.24 31.36C74.24 30.5333 74.3333 29.8667 74.52 29.36C74.3067 29.0933 74.2 28.8 74.2 28.48C74.2 28.0533 74.3333 27.7067 74.6 27.44C74.28 27.12 74.12 26.72 74.12 26.24C74.12 26 74.1867 25.7467 74.32 25.48C74.1333 25.1867 74.04 24.8933 74.04 24.6C74.04 24.3333 74.1067 24.0933 74.24 23.88C74.1333 23.7467 74.08 23.44 74.08 22.96C74.08 22.4533 74.1333 22.08 74.24 21.84C74.1333 21.3067 74.08 21.0133 74.08 20.96C74.08 20.7733 74.1867 20.44 74.4 19.96C74 19.4267 73.8 18.9067 73.8 18.4C73.8 18.08 73.8533 17.8 73.96 17.56C73.7733 17.2933 73.68 16.9733 73.68 16.6C73.68 16.4133 73.7067 16.1867 73.76 15.92C73.6 15.68 73.52 15.3733 73.52 15C73.52 14.6 73.6133 14.24 73.8 13.92C73.5333 13.44 73.4 13.0133 73.4 12.64C73.4 12.32 73.4933 12.0133 73.68 11.72C73.5467 11.4533 73.48 11.12 73.48 10.72C73.48 10.08 73.6667 9.53333 74.04 9.08C74.44 8.6 74.9467 8.41333 75.56 8.52C75.7733 8.6 76.0133 8.82667 76.28 9.2C76.5467 9.57333 76.68 9.97333 76.68 10.4L76.64 10.72C77.0667 11.04 77.28 11.4667 77.28 12C77.28 12.3733 77.16 12.7067 76.92 13C77.32 13.48 77.52 13.9733 77.52 14.48C77.52 14.9333 77.3733 15.32 77.08 15.64C77.3467 16.0133 77.48 16.4667 77.48 17C77.48 17.48 77.4 17.9067 77.24 18.28C77.4267 18.3867 77.5733 18.6 77.68 18.92C77.8133 19.2133 77.88 19.5467 77.88 19.92C77.88 20.5867 77.7067 21.0933 77.36 21.44C77.6267 21.7067 77.76 22.0267 77.76 22.4C77.76 22.6667 77.7067 22.9467 77.6 23.24C77.52 23.5067 77.4667 23.6667 77.44 23.72C77.6267 23.9067 77.7733 24.4 77.88 25.2L77.92 25.24C78.0267 24.8667 78.2667 24.52 78.64 24.2C79.0133 23.8533 79.3067 23.68 79.52 23.68C79.6 23.3333 79.8667 22.92 80.32 22.44C80.7733 21.96 81.1733 21.72 81.52 21.72C81.5467 21.48 81.7333 21.2133 82.08 20.92C82.4533 20.6267 82.76 20.48 83 20.48C83.16 20.08 83.4267 19.72 83.8 19.4C84.2 19.0533 84.52 18.9333 84.76 19.04C84.76 18.5867 84.88 18.2533 85.12 18.04C85.3867 17.8 85.72 17.68 86.12 17.68C86.5733 17.68 86.9733 17.8133 87.32 18.08C87.6933 18.3467 87.88 18.68 87.88 19.08C87.88 19.3467 87.7867 19.6267 87.6 19.92C87.44 20.5067 87.2133 20.92 86.92 21.16C86.6267 21.3733 86.2667 21.5067 85.84 21.56C85.8933 21.9333 85.7467 22.3333 85.4 22.76C85.0533 23.1867 84.6533 23.3867 84.2 23.36C84.1467 23.76 83.9067 24.16 83.48 24.56C83.08 24.96 82.6667 25.1467 82.24 25.12C82.9333 25.4933 83.28 26.0133 83.28 26.68C83.28 26.92 83.24 27.1867 83.16 27.48C83.4267 27.5333 83.6667 27.6933 83.88 27.96C84.0933 28.2 84.1733 28.4667 84.12 28.76C84.4933 28.92 84.8267 29.24 85.12 29.72C85.4133 30.1733 85.5867 30.6133 85.64 31.04C85.9067 31.1467 86.1067 31.3333 86.24 31.6C86.3733 31.84 86.44 32.12 86.44 32.44C86.44 32.6267 86.4267 32.7733 86.4 32.88C86.8267 32.9867 87.1733 33.2667 87.44 33.72C87.7333 34.1467 87.92 34.5867 88 35.04C88.2667 35.0667 88.52 35.28 88.76 35.68C89 36.0533 89.0667 36.3467 88.96 36.56ZM102.48 37.52C102.16 37.84 101.666 38 101 38C100.493 38 100.08 37.92 99.7597 37.76C99.2797 37.8667 98.853 37.92 98.4797 37.92C97.4397 37.92 96.693 37.6533 96.2397 37.12C96.133 37.1467 95.9864 37.16 95.7997 37.16C95.1864 37.16 94.7197 36.88 94.3997 36.32C94.133 36.3467 93.7864 36.2133 93.3597 35.92C92.9597 35.6 92.7864 35.2933 92.8397 35C92.413 34.8933 92.053 34.64 91.7597 34.24C91.493 33.8133 91.373 33.3333 91.3997 32.8C91.1064 32.6933 90.8797 32.48 90.7197 32.16C90.5597 31.84 90.4797 31.48 90.4797 31.08C90.4797 30.6533 90.5464 30.3467 90.6797 30.16C90.3864 29.7067 90.2397 29.1867 90.2397 28.6C90.2397 27.9867 90.4264 27.4933 90.7997 27.12C90.5064 26.9067 90.3597 26.5867 90.3597 26.16C90.3597 25.8933 90.4264 25.6267 90.5597 25.36C90.693 25.0933 90.8664 24.9067 91.0797 24.8C91.0264 24.4267 91.0664 24.08 91.1997 23.76C91.3597 23.4133 91.573 23.16 91.8397 23C91.7864 22.92 91.7597 22.8 91.7597 22.64C91.7597 22.4 91.8397 22.16 91.9997 21.92C92.1864 21.68 92.3864 21.5333 92.5997 21.48C92.573 21.4 92.5597 21.2933 92.5597 21.16C92.5597 20.6 92.773 20.12 93.1997 19.72C93.6264 19.2933 94.0397 19.1067 94.4397 19.16C94.4397 18.7867 94.5997 18.48 94.9197 18.24C95.2664 17.9733 95.7064 17.84 96.2397 17.84C96.4797 17.84 96.6664 17.8533 96.7997 17.88C96.9864 17.48 97.3064 17.16 97.7597 16.92C98.213 16.6533 98.6797 16.52 99.1597 16.52C99.4797 16.52 99.7464 16.5867 99.9597 16.72C100.333 16.4 100.8 16.24 101.36 16.24C101.813 16.24 102.213 16.3467 102.56 16.56C102.933 16.7733 103.16 17.0667 103.24 17.44C103.666 17.44 104.12 17.6 104.6 17.92C105.08 18.2133 105.36 18.52 105.44 18.84C106.08 19.0267 106.693 19.44 107.28 20.08C107.893 20.6933 108.2 21.32 108.2 21.96C108.2 22.0667 108.173 22.2267 108.12 22.44C109.266 22.68 109.786 23.84 109.68 25.92C109.92 26.32 110.04 26.7467 110.04 27.2C110.04 27.7333 109.866 28.2667 109.52 28.8C109.6 29.04 109.64 29.2667 109.64 29.48C109.64 29.8 109.573 30.1067 109.44 30.4C109.306 30.6933 109.133 30.92 108.92 31.08C108.946 31.5067 108.866 31.8533 108.68 32.12C108.52 32.3867 108.213 32.7467 107.76 33.2C107.786 33.3067 107.8 33.4667 107.8 33.68C107.8 34.48 107.346 35 106.44 35.24C106.36 35.6667 106.133 36.0133 105.76 36.28C105.413 36.5467 104.986 36.68 104.48 36.68C104.053 37.2667 103.533 37.56 102.92 37.56C102.733 37.56 102.586 37.5467 102.48 37.52ZM98.7197 34.72C98.933 34.5333 99.293 34.44 99.7997 34.44C100.173 34.44 100.373 34.4933 100.4 34.6C100.613 34.36 100.88 34.1733 101.2 34.04C101.52 33.9067 101.813 33.8533 102.08 33.88C102.533 33.4267 103.026 33.2 103.56 33.2C103.746 33.2 103.88 33.2133 103.96 33.24C103.933 33 104 32.7733 104.16 32.56C104.32 32.32 104.506 32.16 104.72 32.08C104.72 31.7333 104.8 31.44 104.96 31.2C105.146 30.9333 105.373 30.7333 105.64 30.6C105.64 30.0667 105.746 29.64 105.96 29.32C105.88 29.1067 105.84 28.8933 105.84 28.68C105.84 28.3867 105.906 28.1067 106.04 27.84C106.173 27.5467 106.36 27.3067 106.6 27.12C106.333 26.88 106.2 26.5867 106.2 26.24C106.2 25.92 106.293 25.6 106.48 25.28C105.946 24.96 105.586 24.6533 105.4 24.36C105.24 24.04 105.16 23.4667 105.16 22.64C104.92 22.6667 104.666 22.5333 104.4 22.24C104.16 21.9467 104.013 21.6133 103.96 21.24C103.666 21.32 103.306 21.24 102.88 21C102.48 20.7333 102.28 20.4 102.28 20C102.066 20.1067 101.813 20.16 101.52 20.16C100.96 20.16 100.506 19.96 100.16 19.56C99.8664 19.8533 99.4797 20.0933 98.9997 20.28C98.5464 20.44 98.1464 20.4933 97.7997 20.44C97.773 20.7067 97.533 21.0267 97.0797 21.4C96.653 21.7467 96.2664 21.9733 95.9197 22.08C95.9997 22.24 96.0397 22.4267 96.0397 22.64C96.0397 22.9067 95.973 23.1733 95.8397 23.44C95.7064 23.7067 95.5197 23.9333 95.2797 24.12C95.3064 24.4933 95.213 24.8533 94.9997 25.2C94.813 25.5467 94.5464 25.7867 94.1997 25.92C94.253 26.1333 94.2797 26.3067 94.2797 26.44C94.2797 26.8133 94.1864 27.1067 93.9997 27.32C94.0797 27.5067 94.1197 27.6933 94.1197 27.88C94.1197 28.1733 93.973 28.4933 93.6797 28.84C94.3464 29.2933 94.6797 29.9467 94.6797 30.8C94.6797 31.2533 94.5997 31.64 94.4397 31.96C94.7064 31.9867 94.893 32.0667 94.9997 32.2C95.1064 32.3333 95.1997 32.5467 95.2797 32.84C95.9464 32.92 96.4397 33.24 96.7597 33.8C97.053 33.8 97.413 33.8933 97.8397 34.08C98.293 34.2667 98.5864 34.48 98.7197 34.72ZM113.724 20.96C113.271 20.9333 112.884 20.76 112.564 20.44C112.271 20.12 112.124 19.7467 112.124 19.32C112.124 18.7867 112.324 18.3867 112.724 18.12C113.151 17.8267 113.644 17.68 114.204 17.68C114.657 17.68 115.017 17.76 115.284 17.92L115.364 17.88C115.204 17.5067 115.124 16.9333 115.124 16.16C115.124 15.7333 115.164 15.44 115.244 15.28C115.191 14.8533 115.164 14.5333 115.164 14.32C115.164 13.4667 115.377 12.7867 115.804 12.28C115.937 11.88 116.177 11.5067 116.524 11.16C116.871 10.8133 117.244 10.5867 117.644 10.48C117.724 10.1867 118.044 9.86666 118.604 9.52C119.164 9.17333 119.724 9.01333 120.284 9.04C120.444 8.77333 120.884 8.64 121.604 8.64C122.271 8.64 122.737 8.70667 123.004 8.84C123.244 8.68 123.564 8.6 123.964 8.6C124.631 8.6 125.271 8.77333 125.884 9.12C126.497 9.46666 126.804 9.89333 126.804 10.4C126.804 10.8533 126.604 11.24 126.204 11.56C125.831 11.8533 125.391 12 124.884 12C124.457 12 124.097 11.9067 123.804 11.72C123.537 11.88 123.257 11.96 122.964 11.96C122.671 11.96 122.404 11.88 122.164 11.72C122.084 11.88 121.871 12 121.524 12.08C121.204 12.1333 120.937 12.1333 120.724 12.08C120.324 12.7467 119.857 13.08 119.324 13.08C119.324 13.48 119.271 13.9067 119.164 14.36C119.084 14.7867 118.937 15.0667 118.724 15.2C118.937 15.4933 119.044 15.92 119.044 16.48C119.044 16.9333 118.951 17.2933 118.764 17.56C118.871 17.5333 119.017 17.52 119.204 17.52C119.631 17.52 120.017 17.6533 120.364 17.92C120.604 17.7867 120.951 17.72 121.404 17.72C121.857 17.72 122.191 17.7867 122.404 17.92C122.857 17.9467 123.191 18.0933 123.404 18.36C123.644 18.6 123.764 18.9067 123.764 19.28C123.764 19.7333 123.617 20.16 123.324 20.56C123.031 20.9333 122.657 21.12 122.204 21.12C122.017 21.12 121.764 21.0533 121.444 20.92C121.204 21.08 120.884 21.16 120.484 21.16C120.191 21.16 119.831 21.1067 119.404 21C119.297 21.1333 119.124 21.2533 118.884 21.36C118.937 21.52 118.964 21.6667 118.964 21.8C118.964 22.2 118.804 22.56 118.484 22.88C118.511 22.96 118.524 23.0933 118.524 23.28C118.524 23.44 118.511 23.56 118.484 23.64C118.804 23.96 118.964 24.3467 118.964 24.8C118.964 24.9867 118.924 25.1867 118.844 25.4C119.111 25.7467 119.244 26.2667 119.244 26.96C119.244 27.3067 119.191 27.5867 119.084 27.8C119.297 28.0933 119.404 28.52 119.404 29.08C119.404 29.4267 119.337 29.76 119.204 30.08C119.364 30.3467 119.444 30.6267 119.444 30.92C119.444 31.2667 119.351 31.5733 119.164 31.84C119.431 32.48 119.564 32.9733 119.564 33.32C119.564 33.72 119.417 34.0667 119.124 34.36C119.151 34.4667 119.231 34.76 119.364 35.24C119.497 35.6933 119.564 36.12 119.564 36.52C119.564 37.56 118.991 38.04 117.844 37.96C117.284 37.9333 116.817 37.5333 116.444 36.76C116.097 35.96 115.924 35.1467 115.924 34.32C115.924 33.76 116.017 33.3467 116.204 33.08C115.964 32.5467 115.844 32.0933 115.844 31.72C115.844 31.4533 115.897 31.2133 116.004 31C115.844 30.76 115.764 30.4933 115.764 30.2C115.764 29.8267 115.871 29.4933 116.084 29.2C115.871 29.0667 115.697 28.88 115.564 28.64C115.457 28.4 115.404 28.1467 115.404 27.88C115.404 27.3733 115.591 26.96 115.964 26.64C115.724 26.48 115.604 26.0133 115.604 25.24C115.604 24.9467 115.631 24.68 115.684 24.44C115.764 24.1733 115.857 24 115.964 23.92C115.777 23.7333 115.617 23.48 115.484 23.16C115.377 22.84 115.324 22.5333 115.324 22.24C115.324 21.84 115.404 21.5067 115.564 21.24C115.297 21.2933 115.084 21.32 114.924 21.32C114.444 21.32 114.044 21.2 113.724 20.96ZM129.884 9.48C129.537 9.64 129.257 9.86667 129.044 10.16C128.831 10.4533 128.724 10.76 128.724 11.08C128.724 11.5067 128.897 11.9333 129.244 12.36C129.191 12.7067 129.377 13.04 129.804 13.36C130.231 13.68 130.697 13.84 131.204 13.84C131.551 13.84 131.857 13.7467 132.124 13.56C132.871 13.16 133.244 12.6533 133.244 12.04C133.244 11.64 133.084 11.1867 132.764 10.68C132.791 10.1467 132.631 9.73333 132.284 9.44C131.964 9.12 131.577 8.96 131.124 8.96C130.617 8.96 130.204 9.13333 129.884 9.48ZM132.484 27.16C132.697 27.24 132.857 27.4933 132.964 27.92C133.097 28.3467 133.164 28.8133 133.164 29.32C133.164 29.9067 133.071 30.2933 132.884 30.48C133.044 30.88 133.124 31.2667 133.124 31.64C133.124 32.12 133.004 32.52 132.764 32.84C132.951 33.2933 133.044 33.8267 133.044 34.44C133.044 34.9467 132.964 35.36 132.804 35.68C132.884 35.92 132.924 36.1467 132.924 36.36C132.924 36.84 132.751 37.2267 132.404 37.52C132.057 37.7867 131.644 37.92 131.164 37.92C130.711 37.92 130.324 37.7867 130.004 37.52C129.684 37.2267 129.537 36.84 129.564 36.36C129.431 36.2 129.324 35.9467 129.244 35.6C129.164 35.2533 129.124 34.8933 129.124 34.52C129.124 33.8267 129.271 33.3733 129.564 33.16C129.351 32.8133 129.244 32.2933 129.244 31.6C129.244 30.9067 129.337 30.4 129.524 30.08C129.417 29.9733 129.337 29.72 129.284 29.32C129.231 28.92 129.204 28.48 129.204 28C129.204 27.5467 129.231 27.1467 129.284 26.8C129.337 26.4267 129.417 26.1867 129.524 26.08C129.364 25.92 129.284 25.48 129.284 24.76C129.284 23.9333 129.377 23.3333 129.564 22.96C129.431 22.7467 129.311 22.4667 129.204 22.12C129.097 21.7733 129.044 21.4533 129.044 21.16C129.044 20.8933 129.071 20.7067 129.124 20.6C128.911 19.9067 128.804 19.3467 128.804 18.92C128.804 18.4667 128.911 18 129.124 17.52C129.071 17.12 129.164 16.8133 129.404 16.6C129.644 16.3867 129.991 16.28 130.444 16.28C131.671 16.28 132.284 17.0267 132.284 18.52C132.524 18.68 132.697 18.9067 132.804 19.2C132.937 19.4667 133.004 19.7733 133.004 20.12C133.004 20.68 132.871 21.16 132.604 21.56C132.711 21.72 132.791 21.96 132.844 22.28C132.924 22.6 132.964 22.92 132.964 23.24C132.964 23.6667 132.897 23.96 132.764 24.12C132.871 24.2533 132.924 24.5333 132.924 24.96C132.924 25.36 132.871 25.7867 132.764 26.24C132.684 26.6933 132.591 27 132.484 27.16ZM157.115 37.12C156.875 37.4133 156.555 37.64 156.155 37.8C155.755 37.9333 155.342 38 154.915 38C154.382 38 154.009 37.9067 153.795 37.72C153.609 37.8 153.409 37.84 153.195 37.84C152.689 37.84 152.262 37.6667 151.915 37.32C151.595 37.4533 151.315 37.52 151.075 37.52C150.649 37.52 150.222 37.4133 149.795 37.2C149.395 36.96 149.115 36.68 148.955 36.36C148.449 36.4133 147.942 36.2667 147.435 35.92C146.955 35.5467 146.675 35.12 146.595 34.64C145.795 34.2933 145.249 33.36 144.955 31.84C144.795 31.7067 144.675 31.5067 144.595 31.24C144.515 30.9733 144.475 30.7067 144.475 30.44C144.475 30.2533 144.489 30.12 144.515 30.04C144.062 29.1333 143.835 28.2 143.835 27.24C143.835 26.36 144.022 25.64 144.395 25.08C144.342 24.8133 144.315 24.6133 144.315 24.48C144.315 24.0267 144.422 23.6 144.635 23.2C144.849 22.7733 145.115 22.4667 145.435 22.28C145.382 22.1467 145.355 21.96 145.355 21.72C145.355 21.2933 145.489 20.9067 145.755 20.56C146.049 20.1867 146.329 19.96 146.595 19.88C146.702 19.5067 146.955 19.16 147.355 18.84C147.782 18.4933 148.222 18.3333 148.675 18.36C149.209 17.56 149.742 17.2 150.275 17.28C150.515 16.96 150.835 16.7333 151.235 16.6C151.662 16.4667 152.049 16.4133 152.395 16.44C152.662 16.2533 152.955 16.16 153.275 16.16C153.595 16.16 153.915 16.24 154.235 16.4C154.449 16.24 154.742 16.16 155.115 16.16C155.382 16.16 155.635 16.2 155.875 16.28C156.115 16.36 156.275 16.4533 156.355 16.56C156.569 16.5067 156.795 16.56 157.035 16.72C157.275 16.8533 157.422 17.0267 157.475 17.24C157.929 17.24 158.315 17.3867 158.635 17.68C158.982 17.9467 159.235 18.2667 159.395 18.64C159.582 18.9867 159.662 19.2533 159.635 19.44C160.089 19.6533 160.409 20 160.595 20.48C160.782 20.9067 160.875 21.28 160.875 21.6C160.875 22.1333 160.675 22.5467 160.275 22.84C160.009 23.0267 159.729 23.12 159.435 23.12C158.955 23.12 158.489 22.92 158.035 22.52C157.609 22.12 157.329 21.6267 157.195 21.04C156.849 20.9867 156.515 20.8667 156.195 20.68C155.875 20.4667 155.622 20.24 155.435 20C155.355 20.0267 155.155 20.04 154.835 20.04C154.542 20.04 154.342 20.0267 154.235 20C153.995 20.24 153.729 20.36 153.435 20.36C153.142 20.36 152.862 20.2667 152.595 20.08C152.249 20.6133 151.742 20.88 151.075 20.88C150.729 21.36 150.422 21.7333 150.155 22C149.889 22.24 149.529 22.3333 149.075 22.28C149.102 22.36 149.115 22.48 149.115 22.64C149.115 22.96 149.035 23.24 148.875 23.48C148.715 23.72 148.529 23.9467 148.315 24.16C148.129 24.3467 147.982 24.4933 147.875 24.6C148.009 25 148.075 25.3733 148.075 25.72C148.075 26.3333 147.889 27.0667 147.515 27.92C147.649 28.1067 147.755 28.3733 147.835 28.72C147.942 29.04 147.995 29.36 147.995 29.68C147.995 29.8667 147.982 30 147.955 30.08C148.142 30.2133 148.302 30.44 148.435 30.76C148.595 31.08 148.675 31.3867 148.675 31.68C149.342 31.8933 149.889 32.2 150.315 32.6C150.769 33 150.995 33.3733 150.995 33.72C151.289 33.48 151.609 33.36 151.955 33.36C152.275 33.36 152.582 33.44 152.875 33.6C153.195 33.76 153.435 33.9733 153.595 34.24C153.729 34.2133 153.889 34.2 154.075 34.2C154.475 34.2 154.822 34.3333 155.115 34.6C155.222 34.3867 155.489 34.16 155.915 33.92C156.342 33.68 156.689 33.5733 156.955 33.6C157.115 33.3333 157.329 33.1333 157.595 33C157.889 32.8667 158.195 32.8 158.515 32.8C158.729 32.8 158.875 32.8133 158.955 32.84C159.302 32.4133 159.769 32.2 160.355 32.2C160.862 32.2 161.302 32.3733 161.675 32.72C162.049 33.0667 162.235 33.4933 162.235 34C162.235 34.5867 161.982 35.08 161.475 35.48C160.995 35.8533 160.449 36.04 159.835 36.04C159.595 36.04 159.422 36.0267 159.315 36C159.529 36.0533 159.502 36.1733 159.235 36.36C158.995 36.5467 158.649 36.7333 158.195 36.92C157.742 37.08 157.382 37.1467 157.115 37.12ZM177.108 34.56C177.134 34.4267 177.201 34.3333 177.308 34.28C177.441 34.2267 177.588 34.1867 177.748 34.16C177.854 34.1333 177.988 34.12 178.148 34.12C178.601 34.12 178.961 34.2933 179.228 34.64C179.521 34.96 179.668 35.3467 179.668 35.8C179.668 36.1467 179.574 36.4533 179.388 36.72C179.201 36.96 178.921 37.1333 178.548 37.24C177.988 37.72 177.321 37.92 176.548 37.84C176.334 38.0267 176.054 38.12 175.708 38.12C175.228 38.12 174.788 37.9467 174.388 37.6C174.121 37.5467 173.801 37.4133 173.428 37.2C173.054 36.96 172.868 36.7467 172.868 36.56C172.494 36.5067 172.108 36.2933 171.708 35.92C171.334 35.5467 171.201 35.0933 171.308 34.56C171.014 34.24 170.841 33.9067 170.788 33.56C170.468 33.4 170.228 33.16 170.068 32.84C169.934 32.52 169.894 32.1867 169.948 31.84C169.601 31.52 169.428 31.04 169.428 30.4C169.428 30.16 169.454 29.8533 169.508 29.48C169.134 29.1867 168.948 28.7867 168.948 28.28C168.948 27.8267 169.094 27.4533 169.388 27.16C169.068 26.84 168.908 26.4267 168.908 25.92C168.908 25.7333 168.961 25.5067 169.068 25.24C168.908 24.92 168.828 24.6 168.828 24.28C168.828 23.8533 168.948 23.52 169.188 23.28C169.028 22.96 168.948 22.6133 168.948 22.24C168.948 21.92 168.988 21.64 169.068 21.4C169.174 21.1333 169.294 20.9333 169.428 20.8C169.134 20.4533 168.988 20.08 168.988 19.68C168.988 19.4667 169.028 19.24 169.108 19C168.868 19.08 168.601 19.12 168.308 19.12C167.854 19.12 167.521 19.0267 167.308 18.84C166.988 18.92 166.708 18.96 166.468 18.96C165.988 18.96 165.494 18.8133 164.988 18.52C164.721 18.68 164.441 18.76 164.148 18.76C163.721 18.76 163.374 18.5867 163.108 18.24C162.814 17.8667 162.668 17.4533 162.668 17C162.668 16.6 162.801 16.2667 163.068 16C163.308 15.7067 163.668 15.5467 164.148 15.52C164.468 15.3867 164.761 15.32 165.028 15.32C165.561 15.32 166.028 15.4533 166.428 15.72C166.774 15.5867 167.161 15.52 167.588 15.52C167.961 15.52 168.254 15.5867 168.468 15.72C168.494 15.6133 168.601 15.52 168.788 15.44C169.001 15.3333 169.174 15.2933 169.308 15.32C169.201 15.08 169.148 14.76 169.148 14.36C169.148 13.88 169.254 13.6267 169.468 13.6C169.281 13.3333 169.188 12.9467 169.188 12.44C169.188 11.7467 169.361 11.2667 169.708 11C169.681 10.4667 169.788 10.0667 170.028 9.8C170.268 9.53333 170.574 9.4 170.948 9.4C171.321 9.4 171.668 9.53333 171.988 9.8C172.308 10.04 172.468 10.36 172.468 10.76C172.468 11.0267 172.361 11.3333 172.148 11.68C172.414 11.92 172.548 12.32 172.548 12.88C172.548 13.12 172.508 13.3733 172.428 13.64C172.374 13.88 172.294 14.0667 172.188 14.2C172.348 14.3067 172.428 14.52 172.428 14.84C172.428 15.1067 172.361 15.4667 172.228 15.92C172.468 15.84 172.721 15.8 172.988 15.8C173.388 15.8 173.694 15.8933 173.908 16.08C174.174 15.9467 174.388 15.88 174.548 15.88C174.814 15.88 175.028 15.9867 175.188 16.2C175.374 16.0667 175.601 16 175.868 16C176.241 16 176.534 16.1467 176.748 16.44C177.254 16.44 177.628 16.56 177.868 16.8C178.134 17.0133 178.268 17.2933 178.268 17.64C178.268 18.0667 178.094 18.48 177.748 18.88C177.428 19.2533 177.054 19.44 176.628 19.44C176.388 19.44 176.148 19.36 175.908 19.2C175.641 19.4133 175.294 19.52 174.868 19.52C174.468 19.52 174.134 19.4267 173.868 19.24C173.521 19.3733 173.268 19.44 173.108 19.44C172.894 19.44 172.641 19.3467 172.348 19.16C172.588 19.48 172.708 19.8267 172.708 20.2C172.708 20.6 172.548 20.96 172.228 21.28C172.468 21.6 172.588 22 172.588 22.48C172.588 22.9067 172.468 23.3067 172.228 23.68C172.548 23.8933 172.708 24.24 172.708 24.72C172.708 25.12 172.588 25.4667 172.348 25.76C172.614 26.0533 172.748 26.5733 172.748 27.32C172.748 27.64 172.708 27.9067 172.628 28.12C172.814 28.3867 172.908 28.6667 172.908 28.96C172.908 29.12 172.868 29.3333 172.788 29.6C172.734 29.84 172.694 30.04 172.668 30.2C172.988 30.5733 173.148 30.9333 173.148 31.28C173.601 31.6267 173.828 32.04 173.828 32.52C174.361 32.8133 174.628 33.3067 174.628 34C174.681 34.08 174.734 34.1333 174.788 34.16C174.841 34.1867 174.881 34.2133 174.908 34.24L175.188 34.2C175.588 34.2 175.908 34.32 176.148 34.56C176.361 34.5067 176.534 34.48 176.668 34.48C176.748 34.48 176.894 34.5067 177.108 34.56ZM185.041 36.12C185.147 36.7067 185.027 37.1733 184.681 37.52C184.361 37.84 183.961 38 183.481 38C183.054 38 182.681 37.8667 182.361 37.6C182.041 37.3067 181.881 36.9067 181.881 36.4C181.881 36.08 181.961 35.72 182.121 35.32C181.961 34.9467 181.881 34.56 181.881 34.16C181.881 33.84 181.947 33.5733 182.081 33.36C181.921 33.2533 181.801 33.0933 181.721 32.88C181.641 32.6667 181.601 32.4267 181.601 32.16C181.601 31.8933 181.654 31.6 181.761 31.28C181.521 30.9867 181.401 30.64 181.401 30.24C181.401 29.7333 181.587 29.32 181.961 29C181.934 28.92 181.921 28.7867 181.921 28.6C181.921 28.3333 181.947 28.1467 182.001 28.04C181.707 27.6667 181.561 27.1333 181.561 26.44C181.561 25.96 181.654 25.5867 181.841 25.32C181.654 25.16 181.494 24.9467 181.361 24.68C181.227 24.3867 181.161 24.0933 181.161 23.8C181.161 23.48 181.254 23.1733 181.441 22.88C181.307 22.56 181.241 22.28 181.241 22.04C181.241 21.64 181.361 21.2667 181.601 20.92C181.281 20.6 181.121 20.2667 181.121 19.92C181.121 19.6533 181.214 19.2933 181.401 18.84C181.214 18.4667 181.121 18.0667 181.121 17.64C181.121 17.08 181.321 16.7333 181.721 16.6C181.747 16.2267 181.881 15.92 182.121 15.68C182.361 15.44 182.654 15.32 183.001 15.32C183.401 15.32 183.747 15.52 184.041 15.92C184.361 16.2933 184.521 16.84 184.521 17.56C184.521 17.8533 184.507 18.0933 184.481 18.28C184.587 18.2267 184.694 18.1467 184.801 18.04C184.907 17.9067 185.041 17.8133 185.201 17.76C185.361 17.7067 185.601 17.68 185.921 17.68C185.974 17.5467 186.147 17.4133 186.441 17.28C186.761 17.1467 187.067 17.08 187.361 17.08C187.574 17.08 187.721 17.1067 187.801 17.16C188.014 17.0533 188.227 17 188.441 17C188.761 17 189.107 17.2267 189.481 17.68C190.121 17.6267 190.587 17.7733 190.881 18.12C191.307 18.0933 191.681 18.1467 192.001 18.28C192.321 18.4133 192.574 18.6933 192.761 19.12C193.267 19.44 193.521 19.8667 193.521 20.4C193.521 20.8533 193.321 21.28 192.921 21.68C192.547 22.0533 192.134 22.24 191.681 22.24C191.174 22.24 190.747 21.9733 190.401 21.44C190.107 21.44 189.881 21.4133 189.721 21.36C189.561 21.3067 189.401 21.1867 189.241 21C189.081 21.0533 188.947 21.08 188.841 21.08C188.601 21.08 188.347 21.0133 188.081 20.88C187.707 21.12 187.307 21.2267 186.881 21.2C186.721 21.5733 186.307 21.76 185.641 21.76C185.667 21.84 185.681 21.9733 185.681 22.16C185.681 22.5067 185.601 22.8533 185.441 23.2C185.307 23.52 185.134 23.76 184.921 23.92C185.134 24.4267 185.241 24.9333 185.241 25.44C185.241 25.8933 185.134 26.24 184.921 26.48C185.001 26.5867 185.081 26.72 185.161 26.88C185.267 27.04 185.347 27.1867 185.401 27.32C185.454 27.5333 185.481 27.6933 185.481 27.8C185.481 27.9867 185.414 28.24 185.281 28.56C185.414 28.88 185.481 29.12 185.481 29.28C185.481 29.4933 185.387 29.7867 185.201 30.16C185.361 30.4267 185.441 30.72 185.441 31.04C185.441 31.4133 185.347 31.7333 185.161 32C185.347 32.4267 185.441 32.8667 185.441 33.32C185.441 33.6667 185.361 33.9867 185.201 34.28C185.334 34.5467 185.401 34.8133 185.401 35.08C185.401 35.4533 185.281 35.8 185.041 36.12ZM200.498 33C200.764 33.2933 200.898 33.7467 200.898 34.36C200.898 34.76 200.831 35.1467 200.698 35.52C200.591 35.8667 200.444 36.12 200.258 36.28C200.338 36.7867 200.204 37.2 199.858 37.52C199.511 37.84 199.098 38 198.618 38C198.298 38 197.991 37.92 197.698 37.76C197.404 37.6 197.191 37.3333 197.058 36.96C196.924 36.5867 196.858 36.1867 196.858 35.76C196.858 35.1733 196.951 34.7067 197.138 34.36C197.004 34.12 196.938 33.7733 196.938 33.32C196.938 32.8133 197.018 32.2933 197.178 31.76C196.991 31.5467 196.898 31.16 196.898 30.6C196.898 29.88 197.004 29.3467 197.218 29C197.058 28.6267 196.978 28.2667 196.978 27.92C196.978 27.44 197.098 26.96 197.338 26.48C197.124 25.92 197.018 25.4133 197.018 24.96C197.018 24.5867 197.098 24.16 197.258 23.68C196.991 23.3867 196.858 23.0133 196.858 22.56C196.858 22.3733 196.871 22.24 196.898 22.16C196.604 21.8133 196.458 21.4133 196.458 20.96C196.458 20.6667 196.538 20.3867 196.698 20.12C196.511 19.6933 196.418 19.28 196.418 18.88C196.418 18.24 196.578 17.76 196.898 17.44C196.738 17.0667 196.658 16.6133 196.658 16.08C196.658 15.6533 196.724 15.3467 196.858 15.16C196.724 15.08 196.618 14.9333 196.538 14.72C196.458 14.5067 196.418 14.2667 196.418 14C196.418 13.5467 196.524 13.1733 196.738 12.88C196.658 12.6667 196.618 12.3867 196.618 12.04C196.618 11.7733 196.644 11.5333 196.698 11.32C196.378 11 196.218 10.6267 196.218 10.2C196.218 9.74667 196.404 9.36 196.778 9.04C197.178 8.69333 197.618 8.52 198.098 8.52C198.418 8.52 198.711 8.62666 198.978 8.84C199.244 9.02666 199.431 9.32 199.538 9.72C199.938 9.98667 200.138 10.4 200.138 10.96C200.138 11.0667 200.111 11.2267 200.058 11.44C200.378 11.76 200.538 12.1733 200.538 12.68C200.538 13.1067 200.404 13.44 200.138 13.68C200.271 13.7867 200.391 13.9733 200.498 14.24C200.604 14.48 200.658 14.7467 200.658 15.04C200.658 15.52 200.484 15.92 200.138 16.24C200.351 16.5333 200.458 16.8933 200.458 17.32C200.458 17.7467 200.378 18.0933 200.218 18.36C200.324 18.4667 200.378 18.7333 200.378 19.16C200.378 19.4 200.351 19.6533 200.298 19.92C200.244 20.1867 200.164 20.3733 200.058 20.48C200.458 20.8267 200.658 21.2667 200.658 21.8C200.658 22.0933 200.604 22.3467 200.498 22.56C200.658 22.8 200.738 23.16 200.738 23.64C200.738 24.2533 200.631 24.7467 200.418 25.12C200.604 25.4933 200.698 25.9867 200.698 26.6C200.698 27.3467 200.578 27.88 200.338 28.2C200.524 28.4667 200.618 28.8 200.618 29.2C200.618 29.5467 200.538 29.96 200.378 30.44C200.618 30.7067 200.738 31.12 200.738 31.68C200.738 32.16 200.658 32.6 200.498 33Z" fill="#F1EADA"/>
<path d="M19.6418 6.59637C13.1944 7.51456 8.98861 9.25941 7.51731 10.879C11.5442 12.0085 21.1645 12.6549 21.1645 12.6549C21.1645 12.6549 45.4685 13.4631 56.1964 20.5609C62.2702 24.5794 63.7909 32.6221 63.7909 32.6221C63.8642 32.0305 62.7356 25.0816 60.8412 21.4391C57.6912 15.3822 53.3722 13.5419 47.1633 10.6958C42.1224 8.38513 34.2764 7.04807 34.2764 7.04807C34.2764 7.04807 26.0892 5.67818 19.6418 6.59637Z" fill="#F1EADA"/>
<path d="M27.1221 17.2598L5.23934 13.1223C4.06112 13.4457 1.56072 15.3761 0.984807 20.5106C0.919107 32.6805 14.6838 39.9635 28.8591 43.0214C40.5284 45.5387 53.1725 44.412 60.3706 38.6851C62.7219 36.8143 63.8331 34.0053 62.0228 29.9854C59.0122 23.3007 43.1077 19.6055 43.1077 19.6055C43.1077 19.6055 32.2397 17.7762 27.1221 17.2598Z" fill="#F1EADA"/>
<path d="M4.32298 13.5732C4.32298 13.5732 5.80744 13.0462 6.41396 12.1984C6.97466 11.4147 7.51725 10.877 7.51725 10.877M62.5791 35.7383C62.5608 35.4924 63.8735 33.7287 63.7909 32.6221M63.7909 32.6221C63.8642 32.0305 62.7356 25.0816 60.8412 21.4391C57.6912 15.3822 53.3722 13.5419 47.1633 10.6958C42.1224 8.38513 34.2764 7.04807 34.2764 7.04807C34.2764 7.04807 26.0892 5.67818 19.6418 6.59637C13.1944 7.51456 8.98861 9.25941 7.51731 10.879C11.5442 12.0085 21.1645 12.6549 21.1645 12.6549C21.1645 12.6549 45.4685 13.4631 56.1964 20.5608C62.2702 24.5794 63.7909 32.6221 63.7909 32.6221ZM5.23934 13.1223L27.1221 17.2598C32.2397 17.7762 43.1077 19.6055 43.1077 19.6055C43.1077 19.6055 59.0122 23.3007 62.0228 29.9854C63.8331 34.0053 62.7219 36.8143 60.3706 38.6851C53.1725 44.412 40.5284 45.5387 28.8591 43.0214C14.6838 39.9635 0.919107 32.6805 0.984807 20.5106C1.56072 15.3761 4.06112 13.4457 5.23934 13.1223Z" stroke="#F1EADA" stroke-linecap="round"/>
</svg>
