<svg width="15" height="16" viewBox="0 0 15 16" fill="none" xmlns="http://www.w3.org/2000/svg">
<path d="M2.8702 15.6021C2.3406 15.6021 1.88929 15.4156 1.51627 15.0426C1.14325 14.6696 0.956735 14.2183 0.956735 13.6887V2.8702C0.688288 2.8702 0.461686 2.77789 0.276927 2.59328C0.0923091 2.40852 0 2.18192 0 1.91347C0 1.64502 0.0923091 1.41842 0.276927 1.23366C0.461686 1.04904 0.688288 0.956735 0.956735 0.956735H4.49203C4.49203 0.688288 4.58434 0.461685 4.76895 0.276927C4.95371 0.0923087 5.18031 0 5.44876 0H8.80301C9.07146 0 9.29806 0.0923087 9.48282 0.276927C9.66743 0.461685 9.75974 0.688288 9.75974 0.956735H13.3051C13.5736 0.956735 13.8002 1.04904 13.9849 1.23366C14.1696 1.41842 14.2619 1.64502 14.2619 1.91347C14.2619 2.18192 14.1696 2.40852 13.9849 2.59328C13.8002 2.77789 13.5736 2.8702 13.3051 2.8702V13.6887C13.3051 14.2183 13.1186 14.6696 12.7456 15.0426C12.3726 15.4156 11.9213 15.6021 11.3917 15.6021H2.8702ZM11.3917 2.8702H2.8702V13.6887H11.3917V2.8702ZM7.13093 9.54506L8.67369 11.0876C8.84135 11.2553 9.05183 11.3383 9.30514 11.3366C9.55858 11.3349 9.76907 11.2503 9.93658 11.0828C10.1042 10.9151 10.1881 10.7046 10.1881 10.4511C10.1881 10.1978 10.1042 9.98733 9.93658 9.81967L8.39403 8.28196L9.93658 6.7392C10.1042 6.57154 10.1881 6.36106 10.1881 6.10775C10.1881 5.8543 10.1042 5.64382 9.93658 5.47631C9.76907 5.30865 9.55858 5.22482 9.30514 5.22482C9.05183 5.22482 8.84135 5.30865 8.67369 5.47631L7.13093 7.01886L5.58817 5.47631C5.42052 5.30865 5.21087 5.22482 4.95925 5.22482C4.70748 5.22482 4.49777 5.30865 4.33012 5.47631C4.1626 5.64382 4.07884 5.8543 4.07884 6.10775C4.07884 6.36106 4.1626 6.57154 4.33012 6.7392L5.86783 8.28196L4.32528 9.82472C4.15763 9.99237 4.07464 10.202 4.07632 10.4536C4.078 10.7054 4.1626 10.9151 4.33012 11.0828C4.49777 11.2503 4.70833 11.334 4.96177 11.334C5.21508 11.334 5.42556 11.2503 5.59322 11.0828L7.13093 9.54506Z" fill="#900B09"/>
</svg>
