<svg width="163" height="154" viewBox="0 0 163 154" fill="none" xmlns="http://www.w3.org/2000/svg">
<path d="M114.988 3.28747C125.71 4.51009 142.668 4.16696 149.814 20.9585C156.959 37.7501 157.482 40.3942 159.255 55.7091C161.028 71.024 159.255 86.2229 159.255 105.775C159.255 115.789 158.597 126.135 149.814 136.404C138.67 149.431 126.205 149.362 108.496 150.539C81.8009 152.314 50.6298 149.362 40.0173 147.006C29.4047 144.65 19.3592 141.116 12.8667 131.692C6.37415 122.268 3.1105 90.4612 2.83285 83.9821C1.64651 56.2988 2.24295 50.9977 4.60769 39.2169C6.91658 27.7143 13.8623 11.0914 29.9972 7.41102C46.1322 3.73068 53.6065 3.28734 72.4938 3.28758C91.3812 3.28782 94.3323 0.9321 114.988 3.28747Z" fill="#AAA396" stroke="#6A6863" stroke-width="4.48123"/>
<path d="M39.1653 110.412C39.3774 110.811 39.6217 111.23 39.9423 111.703C40.0372 111.843 40.1327 111.976 40.2265 112.106C40.2078 112.179 40.1893 112.253 40.1706 112.327C39.7706 113.901 39.3711 115.476 38.9711 117.051C38.4297 119.181 37.8822 121.311 37.3468 123.443C36.7741 125.723 36.0408 127.975 35.6445 130.285C35.2798 132.412 35.1369 134.577 35.0637 136.753C34.9964 138.757 35.5421 140.866 35.9869 142.958C36.115 143.561 36.2348 144.162 36.3291 144.759C32.9115 144.172 29.4929 143.585 26.0753 142.999C26.3631 142.468 26.6768 141.941 26.9984 141.416C28.1149 139.592 29.3324 137.785 29.9368 135.874C30.593 133.797 31.1786 131.708 31.5434 129.582C31.9396 127.272 32 124.904 32.2199 122.564C32.4254 120.375 32.6187 118.185 32.8184 115.996C32.9659 114.378 33.1142 112.76 33.2617 111.142C33.3138 110.571 33.3658 109.999 33.4179 109.427C35.3335 109.756 37.2495 110.084 39.1653 110.412Z" fill="#6A6863"/>
<path fill-rule="evenodd" clip-rule="evenodd" d="M144.968 95.8935C145.038 96.5313 145.117 97.165 145.206 97.7941C146.002 103.457 147.543 108.773 149.83 113.742C151.753 117.917 154.603 121.662 157.126 125.558C154.058 126.351 151.837 129.024 151.92 132.137C151.927 132.379 151.947 132.618 151.981 132.853C151.597 133.032 151.214 133.211 150.83 133.389C150.674 132.791 150.532 132.186 150.382 131.586C150.25 131.06 150.111 130.537 149.951 130.024C148.472 125.266 147.479 120.282 145.414 115.797C143.469 111.571 140.983 107.596 137.959 103.872C140.804 102.95 142.816 100.384 142.737 97.4176C142.732 97.259 142.72 97.1021 142.704 96.9466C143.459 96.5955 144.214 96.2446 144.968 95.8935Z" fill="#6A6863"/>
<path d="M117.792 106.589C117.927 106.561 118.417 106.562 118.787 106.527C119.057 106.502 119.684 106.383 120.056 106.239C120.352 106.124 120.845 105.998 121.514 105.949C121.799 105.929 122.074 105.804 122.476 105.654C122.791 105.536 123.178 105.475 123.588 105.364C123.966 105.262 124.541 105.144 124.946 104.979C125.468 104.767 125.948 104.759 126.71 104.696C127.359 104.644 127.994 104.415 128.335 104.325C128.96 104.159 129.358 104.002 129.693 103.932C129.963 103.876 130.204 103.727 130.464 103.533C130.675 103.376 130.968 103.121 131.384 102.914C131.648 102.782 131.828 102.625 132.175 102.377C132.62 102.06 133.096 101.592 133.471 101.126C133.937 100.546 134.309 100.204 134.631 99.8927C135.111 99.4299 135.17 98.9236 135.334 98.4748C135.553 98.1236 135.607 97.7109 135.703 96.8831C135.717 96.2485 135.717 95.0354 135.717 93.7856" stroke="#6A6863" stroke-width="2.5607" stroke-linecap="round"/>
<path d="M136.037 81.9424C136.037 81.9565 136.037 81.9706 136.037 83.0517C136.037 84.1328 136.037 86.2803 136.037 87.4149C136.037 88.5495 136.037 88.606 136.037 88.6642" stroke="#6A6863" stroke-width="2.5607" stroke-linecap="round"/>
<path d="M27.739 25.927C27.739 25.7163 27.6457 25.292 27.5684 24.9741C27.4716 24.5766 27.574 24.2188 27.5917 23.5408C27.6072 22.9447 27.5977 21.836 27.5919 21.23C27.586 20.6239 27.5744 20.5539 27.5684 20.2145C27.5516 19.2684 27.574 18.5731 27.5917 18.4204C27.6313 18.078 27.7503 17.8193 27.7918 17.5362C27.8214 17.3347 27.9156 17.1008 28.062 16.8701C28.2372 16.5941 28.5974 16.4523 28.8274 16.2276C28.9646 16.0936 29.104 15.9799 29.2984 15.9326C29.5801 15.8639 30.079 15.5578 30.5225 15.2788C30.8123 15.0965 31.1175 15.1193 31.3998 14.9314C31.7738 14.6824 32.118 14.6604 32.4009 14.5889C32.6925 14.5153 32.8838 14.4355 33.1076 14.3123C33.3595 14.1736 33.6963 14.1887 34.2778 14.1468C34.6514 14.1199 35.4923 14.0819 36.3537 13.9939C36.8069 13.9475 37.6832 13.9758 38.1685 13.97C38.7241 13.9633 39.064 13.9405 39.5053 13.9171C39.7483 13.8471 39.8787 13.7874 40.4974 13.7697C41.0578 13.7637 42.1187 13.7637 43.2116 13.7637" stroke="#6A6863" stroke-width="2.5607" stroke-linecap="round"/>
<path d="M27.5273 30.0884V32.329" stroke="#6A6863" stroke-width="2.5607" stroke-linecap="round"/>
<path d="M20.9219 96.8164C20.5593 97.3936 20.3496 98.0767 20.3496 98.8086C20.3497 100.705 21.757 102.27 23.584 102.521C23.432 103.145 23.2809 103.77 23.1289 104.394C22.565 106.708 21.995 109.022 21.4375 111.337C20.8412 113.813 20.073 116.262 19.667 118.77C19.2933 121.077 18.9186 123.385 18.5449 125.692C18.2008 127.817 17.9676 129.96 17.8457 132.121C17.8106 132.743 17.7843 133.368 17.7676 133.993C15.9249 133.695 14.082 133.396 12.2393 133.098C12.4208 132.499 12.5928 131.898 12.7559 131.297C13.3222 129.208 13.778 127.101 14.1221 124.976C14.4957 122.668 14.8685 120.36 15.2422 118.053C15.6482 115.546 15.6915 112.979 15.9072 110.441C16.1089 108.068 16.2988 105.693 16.4941 103.318C16.6385 101.564 16.7824 99.809 16.9268 98.0547C16.9777 97.4353 17.0291 96.8157 17.0801 96.1963C18.3605 96.4036 19.6413 96.6094 20.9219 96.8164Z" fill="#6A6863"/>
<path d="M19.327 12.4834C19.327 12.4834 19.327 34.911 19.327 54.9506C19.327 70.3834 14.0263 97.4178 24.0371 105.086C34.0479 112.753 44.94 113.796 53.4811 115.112C84.1019 119.831 79.3921 116.882 105.892 116.882C115.877 116.882 124.625 117.266 132.393 110.984C138.349 106.167 142.109 102.085 142.993 94.4687C145.938 69.1063 145.722 55.6703 145.938 30.7679C145.988 25.0096 145.938 14.8427 145.938 14.8427" stroke="#6A6863" stroke-width="4.48123"/>
<path d="M132.048 112.452C128.946 113.878 125.843 115.304 122.741 116.731C123.265 117.052 123.758 117.388 124.219 117.738C126.065 119.138 127.415 120.766 128.269 122.623C129.336 124.944 130.403 127.264 131.47 129.585C132.537 131.905 133.28 134.375 134.089 136.814C134.736 138.766 135.217 140.793 135.731 142.806C135.86 143.309 135.991 143.811 136.127 144.311C138.841 143.063 141.555 141.815 144.27 140.567C143.979 140.138 143.682 139.712 143.384 139.287C142.192 137.587 140.966 135.901 139.905 134.14C138.58 131.938 137.19 129.766 136.123 127.445C135.056 125.125 133.989 122.804 132.922 120.484C132.068 118.627 131.711 116.542 131.85 114.229C131.885 113.651 131.951 113.059 132.048 112.452Z" fill="#6A6863"/>
<path fill-rule="evenodd" clip-rule="evenodd" d="M54.0885 37.6134C62.7978 36.1174 73.2818 35.6558 82.3863 36.0704C89.852 36.4104 99.6095 37.9237 107.517 40.1583C111.466 41.2741 115.006 42.5847 117.58 44.0469C118.865 44.7773 119.955 45.5706 120.733 46.4327C121.513 47.2961 122.039 48.2957 122.039 49.4102V49.4551L122.035 49.5001C121.855 51.4103 121.855 53.1144 121.9 54.3399C121.911 54.6382 121.925 54.9078 121.939 55.1446C122.59 54.9695 123.474 54.7553 124.465 54.5811C126.486 54.2264 129.161 53.9956 131.219 54.7618C135.33 56.2928 137.189 59.9115 137.648 63.8516C138.105 67.7732 137.211 72.1667 135.687 75.6592C133.059 81.6817 127.378 85.6843 121.632 88.3018C116.037 90.8509 110.231 92.1531 106.709 92.7208C106.014 93.4262 104.996 94.4212 103.942 95.3643C102.792 96.393 101.517 97.4393 100.567 97.9425L100.458 98.0001L100.338 98.0284C91.8859 100.017 82.3074 100.348 74.7653 100.143C70.9883 100.04 67.7065 99.8013 65.3112 99.5655C64.114 99.4476 63.133 99.3294 62.4205 99.2286C62.0655 99.1783 61.7704 99.1315 61.5455 99.0899C61.3685 99.0572 61.1196 99.0092 60.9479 98.9356C60.7874 98.8668 60.5999 98.7493 60.4391 98.6426C60.2574 98.5222 60.0352 98.3651 59.7809 98.1788C59.271 97.8052 58.6095 97.2958 57.8434 96.6788C56.31 95.4439 54.3387 93.7642 52.2916 91.8575C48.2363 88.0802 43.7425 83.2828 41.8776 79.2315C38.428 71.7375 36.1483 58.7416 35.9244 47.9493C35.8316 47.3433 35.8236 46.721 35.9156 46.086L35.9391 45.9249L36.0143 45.7803C37.1308 43.6334 39.5861 41.9764 42.6686 40.6827C45.7898 39.3728 49.7366 38.3609 54.0885 37.6134ZM128.88 60.8438C126.08 60.7439 122.33 61.631 120.809 62.0831L120.658 62.128L120.601 62.2755L112.266 84.0948L112.058 84.6387L112.63 84.5225C114.552 84.1297 117.671 83.2211 120.805 81.7686C123.934 80.3186 127.114 78.3105 129.122 75.7012C131.62 72.4531 132.502 68.8213 132.313 65.9698C132.219 64.5458 131.856 63.2975 131.275 62.3878C130.693 61.4761 129.873 60.8793 128.88 60.8438Z" fill="#F1EADA"/>
<path d="M81.2313 41.1049C62.3047 40.9367 47.3096 47.5628 42.1779 50.8969C70.3619 64.3862 102.535 57.4533 115.099 52.3007C111.696 48.6388 100.158 41.2731 81.2313 41.1049Z" fill="#41210A"/>
<path d="M107.666 46.6727L51.5545 26.6683C51.5545 26.6683 52.9222 25.8894 53.5247 25.0473C54.0816 24.2689 54.7791 23.7255 54.7791 23.7255C71.723 20.0041 94.9279 27.6462 104.116 32.0774C109.551 37.321 111.659 43.2096 111.724 44.0889C111.807 45.1881 109.132 48.4092 109.151 48.6535L107.666 46.6727Z" fill="#41210A"/>
<path d="M67.1958 19.2292C60.7916 20.1412 55.993 22.666 54.3942 23.8143C58.3941 24.9362 68.7083 25.247 68.7083 25.247C68.7083 25.247 92.8491 26.0497 103.505 33.0998C109.538 37.0913 111.701 44.3793 111.701 44.3793C112.202 43.9786 110 37.5902 108.119 33.9721C104.99 27.9559 100.7 26.1279 94.5326 23.301C89.5256 21.0058 81.7321 19.6778 81.7321 19.6778C81.7321 19.6778 73.5999 18.3171 67.1958 19.2292Z" fill="#B59E7D"/>
<path d="M74.0781 30.1542L52.3421 26.0446C51.1718 26.3658 48.6882 28.2833 48.1162 33.3834C48.051 45.4716 61.7233 52.7057 75.8035 55.743C87.3945 58.2434 100.057 57.2516 107.104 51.4356C109.311 49.6138 110.543 46.7872 108.745 42.7943C105.754 36.1545 89.9564 32.4841 89.9564 32.4841C89.9564 32.4841 79.1613 30.6671 74.0781 30.1542Z" fill="#B59E7D"/>
<path d="M107.666 46.6727L51.5545 26.6683C51.5545 26.6683 52.9222 25.8894 53.5247 25.0473C54.0816 24.2689 54.7791 23.7255 54.7791 23.7255C71.723 20.0041 94.9279 27.6462 104.116 32.0774C109.551 37.321 111.659 43.2096 111.724 44.0889C111.807 45.1881 109.132 48.4092 109.151 48.6535L107.666 46.6727Z" stroke="#B59E7D"/>
<path d="M67.1958 19.2292C60.7916 20.1412 55.993 22.666 54.3942 23.8143C58.3941 24.9362 68.7083 25.247 68.7083 25.247C68.7083 25.247 92.8491 26.0497 103.505 33.0998C109.538 37.0913 111.701 44.3793 111.701 44.3793C112.202 43.9786 110 37.5902 108.119 33.9721C104.99 27.9559 100.7 26.1279 94.5326 23.301C89.5256 21.0058 81.7321 19.6778 81.7321 19.6778C81.7321 19.6778 73.5999 18.3171 67.1958 19.2292Z" stroke="#B59E7D"/>
<path d="M74.0781 30.1542L52.3421 26.0446C51.1718 26.3658 48.6882 28.2833 48.1162 33.3834C48.051 45.4716 61.7233 52.7057 75.8035 55.743C87.3945 58.2434 100.057 57.2516 107.104 51.4356C109.311 49.6138 110.543 46.7872 108.745 42.7943C105.754 36.1545 89.9564 32.4841 89.9564 32.4841C89.9564 32.4841 79.1613 30.6671 74.0781 30.1542Z" stroke="#B59E7D"/>
<path fill-rule="evenodd" clip-rule="evenodd" d="M86.2812 75.5372C86.4605 75.0381 87.0106 74.7789 87.5098 74.9581C88.0086 75.1375 88.2679 75.6867 88.0889 76.1857C88.0583 76.271 87.9181 76.6847 87.9287 77.4796C87.9322 77.4898 87.9409 77.5124 87.96 77.547C88.0037 77.6264 88.0782 77.7312 88.1904 77.8576C88.3058 77.9874 88.4361 78.1133 88.5703 78.2365L88.9785 78.5988L89.0371 78.6495L89.0859 78.7091C89.1791 78.8219 89.3072 78.9316 89.4658 79.0509C89.5043 79.0799 89.5428 79.1083 89.583 79.1378C89.6214 79.166 89.6654 79.1979 89.7061 79.2287C89.7646 79.2729 89.8711 79.3554 89.9688 79.4572H89.9697C90.0004 79.4882 90.0403 79.5219 90.1318 79.5958C90.5441 79.9292 90.6086 80.534 90.2754 80.9464C89.9421 81.3584 89.3372 81.4229 88.9248 81.09C88.8472 81.0273 88.7218 80.9266 88.6025 80.8058L88.5947 80.797C88.5888 80.7921 88.5741 80.7807 88.5479 80.7609C88.52 80.7398 88.4878 80.7162 88.4463 80.6857C88.4066 80.6566 88.3596 80.622 88.3105 80.5851C88.1358 80.4536 87.8983 80.2608 87.6768 80.0109C87.4413 79.8053 87.0676 79.485 86.7549 79.1329C86.7014 79.0727 86.6438 79.0034 86.584 78.9279C86.3902 79.0401 86.1558 79.1628 85.8926 79.2579C85.7317 79.3161 85.7421 79.3335 85.4287 79.4757C85.1719 79.5923 84.8615 79.6999 84.4375 79.7443C83.8949 79.8011 83.5759 79.8974 83.2266 80.0011C82.8454 80.1142 82.4198 80.2388 81.7705 80.2736C80.9797 80.3159 79.4083 80.3853 78.5469 80.3058C77.8718 80.2434 77.3723 80.0469 76.9941 79.882C76.5765 79.6998 76.4518 79.6373 76.3008 79.6183C75.8783 79.5652 75.4746 79.4532 75.1152 79.3273C75.1078 79.4404 75.0968 79.5481 75.0742 79.6505C75.0077 79.9514 74.8885 80.1459 74.8271 80.2433C74.8007 80.2853 74.7805 80.321 74.751 80.3742C74.7244 80.4221 74.6781 80.5064 74.6182 80.5939C74.4778 80.7985 74.3067 80.9615 74.0781 81.13C74.0132 81.1818 73.9532 81.2238 73.9209 81.2453C73.8487 81.2932 73.7678 81.3429 73.6914 81.3878C73.5701 81.4591 73.3583 81.5792 73.2012 81.6359C73.2279 81.6262 73.2315 81.6223 73.167 81.6535C73.1236 81.6744 73.049 81.7112 72.9775 81.7443C72.9055 81.7776 72.8099 81.8205 72.71 81.8556C72.6329 81.8826 72.4533 81.9424 72.2441 81.9425C71.714 81.9425 71.2844 81.5127 71.2842 80.9826C71.2843 80.5029 71.636 80.1057 72.0957 80.0343C72.1128 80.0274 72.1379 80.0173 72.1709 80.0021C72.2224 79.9783 72.2695 79.9547 72.3311 79.9249C72.3585 79.9117 72.391 79.8955 72.4229 79.881C72.4517 79.8678 72.499 79.8469 72.5508 79.8283C72.5381 79.8328 72.528 79.8367 72.5225 79.839C72.5308 79.8351 72.5465 79.8285 72.5674 79.8175C72.6097 79.7953 72.6636 79.765 72.7188 79.7326C72.7744 79.6998 72.824 79.6682 72.8594 79.6447C72.8633 79.642 72.867 79.639 72.8701 79.6369L72.8828 79.6251L72.9385 79.5841C72.9987 79.5397 73.0262 79.5148 73.0352 79.506L73.0342 79.5079C73.0351 79.5064 73.0375 79.5019 73.042 79.4943C73.0489 79.4825 73.0578 79.4676 73.0723 79.4415C73.0995 79.3925 73.1418 79.3141 73.1992 79.2228C73.203 79.1922 73.2099 79.1065 73.1865 78.9396C73.1303 78.5381 73.0152 78.0208 72.8799 77.5626C72.8126 77.3347 72.7444 77.1343 72.6816 76.9796C72.6105 76.8043 72.5735 76.7544 72.5869 76.7716C72.2609 76.3535 72.335 75.7502 72.7529 75.424C73.171 75.0983 73.7745 75.1722 74.1006 75.59C74.2583 75.7922 74.3762 76.0492 74.4609 76.2579C74.5542 76.4877 74.6425 76.7506 74.7217 77.0187C74.7246 77.0286 74.7266 77.039 74.7295 77.049C75.1049 77.2501 75.7857 77.6182 76.54 77.713C77.0413 77.776 77.4986 78.0065 77.7617 78.1212C78.0643 78.2532 78.3461 78.3578 78.7236 78.3927C79.4173 78.4567 80.8364 78.4 81.667 78.3556C82.085 78.3332 82.3364 78.2615 82.6807 78.1593C83.0568 78.0477 83.5135 77.91 84.2373 77.8341C84.4162 77.8154 84.5256 77.7762 84.6348 77.7267C84.7088 77.6931 84.7608 77.6656 84.8711 77.6115C84.9687 77.5636 85.0939 77.5042 85.2402 77.4513C85.5485 77.3398 85.7823 77.1734 86.0176 77.0206C86.0546 76.2564 86.1976 75.7703 86.2812 75.5372Z" fill="black"/>
<path d="M59.0472 75.1276C59.0212 75.1276 59.0598 75.0667 59.145 74.9135C59.2479 74.7284 59.2046 74.4824 59.1527 74.3439C59.0878 74.1712 58.8378 74.3121 58.7331 74.358C58.6177 74.4087 58.549 74.5424 58.5096 74.6728C58.4284 74.9419 58.5222 75.2643 58.7247 75.588C58.8671 75.8157 59.0991 75.8352 59.2168 75.8583C59.2825 75.8661 59.3604 75.8661 59.4006 75.6757C59.4407 75.4853 59.4407 75.1046 59.4407 74.7123" stroke="black" stroke-width="2.5607" stroke-linecap="round"/>
<path fill-rule="evenodd" clip-rule="evenodd" d="M101.734 73.0107C101.861 72.9869 102.119 72.951 102.416 73.0234C102.699 73.0925 103.001 73.2622 103.22 73.5566C103.221 73.5573 103.224 73.5576 103.225 73.5585C103.462 73.7299 103.604 73.9413 103.685 74.0859C103.989 74.6265 103.951 75.1647 103.897 75.4755C103.868 75.638 103.828 75.7778 103.799 75.871C103.786 75.9141 103.77 75.9617 103.763 75.9823C103.76 75.9906 103.758 75.9968 103.757 76.0009C103.685 76.2754 103.503 76.7006 103.042 76.9589C102.625 77.1926 102.218 77.1376 102.168 77.1327L102.129 77.1298L102.091 77.123C102.085 77.122 102.079 77.1217 102.047 77.1171C102.022 77.1134 101.984 77.1077 101.942 77.1005C101.857 77.086 101.737 77.0623 101.604 77.0194C101.334 76.9328 100.962 76.754 100.667 76.3749C100.346 75.9617 99.8643 75.1459 100.211 74.2226L100.256 74.1122C100.383 73.8256 100.669 73.3605 101.262 73.1513L101.393 73.1034C101.487 73.0718 101.617 73.0324 101.734 73.0107Z" fill="black"/>
</svg>
