<svg width="500" height="500" viewBox="0 0 500 500" fill="none" xmlns="http://www.w3.org/2000/svg">
<g clip-path="url(#clip0_127_18)">
<path d="M116.633 108.871C152.082 102.782 194.778 100.902 231.864 102.591C262.248 103.975 301.977 110.135 334.163 119.231C350.24 123.774 364.6 129.095 375.005 135.006C380.203 137.96 384.555 141.139 387.64 144.555C390.728 147.976 392.728 151.845 392.728 156.088V156.228L392.715 156.369C391.979 164.209 391.978 171.2 392.162 176.228C392.225 177.953 392.311 179.445 392.395 180.658C392.629 180.592 392.873 180.524 393.126 180.456C395.793 179.73 399.509 178.819 403.704 178.083C411.928 176.639 422.626 175.742 430.774 178.777C447.111 184.862 454.555 199.237 456.403 215.098C458.244 230.902 454.642 248.658 448.478 262.788C437.892 287.049 414.966 303.251 391.609 313.891C368.726 324.316 344.964 329.613 330.676 331.895C327.852 334.772 323.608 338.918 319.216 342.848C314.52 347.05 309.397 351.246 305.632 353.239L305.29 353.419L304.915 353.508C270.552 361.594 231.574 362.943 200.844 362.105C185.459 361.686 172.094 360.716 162.343 359.756C157.469 359.276 153.484 358.798 150.594 358.389C149.151 358.185 147.961 357.995 147.061 357.829C146.31 357.69 145.405 357.509 144.817 357.257C144.248 357.013 143.549 356.577 142.889 356.139C142.164 355.659 141.27 355.029 140.239 354.274C138.173 352.76 135.487 350.691 132.368 348.179C126.129 343.155 118.107 336.321 109.774 328.559C93.2296 313.149 75.0267 293.687 67.5029 277.342C53.5005 246.923 44.2082 194.033 43.3008 150.072C42.9233 147.661 42.8915 145.185 43.2578 142.658L43.3311 142.155L43.5654 141.704C47.9664 133.24 57.7265 126.588 70.249 121.333C82.8925 116.026 98.9165 111.914 116.633 108.871ZM421.535 203.031C410.168 202.625 394.908 206.23 388.714 208.072L388.241 208.212L388.064 208.673L354.064 297.673L353.415 299.375L355.199 299.01C363.02 297.413 375.72 293.714 388.482 287.8C401.229 281.894 414.148 273.727 422.292 263.14C432.439 249.949 436.013 235.209 435.247 223.652C434.864 217.879 433.394 212.844 431.061 209.188C428.723 205.525 425.458 203.171 421.535 203.031Z" fill="#F0E9D9"/>
<path d="M227.193 122.21C149.992 121.524 88.827 148.552 67.8947 162.151C182.857 217.174 314.092 188.895 365.34 167.877C351.458 152.941 304.394 122.896 227.193 122.21Z" fill="#5A483A"/>
<path d="M327.218 149.285L105.218 50.7856C105.218 50.7856 111.014 48.0303 113.718 44.7853C116.218 41.7854 119.218 39.7854 119.218 39.7854C189.218 29.7854 281.218 67.952 317.218 88.7854C337.718 111.786 344.5 136.4 344.5 140C344.5 144.5 327.218 163.285 327.218 164.285V149.285Z" fill="#5B493B"/>
<path d="M171.052 25.2544C144.745 27.0208 124.474 35.8407 117.627 40.0299C133.545 45.8133 175.373 50.214 175.373 50.214C175.373 50.214 273.254 60.8206 314.426 92.7622C337.737 110.847 344.315 141.175 344.315 141.175C346.473 139.696 339.465 113.018 332.915 97.7161C322.023 72.2717 305.14 63.5256 280.931 50.1417C261.275 39.2756 230.001 31.4997 230.001 31.4997C230.001 31.4997 197.36 23.488 171.052 25.2544Z" fill="#B49D7D"/>
<path d="M195.71 71.8247L108.609 48.4859C103.755 49.438 93.0777 56.4896 89.2048 77.079C85.271 126.273 138.648 159.881 194.957 176.526C241.312 190.23 292.7 189.491 323.488 168.505C333.545 161.65 338.878 150.626 332.781 133.824C322.641 105.882 259.543 86.1369 259.543 86.1369C259.543 86.1369 216.216 75.4581 195.71 71.8247Z" fill="#B49D7D"/>
<path d="M327.218 149.285L105.218 50.7856C105.218 50.7856 111.014 48.0303 113.718 44.7853C116.218 41.7854 119.218 39.7854 119.218 39.7854C189.218 29.7854 281.218 67.952 317.218 88.7854C337.718 111.786 344.5 136.4 344.5 140C344.5 144.5 327.218 163.285 327.218 164.285V149.285Z" stroke="#B8A181"/>
<path d="M171.052 25.2544C144.745 27.0208 124.474 35.8407 117.627 40.0299C133.545 45.8133 175.373 50.214 175.373 50.214C175.373 50.214 273.254 60.8206 314.426 92.7622C337.737 110.847 344.315 141.175 344.315 141.175C346.473 139.696 339.465 113.018 332.915 97.7161C322.023 72.2717 305.14 63.5256 280.931 50.1417C261.275 39.2756 230.001 31.4997 230.001 31.4997C230.001 31.4997 197.36 23.488 171.052 25.2544Z" stroke="#B8A181"/>
<path d="M195.71 71.8247L108.609 48.4859C103.755 49.438 93.0777 56.4896 89.2048 77.079C85.271 126.273 138.648 159.881 194.957 176.526C241.312 190.23 292.7 189.491 323.488 168.505C333.545 161.65 338.878 150.626 332.781 133.824C322.641 105.882 259.543 86.1369 259.543 86.1369C259.543 86.1369 216.216 75.4581 195.71 71.8247Z" stroke="#B8A181"/>
<path d="M195.348 265.8C196.49 267.28 197.984 272.653 198.489 276.298C198.816 278.658 198.311 279.5 198 280C197.326 281.082 197.353 281.491 196 282.5C195.66 282.84 193.973 283.828 193.5 284C193.027 284.172 191.62 285 191 285" stroke="black" stroke-width="6" stroke-linecap="round"/>
<path d="M250.281 263.57C250.013 264.308 249.336 266.465 249.401 270.246C249.445 272.824 252.957 275.727 255 277.5C256.353 279.123 258.253 280.124 258.826 280.765C259.131 281.071 259.465 281.339 259.81 281.615" stroke="black" stroke-width="6" stroke-linecap="round"/>
<path d="M199 272.5C200.075 273.037 203.788 275.187 208.005 275.699C210.609 276.015 212.64 277.961 216.842 278.336C219.945 278.613 225.912 278.371 229.147 278.203C233.408 277.983 234.541 276.688 239.597 276.176C242.004 275.932 242.945 275.043 244.5 274.5C246.24 273.892 247.588 272.967 248.396 272.46C248.87 272.288 249.472 272.288 250.092 272.288" stroke="black" stroke-width="6" stroke-linecap="round"/>
<path d="M314.566 259.514C313.5 257.5 312.604 261.072 313.043 260.398C313.573 259.586 313.35 258.505 313.082 257.896C312.748 257.138 311.46 257.757 310.921 257.958C310.326 258.181 309.972 258.768 309.769 259.341C309.351 260.523 309.834 261.939 310.877 263.362C311.611 264.362 312.807 264.447 313.413 264.549C313.751 264.583 314.153 264.583 314.36 263.747C314.566 262.91 315.373 261.038 314.566 259.514Z" stroke="black" stroke-width="8" stroke-linecap="round"/>
<path d="M136.92 260.81C136.786 260.81 136.985 260.543 137.424 259.87C137.954 259.057 137.731 257.976 137.463 257.368C137.129 256.609 135.841 257.228 135.302 257.429C134.707 257.652 134.353 258.239 134.15 258.812C133.732 259.994 134.215 261.411 135.258 262.833C135.992 263.833 137.187 263.919 137.794 264.02C138.132 264.054 138.534 264.054 138.74 263.218C138.947 262.382 138.947 260.709 138.947 258.986" stroke="black" stroke-width="8" stroke-linecap="round"/>
<circle cx="313" cy="261" r="2" fill="black"/>
<path d="M87.072 467.392C87.4133 467.989 87.584 468.544 87.584 469.056C87.584 470.251 86.9867 471.275 85.792 472.128C84.6827 473.067 83.4027 473.536 81.952 473.536C81.0987 473.536 80.2453 473.28 79.392 472.768C78.624 472.341 78.0267 471.659 77.6 470.72C76.6613 470.293 75.808 469.397 75.04 468.032C74.272 466.581 73.9307 465.344 74.016 464.32C72.48 463.979 71.3707 463.296 70.688 462.272C70.0907 461.248 69.7493 459.755 69.664 457.792C68.4693 457.109 67.4453 456.256 66.592 455.232C65.824 454.123 65.568 453.013 65.824 451.904C64.544 451.648 63.392 450.837 62.368 449.472C61.4293 448.021 61.0027 446.613 61.088 445.248C59.3813 444.821 58.2293 442.645 57.632 438.72C57.5467 439.317 57.2053 439.915 56.608 440.512C56.096 441.024 55.584 441.28 55.072 441.28C54.9013 442.133 54.6027 442.859 54.176 443.456C53.7493 444.053 53.2373 444.352 52.64 444.352C52.7253 445.291 52.5973 446.229 52.256 447.168C51.9147 448.021 51.4027 448.747 50.72 449.344C50.976 449.856 51.104 450.581 51.104 451.52C51.104 452.8 50.9333 453.611 50.592 453.952C51.616 455.061 52.128 456.128 52.128 457.152C52.128 457.749 51.8293 458.517 51.232 459.456C51.8293 460.565 52.128 461.547 52.128 462.4C52.128 463.253 52.0427 463.936 51.872 464.448C52.2133 465.216 52.384 466.069 52.384 467.008C52.384 468.544 51.7867 469.867 50.592 470.976C49.3973 472 48.0747 472.512 46.624 472.512C44.2347 472.512 42.7413 471.189 42.144 468.544C41.2907 467.52 40.864 466.283 40.864 464.832C40.864 464.149 40.992 463.509 41.248 462.912C40.5653 461.803 40.224 460.437 40.224 458.816C40.224 457.451 40.4373 456.256 40.864 455.232C40.2667 454.379 39.968 452.885 39.968 450.752C39.968 448.107 40.2667 445.973 40.864 444.352C40.1813 443.499 39.84 442.56 39.84 441.536C39.84 440.171 40.2667 439.061 41.12 438.208C40.096 437.184 39.584 435.904 39.584 434.368C39.584 433.6 39.7973 432.789 40.224 431.936C39.6267 430.997 39.328 430.059 39.328 429.12C39.328 428.267 39.5413 427.499 39.968 426.816C39.6267 426.389 39.456 425.408 39.456 423.872C39.456 422.251 39.6267 421.056 39.968 420.288C39.6267 418.581 39.456 417.643 39.456 417.472C39.456 416.875 39.7973 415.808 40.48 414.272C39.2 412.565 38.56 410.901 38.56 409.28C38.56 408.256 38.7307 407.36 39.072 406.592C38.4747 405.739 38.176 404.715 38.176 403.52C38.176 402.923 38.2613 402.197 38.432 401.344C37.92 400.576 37.664 399.595 37.664 398.4C37.664 397.12 37.9627 395.968 38.56 394.944C37.7067 393.408 37.28 392.043 37.28 390.848C37.28 389.824 37.5787 388.843 38.176 387.904C37.7493 387.051 37.536 385.984 37.536 384.704C37.536 382.656 38.1333 380.907 39.328 379.456C40.608 377.92 42.2293 377.323 44.192 377.664C44.8747 377.92 45.6427 378.645 46.496 379.84C47.3493 381.035 47.776 382.315 47.776 383.68L47.648 384.704C49.0133 385.728 49.696 387.093 49.696 388.8C49.696 389.995 49.312 391.061 48.544 392C49.824 393.536 50.464 395.115 50.464 396.736C50.464 398.187 49.9947 399.424 49.056 400.448C49.9093 401.643 50.336 403.093 50.336 404.8C50.336 406.336 50.08 407.701 49.568 408.896C50.1653 409.237 50.6347 409.92 50.976 410.944C51.4027 411.883 51.616 412.949 51.616 414.144C51.616 416.277 51.0613 417.899 49.952 419.008C50.8053 419.861 51.232 420.885 51.232 422.08C51.232 422.933 51.0613 423.829 50.72 424.768C50.464 425.621 50.2933 426.133 50.208 426.304C50.8053 426.901 51.2747 428.48 51.616 431.04L51.744 431.168C52.0853 429.973 52.8533 428.864 54.048 427.84C55.2427 426.731 56.1813 426.176 56.864 426.176C57.12 425.067 57.9733 423.744 59.424 422.208C60.8747 420.672 62.1547 419.904 63.264 419.904C63.3493 419.136 63.9467 418.283 65.056 417.344C66.2507 416.405 67.232 415.936 68 415.936C68.512 414.656 69.3653 413.504 70.56 412.48C71.84 411.371 72.864 410.987 73.632 411.328C73.632 409.877 74.016 408.811 74.784 408.128C75.6373 407.36 76.704 406.976 77.984 406.976C79.4347 406.976 80.7147 407.403 81.824 408.256C83.0187 409.109 83.616 410.176 83.616 411.456C83.616 412.309 83.3173 413.205 82.72 414.144C82.208 416.021 81.4827 417.344 80.544 418.112C79.6053 418.795 78.4533 419.221 77.088 419.392C77.2587 420.587 76.7893 421.867 75.68 423.232C74.5707 424.597 73.2907 425.237 71.84 425.152C71.6693 426.432 70.9013 427.712 69.536 428.992C68.256 430.272 66.9333 430.869 65.568 430.784C67.7867 431.979 68.896 433.643 68.896 435.776C68.896 436.544 68.768 437.397 68.512 438.336C69.3653 438.507 70.1333 439.019 70.816 439.872C71.4987 440.64 71.7547 441.493 71.584 442.432C72.7787 442.944 73.8453 443.968 74.784 445.504C75.7227 446.955 76.2773 448.363 76.448 449.728C77.3013 450.069 77.9413 450.667 78.368 451.52C78.7947 452.288 79.008 453.184 79.008 454.208C79.008 454.805 78.9653 455.275 78.88 455.616C80.2453 455.957 81.3547 456.853 82.208 458.304C83.1467 459.669 83.744 461.077 84 462.528C84.8533 462.613 85.664 463.296 86.432 464.576C87.2 465.771 87.4133 466.709 87.072 467.392ZM130.335 470.464C129.311 471.488 127.732 472 125.599 472C123.978 472 122.655 471.744 121.631 471.232C120.095 471.573 118.73 471.744 117.535 471.744C114.207 471.744 111.818 470.891 110.367 469.184C110.026 469.269 109.556 469.312 108.959 469.312C106.996 469.312 105.503 468.416 104.479 466.624C103.626 466.709 102.516 466.283 101.151 465.344C99.871 464.32 99.3163 463.339 99.487 462.4C98.1217 462.059 96.9697 461.248 96.031 459.968C95.1777 458.603 94.7937 457.067 94.879 455.36C93.9403 455.019 93.215 454.336 92.703 453.312C92.191 452.288 91.935 451.136 91.935 449.856C91.935 448.491 92.1483 447.509 92.575 446.912C91.6363 445.461 91.167 443.797 91.167 441.92C91.167 439.957 91.7643 438.379 92.959 437.184C92.0203 436.501 91.551 435.477 91.551 434.112C91.551 433.259 91.7643 432.405 92.191 431.552C92.6177 430.699 93.1723 430.101 93.855 429.76C93.6843 428.565 93.8123 427.456 94.239 426.432C94.751 425.323 95.4337 424.512 96.287 424C96.1163 423.744 96.031 423.36 96.031 422.848C96.031 422.08 96.287 421.312 96.799 420.544C97.3963 419.776 98.0363 419.307 98.719 419.136C98.6337 418.88 98.591 418.539 98.591 418.112C98.591 416.32 99.2737 414.784 100.639 413.504C102.004 412.139 103.327 411.541 104.607 411.712C104.607 410.517 105.119 409.536 106.143 408.768C107.252 407.915 108.66 407.488 110.367 407.488C111.135 407.488 111.732 407.531 112.159 407.616C112.756 406.336 113.78 405.312 115.231 404.544C116.682 403.691 118.175 403.264 119.711 403.264C120.735 403.264 121.588 403.477 122.271 403.904C123.466 402.88 124.959 402.368 126.751 402.368C128.202 402.368 129.482 402.709 130.591 403.392C131.786 404.075 132.511 405.013 132.767 406.208C134.132 406.208 135.583 406.72 137.119 407.744C138.655 408.683 139.551 409.664 139.807 410.688C141.855 411.285 143.818 412.608 145.695 414.656C147.658 416.619 148.639 418.624 148.639 420.672C148.639 421.013 148.554 421.525 148.383 422.208C152.052 422.976 153.716 426.688 153.375 433.344C154.143 434.624 154.527 435.989 154.527 437.44C154.527 439.147 153.972 440.853 152.863 442.56C153.119 443.328 153.247 444.053 153.247 444.736C153.247 445.76 153.034 446.741 152.607 447.68C152.18 448.619 151.626 449.344 150.943 449.856C151.028 451.221 150.772 452.331 150.175 453.184C149.663 454.037 148.682 455.189 147.231 456.64C147.316 456.981 147.359 457.493 147.359 458.176C147.359 460.736 145.908 462.4 143.007 463.168C142.751 464.533 142.026 465.643 140.831 466.496C139.722 467.349 138.356 467.776 136.735 467.776C135.37 469.653 133.706 470.592 131.743 470.592C131.146 470.592 130.676 470.549 130.335 470.464ZM118.303 461.504C118.986 460.907 120.138 460.608 121.759 460.608C122.954 460.608 123.594 460.779 123.679 461.12C124.362 460.352 125.215 459.755 126.239 459.328C127.263 458.901 128.202 458.731 129.055 458.816C130.506 457.365 132.084 456.64 133.791 456.64C134.388 456.64 134.815 456.683 135.071 456.768C134.986 456 135.199 455.275 135.711 454.592C136.223 453.824 136.82 453.312 137.503 453.056C137.503 451.947 137.759 451.008 138.271 450.24C138.868 449.387 139.594 448.747 140.447 448.32C140.447 446.613 140.788 445.248 141.471 444.224C141.215 443.541 141.087 442.859 141.087 442.176C141.087 441.237 141.3 440.341 141.727 439.488C142.154 438.549 142.751 437.781 143.519 437.184C142.666 436.416 142.239 435.477 142.239 434.368C142.239 433.344 142.538 432.32 143.135 431.296C141.428 430.272 140.276 429.291 139.679 428.352C139.167 427.328 138.911 425.493 138.911 422.848C138.143 422.933 137.332 422.507 136.479 421.568C135.711 420.629 135.242 419.563 135.071 418.368C134.132 418.624 132.98 418.368 131.615 417.6C130.335 416.747 129.695 415.68 129.695 414.4C129.012 414.741 128.202 414.912 127.263 414.912C125.471 414.912 124.02 414.272 122.911 412.992C121.972 413.931 120.735 414.699 119.199 415.296C117.748 415.808 116.468 415.979 115.359 415.808C115.274 416.661 114.506 417.685 113.055 418.88C111.69 419.989 110.452 420.715 109.343 421.056C109.599 421.568 109.727 422.165 109.727 422.848C109.727 423.701 109.514 424.555 109.087 425.408C108.66 426.261 108.063 426.987 107.295 427.584C107.38 428.779 107.082 429.931 106.399 431.04C105.802 432.149 104.948 432.917 103.839 433.344C104.01 434.027 104.095 434.581 104.095 435.008C104.095 436.203 103.796 437.141 103.199 437.824C103.455 438.421 103.583 439.019 103.583 439.616C103.583 440.555 103.114 441.579 102.175 442.688C104.308 444.139 105.375 446.229 105.375 448.96C105.375 450.411 105.119 451.648 104.607 452.672C105.46 452.757 106.058 453.013 106.399 453.44C106.74 453.867 107.039 454.549 107.295 455.488C109.428 455.744 111.007 456.768 112.031 458.56C112.97 458.56 114.122 458.859 115.487 459.456C116.938 460.053 117.876 460.736 118.303 461.504ZM212.111 426.432C213.135 427.285 213.647 428.651 213.647 430.528C213.647 430.955 213.562 431.509 213.391 432.192C213.818 432.363 214.159 433.173 214.415 434.624C214.671 435.989 214.799 437.525 214.799 439.232C214.799 441.792 214.5 443.413 213.903 444.096C214.159 444.693 214.287 445.376 214.287 446.144C214.287 447.936 213.519 449.429 211.983 450.624C212.239 451.136 212.367 451.819 212.367 452.672C212.367 454.037 212.068 455.573 211.471 457.28C210.874 458.901 210.191 460.053 209.423 460.736C209.423 462.101 208.655 463.637 207.119 465.344C205.668 466.965 204.26 467.861 202.895 468.032C202.298 468.971 201.359 469.739 200.079 470.336C198.799 470.933 197.476 471.232 196.111 471.232C195.002 471.232 194.063 471.061 193.295 470.72C192.442 471.232 191.332 471.488 189.967 471.488C188.858 471.488 187.748 471.317 186.639 470.976C185.615 470.635 184.847 470.208 184.335 469.696C183.652 469.867 183.055 469.952 182.543 469.952C180.836 469.952 179.599 469.568 178.831 468.8C178.746 469.227 178.66 469.867 178.575 470.72C178.49 471.488 178.234 472.085 177.807 472.512C178.319 473.28 178.575 474.261 178.575 475.456C178.575 477.333 178.106 478.741 177.167 479.68C177.679 480.107 178.106 480.747 178.447 481.6C178.788 482.539 178.959 483.477 178.959 484.416C178.959 485.867 178.532 486.976 177.679 487.744C178.106 489.024 178.319 490.347 178.319 491.712C178.319 493.675 177.807 495.168 176.783 496.192C175.759 497.301 174.564 497.856 173.199 497.856C171.919 497.856 170.724 497.429 169.615 496.576C168.591 495.723 167.866 494.485 167.439 492.864C167.183 492.523 166.97 491.925 166.799 491.072C166.628 490.304 166.543 489.451 166.543 488.512C166.543 486.464 166.884 485.312 167.567 485.056C166.714 483.435 166.287 481.515 166.287 479.296C166.287 477.419 166.628 475.584 167.311 473.792C166.543 473.024 166.159 471.744 166.159 469.952C166.159 468.416 166.5 467.221 167.183 466.368C167.012 465.771 166.756 465.045 166.415 464.192C166.074 463.253 165.903 462.443 165.903 461.76C165.903 461.163 166.116 460.437 166.543 459.584C166.031 458.56 165.775 457.664 165.775 456.896C165.775 456.128 166.031 455.189 166.543 454.08C167.055 452.971 167.396 452.203 167.567 451.776C166.799 450.581 166.415 448.704 166.415 446.144C166.415 443.84 166.714 442.261 167.311 441.408C166.116 438.848 165.519 436.843 165.519 435.392C165.519 433.941 165.903 432.789 166.671 431.936C166.33 431.253 166.159 430.485 166.159 429.632C166.159 428.779 166.415 427.968 166.927 427.2C166.33 426.261 166.031 424.896 166.031 423.104C166.031 420.8 166.458 419.179 167.311 418.24C166.372 415.851 165.903 413.504 165.903 411.2C165.903 409.237 166.244 407.787 166.927 406.848C166.842 406.592 166.799 406.208 166.799 405.696C166.799 404.245 167.396 403.051 168.591 402.112C169.871 401.088 171.236 400.576 172.687 400.576C173.796 400.576 174.735 400.875 175.503 401.472C176.271 402.069 176.826 402.965 177.167 404.16L177.807 404.544C178.404 403.691 179.215 403.093 180.239 402.752C181.263 402.325 182.372 402.197 183.567 402.368C184.335 401.344 185.786 400.832 187.919 400.832C189.284 400.832 190.522 400.96 191.631 401.216C192.143 401.045 192.612 400.96 193.039 400.96C193.892 400.96 194.746 401.173 195.599 401.6C196.452 401.941 197.007 402.325 197.263 402.752C198.372 402.752 199.183 402.837 199.695 403.008C200.292 403.179 200.932 403.691 201.615 404.544C202.298 404.544 202.895 404.757 203.407 405.184C204.004 405.525 204.388 405.952 204.559 406.464C205.327 406.549 205.839 406.763 206.095 407.104C206.436 407.445 206.735 408 206.991 408.768C208.698 410.389 209.636 413.077 209.807 416.832C210.746 417.344 211.428 418.197 211.855 419.392C212.367 420.587 212.623 421.867 212.623 423.232C212.623 424.341 212.452 425.408 212.111 426.432ZM193.167 460.352C193.594 459.413 194.319 458.603 195.343 457.92C196.367 457.152 197.348 456.683 198.287 456.512C198.287 454.549 199.012 452.672 200.463 450.88C200.207 449.6 200.079 448.832 200.079 448.576C200.079 446.613 200.89 444.949 202.511 443.584C202.255 442.048 202.127 440.256 202.127 438.208C202.127 437.099 202.212 436.288 202.383 435.776C201.53 435.093 200.804 433.899 200.207 432.192C199.695 430.4 199.439 428.651 199.439 426.944C199.439 425.835 199.567 424.896 199.823 424.128C199.14 423.445 198.586 422.379 198.159 420.928C197.818 419.477 197.732 418.155 197.903 416.96C197.22 416.704 196.452 416.235 195.599 415.552C194.831 414.869 194.234 414.229 193.807 413.632C193.21 413.632 192.612 413.504 192.015 413.248C191.503 412.992 190.948 412.693 190.351 412.352C189.924 412.693 188.9 412.864 187.279 412.864C185.999 412.864 185.146 412.779 184.719 412.608C183.268 413.547 181.818 414.016 180.367 414.016C179.343 414.016 178.362 413.717 177.423 413.12C178.191 414.4 178.575 416.021 178.575 417.984C178.575 419.947 178.276 421.525 177.679 422.72C178.362 423.659 178.703 425.365 178.703 427.84C178.703 429.973 178.404 431.467 177.807 432.32C178.49 433.515 178.831 435.52 178.831 438.336C178.831 440.725 178.49 442.475 177.807 443.584C178.404 444.693 178.703 446.272 178.703 448.32C178.703 450.197 178.447 451.648 177.935 452.672C178.447 453.44 178.703 454.635 178.703 456.256C178.703 456.853 178.618 457.493 178.447 458.176C179.471 458.005 180.879 458.176 182.671 458.688C184.548 459.115 185.914 459.669 186.767 460.352C187.279 460.181 188.346 460.096 189.967 460.096C191.674 460.096 192.74 460.181 193.167 460.352ZM227.686 380.736C226.577 381.248 225.681 381.973 224.998 382.912C224.315 383.851 223.974 384.832 223.974 385.856C223.974 387.221 224.529 388.587 225.638 389.952C225.467 391.061 226.065 392.128 227.43 393.152C228.795 394.176 230.289 394.688 231.91 394.688C233.019 394.688 234.001 394.389 234.854 393.792C237.243 392.512 238.438 390.891 238.438 388.928C238.438 387.648 237.926 386.197 236.902 384.576C236.987 382.869 236.475 381.547 235.366 380.608C234.342 379.584 233.105 379.072 231.654 379.072C230.033 379.072 228.71 379.627 227.686 380.736ZM236.006 437.312C236.689 437.568 237.201 438.379 237.542 439.744C237.969 441.109 238.182 442.603 238.182 444.224C238.182 446.101 237.883 447.339 237.286 447.936C237.798 449.216 238.054 450.453 238.054 451.648C238.054 453.184 237.67 454.464 236.902 455.488C237.499 456.939 237.798 458.645 237.798 460.608C237.798 462.229 237.542 463.552 237.03 464.576C237.286 465.344 237.414 466.069 237.414 466.752C237.414 468.288 236.859 469.525 235.75 470.464C234.641 471.317 233.318 471.744 231.782 471.744C230.331 471.744 229.094 471.317 228.07 470.464C227.046 469.525 226.577 468.288 226.662 466.752C226.235 466.24 225.894 465.429 225.638 464.32C225.382 463.211 225.254 462.059 225.254 460.864C225.254 458.645 225.723 457.195 226.662 456.512C225.979 455.403 225.638 453.739 225.638 451.52C225.638 449.301 225.937 447.68 226.534 446.656C226.193 446.315 225.937 445.504 225.766 444.224C225.595 442.944 225.51 441.536 225.51 440C225.51 438.549 225.595 437.269 225.766 436.16C225.937 434.965 226.193 434.197 226.534 433.856C226.022 433.344 225.766 431.936 225.766 429.632C225.766 426.987 226.065 425.067 226.662 423.872C226.235 423.189 225.851 422.293 225.51 421.184C225.169 420.075 224.998 419.051 224.998 418.112C224.998 417.259 225.083 416.661 225.254 416.32C224.571 414.101 224.23 412.309 224.23 410.944C224.23 409.493 224.571 408 225.254 406.464C225.083 405.184 225.382 404.203 226.15 403.52C226.918 402.837 228.027 402.496 229.478 402.496C233.403 402.496 235.366 404.885 235.366 409.664C236.134 410.176 236.689 410.901 237.03 411.84C237.457 412.693 237.67 413.675 237.67 414.784C237.67 416.576 237.243 418.112 236.39 419.392C236.731 419.904 236.987 420.672 237.158 421.696C237.414 422.72 237.542 423.744 237.542 424.768C237.542 426.133 237.329 427.072 236.902 427.584C237.243 428.011 237.414 428.907 237.414 430.272C237.414 431.552 237.243 432.917 236.902 434.368C236.646 435.819 236.347 436.8 236.006 437.312ZM314.794 469.184C314.026 470.123 313.002 470.848 311.722 471.36C310.442 471.787 309.119 472 307.754 472C306.047 472 304.853 471.701 304.17 471.104C303.573 471.36 302.933 471.488 302.25 471.488C300.629 471.488 299.263 470.933 298.154 469.824C297.13 470.251 296.234 470.464 295.466 470.464C294.101 470.464 292.735 470.123 291.37 469.44C290.09 468.672 289.194 467.776 288.682 466.752C287.061 466.923 285.439 466.453 283.818 465.344C282.282 464.149 281.386 462.784 281.13 461.248C278.57 460.139 276.821 457.152 275.882 452.288C275.37 451.861 274.986 451.221 274.73 450.368C274.474 449.515 274.346 448.661 274.346 447.808C274.346 447.211 274.389 446.784 274.474 446.528C273.023 443.627 272.298 440.64 272.298 437.568C272.298 434.752 272.895 432.448 274.09 430.656C273.919 429.803 273.834 429.163 273.834 428.736C273.834 427.285 274.175 425.92 274.858 424.64C275.541 423.275 276.394 422.293 277.418 421.696C277.247 421.269 277.162 420.672 277.162 419.904C277.162 418.539 277.589 417.301 278.442 416.192C279.381 414.997 280.277 414.272 281.13 414.016C281.471 412.821 282.282 411.712 283.562 410.688C284.927 409.579 286.335 409.067 287.786 409.152C289.493 406.592 291.199 405.44 292.906 405.696C293.674 404.672 294.698 403.947 295.978 403.52C297.343 403.093 298.581 402.923 299.69 403.008C300.543 402.411 301.482 402.112 302.506 402.112C303.53 402.112 304.554 402.368 305.578 402.88C306.261 402.368 307.199 402.112 308.394 402.112C309.247 402.112 310.058 402.24 310.826 402.496C311.594 402.752 312.106 403.051 312.362 403.392C313.045 403.221 313.77 403.392 314.538 403.904C315.306 404.331 315.775 404.885 315.946 405.568C317.397 405.568 318.634 406.037 319.658 406.976C320.767 407.829 321.578 408.853 322.09 410.048C322.687 411.157 322.943 412.011 322.858 412.608C324.309 413.291 325.333 414.4 325.93 415.936C326.527 417.301 326.826 418.496 326.826 419.52C326.826 421.227 326.186 422.549 324.906 423.488C324.053 424.085 323.157 424.384 322.218 424.384C320.682 424.384 319.189 423.744 317.738 422.464C316.373 421.184 315.477 419.605 315.05 417.728C313.941 417.557 312.874 417.173 311.85 416.576C310.826 415.893 310.015 415.168 309.418 414.4C309.162 414.485 308.522 414.528 307.498 414.528C306.559 414.528 305.919 414.485 305.578 414.4C304.81 415.168 303.957 415.552 303.018 415.552C302.079 415.552 301.183 415.253 300.33 414.656C299.221 416.363 297.599 417.216 295.466 417.216C294.357 418.752 293.375 419.947 292.522 420.8C291.669 421.568 290.517 421.867 289.066 421.696C289.151 421.952 289.194 422.336 289.194 422.848C289.194 423.872 288.938 424.768 288.426 425.536C287.914 426.304 287.317 427.029 286.634 427.712C286.037 428.309 285.567 428.779 285.226 429.12C285.653 430.4 285.866 431.595 285.866 432.704C285.866 434.667 285.269 437.013 284.074 439.744C284.501 440.341 284.842 441.195 285.098 442.304C285.439 443.328 285.61 444.352 285.61 445.376C285.61 445.973 285.567 446.4 285.482 446.656C286.079 447.083 286.591 447.808 287.018 448.832C287.53 449.856 287.786 450.837 287.786 451.776C289.919 452.459 291.669 453.44 293.034 454.72C294.485 456 295.21 457.195 295.21 458.304C296.149 457.536 297.173 457.152 298.282 457.152C299.306 457.152 300.287 457.408 301.226 457.92C302.25 458.432 303.018 459.115 303.53 459.968C303.957 459.883 304.469 459.84 305.066 459.84C306.346 459.84 307.455 460.267 308.394 461.12C308.735 460.437 309.589 459.712 310.954 458.944C312.319 458.176 313.429 457.835 314.282 457.92C314.794 457.067 315.477 456.427 316.33 456C317.269 455.573 318.25 455.36 319.274 455.36C319.957 455.36 320.426 455.403 320.682 455.488C321.791 454.123 323.285 453.44 325.162 453.44C326.783 453.44 328.191 453.995 329.386 455.104C330.581 456.213 331.178 457.579 331.178 459.2C331.178 461.077 330.367 462.656 328.746 463.936C327.21 465.131 325.461 465.728 323.498 465.728C322.73 465.728 322.175 465.685 321.834 465.6C322.517 465.771 322.431 466.155 321.578 466.752C320.81 467.349 319.701 467.947 318.25 468.544C316.799 469.056 315.647 469.269 314.794 469.184ZM378.77 460.992C378.855 460.565 379.069 460.267 379.41 460.096C379.837 459.925 380.306 459.797 380.818 459.712C381.159 459.627 381.586 459.584 382.098 459.584C383.549 459.584 384.701 460.139 385.554 461.248C386.493 462.272 386.962 463.509 386.962 464.96C386.962 466.069 386.663 467.051 386.066 467.904C385.469 468.672 384.573 469.227 383.378 469.568C381.586 471.104 379.453 471.744 376.978 471.488C376.295 472.085 375.399 472.384 374.29 472.384C372.754 472.384 371.346 471.829 370.066 470.72C369.213 470.549 368.189 470.123 366.994 469.44C365.799 468.672 365.202 467.989 365.202 467.392C364.007 467.221 362.77 466.539 361.49 465.344C360.295 464.149 359.869 462.699 360.21 460.992C359.271 459.968 358.717 458.901 358.546 457.792C357.522 457.28 356.754 456.512 356.242 455.488C355.815 454.464 355.687 453.397 355.858 452.288C354.749 451.264 354.194 449.728 354.194 447.68C354.194 446.912 354.279 445.931 354.45 444.736C353.255 443.797 352.658 442.517 352.658 440.896C352.658 439.445 353.127 438.251 354.066 437.312C353.042 436.288 352.53 434.965 352.53 433.344C352.53 432.747 352.701 432.021 353.042 431.168C352.53 430.144 352.274 429.12 352.274 428.096C352.274 426.731 352.658 425.664 353.426 424.896C352.914 423.872 352.658 422.763 352.658 421.568C352.658 420.544 352.786 419.648 353.042 418.88C353.383 418.027 353.767 417.387 354.194 416.96C353.255 415.851 352.786 414.656 352.786 413.376C352.786 412.693 352.914 411.968 353.17 411.2C352.402 411.456 351.549 411.584 350.61 411.584C349.159 411.584 348.093 411.285 347.41 410.688C346.386 410.944 345.49 411.072 344.722 411.072C343.186 411.072 341.607 410.603 339.986 409.664C339.133 410.176 338.237 410.432 337.298 410.432C335.933 410.432 334.823 409.877 333.97 408.768C333.031 407.573 332.562 406.251 332.562 404.8C332.562 403.52 332.989 402.453 333.842 401.6C334.61 400.661 335.762 400.149 337.298 400.064C338.322 399.637 339.261 399.424 340.114 399.424C341.821 399.424 343.314 399.851 344.594 400.704C345.703 400.277 346.941 400.064 348.306 400.064C349.501 400.064 350.439 400.277 351.122 400.704C351.207 400.363 351.549 400.064 352.146 399.808C352.829 399.467 353.383 399.339 353.81 399.424C353.469 398.656 353.298 397.632 353.298 396.352C353.298 394.816 353.639 394.005 354.322 393.92C353.725 393.067 353.426 391.829 353.426 390.208C353.426 387.989 353.981 386.453 355.09 385.6C355.005 383.893 355.346 382.613 356.114 381.76C356.882 380.907 357.863 380.48 359.058 380.48C360.253 380.48 361.362 380.907 362.386 381.76C363.41 382.528 363.922 383.552 363.922 384.832C363.922 385.685 363.581 386.667 362.898 387.776C363.751 388.544 364.178 389.824 364.178 391.616C364.178 392.384 364.05 393.195 363.794 394.048C363.623 394.816 363.367 395.413 363.026 395.84C363.538 396.181 363.794 396.864 363.794 397.888C363.794 398.741 363.581 399.893 363.154 401.344C363.922 401.088 364.733 400.96 365.586 400.96C366.866 400.96 367.847 401.259 368.53 401.856C369.383 401.429 370.066 401.216 370.578 401.216C371.431 401.216 372.114 401.557 372.626 402.24C373.223 401.813 373.949 401.6 374.802 401.6C375.997 401.6 376.935 402.069 377.618 403.008C379.239 403.008 380.434 403.392 381.202 404.16C382.055 404.843 382.482 405.739 382.482 406.848C382.482 408.213 381.927 409.536 380.818 410.816C379.794 412.011 378.599 412.608 377.234 412.608C376.466 412.608 375.698 412.352 374.93 411.84C374.077 412.523 372.967 412.864 371.602 412.864C370.322 412.864 369.255 412.565 368.402 411.968C367.293 412.395 366.482 412.608 365.97 412.608C365.287 412.608 364.477 412.309 363.538 411.712C364.306 412.736 364.69 413.845 364.69 415.04C364.69 416.32 364.178 417.472 363.154 418.496C363.922 419.52 364.306 420.8 364.306 422.336C364.306 423.701 363.922 424.981 363.154 426.176C364.178 426.859 364.69 427.968 364.69 429.504C364.69 430.784 364.306 431.893 363.538 432.832C364.391 433.771 364.818 435.435 364.818 437.824C364.818 438.848 364.69 439.701 364.434 440.384C365.031 441.237 365.33 442.133 365.33 443.072C365.33 443.584 365.202 444.267 364.946 445.12C364.775 445.888 364.647 446.528 364.562 447.04C365.586 448.235 366.098 449.387 366.098 450.496C367.549 451.605 368.274 452.928 368.274 454.464C369.981 455.403 370.834 456.981 370.834 459.2C371.005 459.456 371.175 459.627 371.346 459.712C371.517 459.797 371.645 459.883 371.73 459.968L372.626 459.84C373.906 459.84 374.93 460.224 375.698 460.992C376.381 460.821 376.935 460.736 377.362 460.736C377.618 460.736 378.087 460.821 378.77 460.992ZM404.155 465.984C404.496 467.861 404.112 469.355 403.003 470.464C401.979 471.488 400.699 472 399.163 472C397.798 472 396.603 471.573 395.579 470.72C394.555 469.781 394.043 468.501 394.043 466.88C394.043 465.856 394.299 464.704 394.811 463.424C394.299 462.229 394.043 460.992 394.043 459.712C394.043 458.688 394.256 457.835 394.683 457.152C394.171 456.811 393.787 456.299 393.531 455.616C393.275 454.933 393.147 454.165 393.147 453.312C393.147 452.459 393.318 451.52 393.659 450.496C392.891 449.557 392.507 448.448 392.507 447.168C392.507 445.547 393.104 444.224 394.299 443.2C394.214 442.944 394.171 442.517 394.171 441.92C394.171 441.067 394.256 440.469 394.427 440.128C393.488 438.933 393.019 437.227 393.019 435.008C393.019 433.472 393.318 432.277 393.915 431.424C393.318 430.912 392.806 430.229 392.379 429.376C391.952 428.437 391.739 427.499 391.739 426.56C391.739 425.536 392.038 424.555 392.635 423.616C392.208 422.592 391.995 421.696 391.995 420.928C391.995 419.648 392.379 418.453 393.147 417.344C392.123 416.32 391.611 415.253 391.611 414.144C391.611 413.291 391.91 412.139 392.507 410.688C391.91 409.493 391.611 408.213 391.611 406.848C391.611 405.056 392.251 403.947 393.531 403.52C393.616 402.325 394.043 401.344 394.811 400.576C395.579 399.808 396.518 399.424 397.627 399.424C398.907 399.424 400.016 400.064 400.955 401.344C401.979 402.539 402.491 404.288 402.491 406.592C402.491 407.531 402.448 408.299 402.363 408.896C402.704 408.725 403.046 408.469 403.387 408.128C403.728 407.701 404.155 407.403 404.667 407.232C405.179 407.061 405.947 406.976 406.971 406.976C407.142 406.549 407.696 406.123 408.635 405.696C409.659 405.269 410.64 405.056 411.579 405.056C412.262 405.056 412.731 405.141 412.987 405.312C413.67 404.971 414.352 404.8 415.035 404.8C416.059 404.8 417.168 405.525 418.363 406.976C420.411 406.805 421.904 407.275 422.843 408.384C424.208 408.299 425.403 408.469 426.427 408.896C427.451 409.323 428.262 410.219 428.859 411.584C430.48 412.608 431.291 413.973 431.291 415.68C431.291 417.131 430.651 418.496 429.371 419.776C428.176 420.971 426.854 421.568 425.403 421.568C423.782 421.568 422.416 420.715 421.307 419.008C420.368 419.008 419.643 418.923 419.131 418.752C418.619 418.581 418.107 418.197 417.595 417.6C417.083 417.771 416.656 417.856 416.315 417.856C415.547 417.856 414.736 417.643 413.883 417.216C412.688 417.984 411.408 418.325 410.043 418.24C409.531 419.435 408.208 420.032 406.075 420.032C406.16 420.288 406.203 420.715 406.203 421.312C406.203 422.421 405.947 423.531 405.435 424.64C405.008 425.664 404.454 426.432 403.771 426.944C404.454 428.565 404.795 430.187 404.795 431.808C404.795 433.259 404.454 434.368 403.771 435.136C404.027 435.477 404.283 435.904 404.539 436.416C404.88 436.928 405.136 437.397 405.307 437.824C405.478 438.507 405.563 439.019 405.563 439.36C405.563 439.957 405.35 440.768 404.923 441.792C405.35 442.816 405.563 443.584 405.563 444.096C405.563 444.779 405.264 445.717 404.667 446.912C405.179 447.765 405.435 448.704 405.435 449.728C405.435 450.923 405.136 451.947 404.539 452.8C405.136 454.165 405.435 455.573 405.435 457.024C405.435 458.133 405.179 459.157 404.667 460.096C405.094 460.949 405.307 461.803 405.307 462.656C405.307 463.851 404.923 464.96 404.155 465.984ZM453.617 456C454.47 456.939 454.897 458.389 454.897 460.352C454.897 461.632 454.684 462.869 454.257 464.064C453.916 465.173 453.446 465.984 452.849 466.496C453.105 468.117 452.678 469.44 451.569 470.464C450.46 471.488 449.137 472 447.601 472C446.577 472 445.596 471.744 444.657 471.232C443.718 470.72 443.036 469.867 442.609 468.672C442.182 467.477 441.969 466.197 441.969 464.832C441.969 462.955 442.268 461.461 442.865 460.352C442.438 459.584 442.225 458.475 442.225 457.024C442.225 455.403 442.481 453.739 442.993 452.032C442.396 451.349 442.097 450.112 442.097 448.32C442.097 446.016 442.438 444.309 443.121 443.2C442.609 442.005 442.353 440.853 442.353 439.744C442.353 438.208 442.737 436.672 443.505 435.136C442.822 433.344 442.481 431.723 442.481 430.272C442.481 429.077 442.737 427.712 443.249 426.176C442.396 425.237 441.969 424.043 441.969 422.592C441.969 421.995 442.012 421.568 442.097 421.312C441.158 420.203 440.689 418.923 440.689 417.472C440.689 416.533 440.945 415.637 441.457 414.784C440.86 413.419 440.561 412.096 440.561 410.816C440.561 408.768 441.073 407.232 442.097 406.208C441.585 405.013 441.329 403.563 441.329 401.856C441.329 400.491 441.542 399.509 441.969 398.912C441.542 398.656 441.201 398.187 440.945 397.504C440.689 396.821 440.561 396.053 440.561 395.2C440.561 393.749 440.902 392.555 441.585 391.616C441.329 390.933 441.201 390.037 441.201 388.928C441.201 388.075 441.286 387.307 441.457 386.624C440.433 385.6 439.921 384.405 439.921 383.04C439.921 381.589 440.518 380.352 441.713 379.328C442.993 378.219 444.401 377.664 445.937 377.664C446.961 377.664 447.9 378.005 448.753 378.688C449.606 379.285 450.204 380.224 450.545 381.504C451.825 382.357 452.465 383.68 452.465 385.472C452.465 385.813 452.38 386.325 452.209 387.008C453.233 388.032 453.745 389.355 453.745 390.976C453.745 392.341 453.318 393.408 452.465 394.176C452.892 394.517 453.276 395.115 453.617 395.968C453.958 396.736 454.129 397.589 454.129 398.528C454.129 400.064 453.574 401.344 452.465 402.368C453.148 403.307 453.489 404.459 453.489 405.824C453.489 407.189 453.233 408.299 452.721 409.152C453.062 409.493 453.233 410.347 453.233 411.712C453.233 412.48 453.148 413.291 452.977 414.144C452.806 414.997 452.55 415.595 452.209 415.936C453.489 417.045 454.129 418.453 454.129 420.16C454.129 421.099 453.958 421.909 453.617 422.592C454.129 423.36 454.385 424.512 454.385 426.048C454.385 428.011 454.044 429.589 453.361 430.784C453.958 431.979 454.257 433.557 454.257 435.52C454.257 437.909 453.873 439.616 453.105 440.64C453.702 441.493 454.001 442.56 454.001 443.84C454.001 444.949 453.745 446.272 453.233 447.808C454.001 448.661 454.385 449.984 454.385 451.776C454.385 453.312 454.129 454.72 453.617 456Z" fill="#F1EADA"/>
</g>
<defs>
<clipPath id="clip0_127_18">
<rect width="500" height="500" fill="white"/>
</clipPath>
</defs>
</svg>
