<svg width="500" height="500" viewBox="0 0 500 500" fill="none" xmlns="http://www.w3.org/2000/svg">
<g clip-path="url(#clip0_127_18)">
<path d="M116.633 108.871C152.082 102.782 194.778 100.902 231.864 102.591C262.248 103.975 301.977 110.135 334.163 119.231C350.24 123.774 364.6 129.095 375.005 135.006C380.203 137.96 384.555 141.139 387.64 144.555C390.728 147.976 392.728 151.845 392.728 156.088V156.228L392.715 156.369C391.979 164.209 391.978 171.2 392.162 176.228C392.225 177.953 392.311 179.445 392.395 180.658C392.629 180.592 392.873 180.524 393.126 180.456C395.793 179.73 399.509 178.819 403.704 178.083C411.928 176.639 422.626 175.742 430.774 178.777C447.111 184.862 454.555 199.237 456.403 215.098C458.244 230.902 454.642 248.658 448.478 262.788C437.892 287.049 414.966 303.251 391.609 313.891C368.726 324.316 344.964 329.613 330.676 331.895C327.852 334.772 323.608 338.918 319.216 342.848C314.52 347.05 309.397 351.246 305.632 353.239L305.29 353.419L304.915 353.508C270.552 361.594 231.574 362.943 200.844 362.105C185.459 361.686 172.094 360.716 162.343 359.756C157.469 359.276 153.484 358.798 150.594 358.389C149.151 358.185 147.961 357.995 147.061 357.829C146.31 357.69 145.405 357.509 144.817 357.257C144.248 357.013 143.549 356.577 142.889 356.139C142.164 355.659 141.27 355.029 140.239 354.274C138.173 352.76 135.487 350.691 132.368 348.179C126.129 343.155 118.107 336.321 109.774 328.559C93.2296 313.149 75.0267 293.687 67.5029 277.342C53.5005 246.923 44.2082 194.033 43.3008 150.072C42.9233 147.661 42.8915 145.185 43.2578 142.658L43.3311 142.155L43.5654 141.704C47.9664 133.24 57.7265 126.588 70.249 121.333C82.8925 116.026 98.9165 111.914 116.633 108.871ZM421.535 203.031C410.168 202.625 394.908 206.23 388.714 208.072L388.241 208.212L388.064 208.673L354.064 297.673L353.415 299.375L355.199 299.01C363.02 297.413 375.72 293.714 388.482 287.8C401.229 281.894 414.148 273.727 422.292 263.14C432.439 249.949 436.013 235.209 435.247 223.652C434.864 217.879 433.394 212.844 431.061 209.188C428.723 205.525 425.458 203.171 421.535 203.031Z" fill="#F0E9D9"/>
<path d="M227.193 122.21C149.992 121.524 88.827 148.552 67.8947 162.151C182.857 217.174 314.092 188.895 365.34 167.877C351.458 152.941 304.394 122.896 227.193 122.21Z" fill="#5A483A"/>
<path d="M327.218 149.285L105.218 50.7856C105.218 50.7856 111.014 48.0303 113.718 44.7853C116.218 41.7854 119.218 39.7854 119.218 39.7854C189.218 29.7854 281.218 67.952 317.218 88.7854C337.718 111.786 344.5 136.4 344.5 140C344.5 144.5 327.218 163.285 327.218 164.285V149.285Z" fill="#5B493B"/>
<path d="M171.052 25.2544C144.745 27.0208 124.474 35.8407 117.627 40.0299C133.545 45.8133 175.373 50.214 175.373 50.214C175.373 50.214 273.254 60.8206 314.426 92.7622C337.737 110.847 344.315 141.175 344.315 141.175C346.473 139.696 339.465 113.018 332.915 97.7161C322.023 72.2717 305.14 63.5256 280.931 50.1417C261.275 39.2756 230.001 31.4997 230.001 31.4997C230.001 31.4997 197.36 23.488 171.052 25.2544Z" fill="#B49D7D"/>
<path d="M195.71 71.8247L108.609 48.4859C103.755 49.438 93.0777 56.4896 89.2048 77.079C85.271 126.273 138.648 159.881 194.957 176.526C241.312 190.23 292.7 189.491 323.488 168.505C333.545 161.65 338.878 150.626 332.781 133.824C322.641 105.882 259.543 86.1369 259.543 86.1369C259.543 86.1369 216.216 75.4581 195.71 71.8247Z" fill="#B49D7D"/>
<path d="M327.218 149.285L105.218 50.7856C105.218 50.7856 111.014 48.0303 113.718 44.7853C116.218 41.7854 119.218 39.7854 119.218 39.7854C189.218 29.7854 281.218 67.952 317.218 88.7854C337.718 111.786 344.5 136.4 344.5 140C344.5 144.5 327.218 163.285 327.218 164.285V149.285Z" stroke="#B8A181"/>
<path d="M171.052 25.2544C144.745 27.0208 124.474 35.8407 117.627 40.0299C133.545 45.8133 175.373 50.214 175.373 50.214C175.373 50.214 273.254 60.8206 314.426 92.7622C337.737 110.847 344.315 141.175 344.315 141.175C346.473 139.696 339.465 113.018 332.915 97.7161C322.023 72.2717 305.14 63.5256 280.931 50.1417C261.275 39.2756 230.001 31.4997 230.001 31.4997C230.001 31.4997 197.36 23.488 171.052 25.2544Z" stroke="#B8A181"/>
<path d="M195.71 71.8247L108.609 48.4859C103.755 49.438 93.0777 56.4896 89.2048 77.079C85.271 126.273 138.648 159.881 194.957 176.526C241.312 190.23 292.7 189.491 323.488 168.505C333.545 161.65 338.878 150.626 332.781 133.824C322.641 105.882 259.543 86.1369 259.543 86.1369C259.543 86.1369 216.216 75.4581 195.71 71.8247Z" stroke="#B8A181"/>
<path d="M195.348 265.8C196.49 267.28 197.984 272.653 198.489 276.298C198.816 278.658 198.311 279.5 198 280C197.326 281.082 197.353 281.491 196 282.5C195.66 282.84 193.973 283.828 193.5 284C193.027 284.172 191.62 285 191 285" stroke="black" stroke-width="6" stroke-linecap="round"/>
<path d="M250.281 263.57C250.013 264.308 249.336 266.465 249.401 270.246C249.445 272.824 252.957 275.727 255 277.5C256.353 279.123 258.253 280.124 258.826 280.765C259.131 281.071 259.465 281.339 259.81 281.615" stroke="black" stroke-width="6" stroke-linecap="round"/>
<path d="M199 272.5C200.075 273.037 203.788 275.187 208.005 275.699C210.609 276.015 212.64 277.961 216.842 278.336C219.945 278.613 225.912 278.371 229.147 278.203C233.408 277.983 234.541 276.688 239.597 276.176C242.004 275.932 242.945 275.043 244.5 274.5C246.24 273.892 247.588 272.967 248.396 272.46C248.87 272.288 249.472 272.288 250.092 272.288" stroke="black" stroke-width="6" stroke-linecap="round"/>
<path d="M314.566 259.514C313.5 257.5 312.604 261.072 313.043 260.398C313.573 259.586 313.35 258.505 313.082 257.896C312.748 257.138 311.46 257.757 310.921 257.958C310.326 258.181 309.972 258.768 309.769 259.341C309.351 260.523 309.834 261.939 310.877 263.362C311.611 264.362 312.807 264.447 313.413 264.549C313.751 264.583 314.153 264.583 314.36 263.747C314.566 262.91 315.373 261.038 314.566 259.514Z" stroke="black" stroke-width="8" stroke-linecap="round"/>
<path d="M136.92 260.81C136.786 260.81 136.985 260.543 137.424 259.87C137.954 259.057 137.731 257.976 137.463 257.368C137.129 256.609 135.841 257.228 135.302 257.429C134.707 257.652 134.353 258.239 134.15 258.812C133.732 259.994 134.215 261.411 135.258 262.833C135.992 263.833 137.187 263.919 137.794 264.02C138.132 264.054 138.534 264.054 138.74 263.218C138.947 262.382 138.947 260.709 138.947 258.986" stroke="black" stroke-width="8" stroke-linecap="round"/>
<circle cx="313" cy="261" r="2" fill="black"/>
<path d="M87.072 467.392C87.4133 467.989 87.584 468.544 87.584 469.056C87.584 470.251 86.9867 471.275 85.792 472.128C84.6827 473.067 83.4027 473.536 81.952 473.536C81.0987 473.536 80.2453 473.28 79.392 472.768C78.624 472.341 78.0267 471.659 77.6 470.72C76.6613 470.293 75.808 469.397 75.04 468.032C74.272 466.581 73.9307 465.344 74.016 464.32C72.48 463.979 71.3707 463.296 70.688 462.272C70.0907 461.248 69.7493 459.755 69.664 457.792C68.4693 457.109 67.4453 456.256 66.592 455.232C65.824 454.123 65.568 453.013 65.824 451.904C64.544 451.648 63.392 450.837 62.368 449.472C61.4293 448.021 61.0027 446.613 61.088 445.248C59.3813 444.821 58.2293 442.645 57.632 438.72C57.5467 439.317 57.2053 439.915 56.608 440.512C56.096 441.024 55.584 441.28 55.072 441.28C54.9013 442.133 54.6027 442.859 54.176 443.456C53.7493 444.053 53.2373 444.352 52.64 444.352C52.7253 445.291 52.5973 446.229 52.256 447.168C51.9147 448.021 51.4027 448.747 50.72 449.344C50.976 449.856 51.104 450.581 51.104 451.52C51.104 452.8 50.9333 453.611 50.592 453.952C51.616 455.061 52.128 456.128 52.128 457.152C52.128 457.749 51.8293 458.517 51.232 459.456C51.8293 460.565 52.128 461.547 52.128 462.4C52.128 463.253 52.0427 463.936 51.872 464.448C52.2133 465.216 52.384 466.069 52.384 467.008C52.384 468.544 51.7867 469.867 50.592 470.976C49.3973 472 48.0747 472.512 46.624 472.512C44.2347 472.512 42.7413 471.189 42.144 468.544C41.2907 467.52 40.864 466.283 40.864 464.832C40.864 464.149 40.992 463.509 41.248 462.912C40.5653 461.803 40.224 460.437 40.224 458.816C40.224 457.451 40.4373 456.256 40.864 455.232C40.2667 454.379 39.968 452.885 39.968 450.752C39.968 448.107 40.2667 445.973 40.864 444.352C40.1813 443.499 39.84 442.56 39.84 441.536C39.84 440.171 40.2667 439.061 41.12 438.208C40.096 437.184 39.584 435.904 39.584 434.368C39.584 433.6 39.7973 432.789 40.224 431.936C39.6267 430.997 39.328 430.059 39.328 429.12C39.328 428.267 39.5413 427.499 39.968 426.816C39.6267 426.389 39.456 425.408 39.456 423.872C39.456 422.251 39.6267 421.056 39.968 420.288C39.6267 418.581 39.456 417.643 39.456 417.472C39.456 416.875 39.7973 415.808 40.48 414.272C39.2 412.565 38.56 410.901 38.56 409.28C38.56 408.256 38.7307 407.36 39.072 406.592C38.4747 405.739 38.176 404.715 38.176 403.52C38.176 402.923 38.2613 402.197 38.432 401.344C37.92 400.576 37.664 399.595 37.664 398.4C37.664 397.12 37.9627 395.968 38.56 394.944C37.7067 393.408 37.28 392.043 37.28 390.848C37.28 389.824 37.5787 388.843 38.176 387.904C37.7493 387.051 37.536 385.984 37.536 384.704C37.536 382.656 38.1333 380.907 39.328 379.456C40.608 377.92 42.2293 377.323 44.192 377.664C44.8747 377.92 45.6427 378.645 46.496 379.84C47.3493 381.035 47.776 382.315 47.776 383.68L47.648 384.704C49.0133 385.728 49.696 387.093 49.696 388.8C49.696 389.995 49.312 391.061 48.544 392C49.824 393.536 50.464 395.115 50.464 396.736C50.464 398.187 49.9947 399.424 49.056 400.448C49.9093 401.643 50.336 403.093 50.336 404.8C50.336 406.336 50.08 407.701 49.568 408.896C50.1653 409.237 50.6347 409.92 50.976 410.944C51.4027 411.883 51.616 412.949 51.616 414.144C51.616 416.277 51.0613 417.899 49.952 419.008C50.8053 419.861 51.232 420.885 51.232 422.08C51.232 422.933 51.0613 423.829 50.72 424.768C50.464 425.621 50.2933 426.133 50.208 426.304C50.8053 426.901 51.2747 428.48 51.616 431.04L51.744 431.168C52.0853 429.973 52.8533 428.864 54.048 427.84C55.2427 426.731 56.1813 426.176 56.864 426.176C57.12 425.067 57.9733 423.744 59.424 422.208C60.8747 420.672 62.1547 419.904 63.264 419.904C63.3493 419.136 63.9467 418.283 65.056 417.344C66.2507 416.405 67.232 415.936 68 415.936C68.512 414.656 69.3653 413.504 70.56 412.48C71.84 411.371 72.864 410.987 73.632 411.328C73.632 409.877 74.016 408.811 74.784 408.128C75.6373 407.36 76.704 406.976 77.984 406.976C79.4347 406.976 80.7147 407.403 81.824 408.256C83.0187 409.109 83.616 410.176 83.616 411.456C83.616 412.309 83.3173 413.205 82.72 414.144C82.208 416.021 81.4827 417.344 80.544 418.112C79.6053 418.795 78.4533 419.221 77.088 419.392C77.2587 420.587 76.7893 421.867 75.68 423.232C74.5707 424.597 73.2907 425.237 71.84 425.152C71.6693 426.432 70.9013 427.712 69.536 428.992C68.256 430.272 66.9333 430.869 65.568 430.784C67.7867 431.979 68.896 433.643 68.896 435.776C68.896 436.544 68.768 437.397 68.512 438.336C69.3653 438.507 70.1333 439.019 70.816 439.872C71.4987 440.64 71.7547 441.493 71.584 442.432C72.7787 442.944 73.8453 443.968 74.784 445.504C75.7227 446.955 76.2773 448.363 76.448 449.728C77.3013 450.069 77.9413 450.667 78.368 451.52C78.7947 452.288 79.008 453.184 79.008 454.208C79.008 454.805 78.9653 455.275 78.88 455.616C80.2453 455.957 81.3547 456.853 82.208 458.304C83.1467 459.669 83.744 461.077 84 462.528C84.8533 462.613 85.664 463.296 86.432 464.576C87.2 465.771 87.4133 466.709 87.072 467.392ZM130.335 470.464C129.311 471.488 127.732 472 125.599 472C123.978 472 122.655 471.744 121.631 471.232C120.095 471.573 118.73 471.744 117.535 471.744C114.207 471.744 111.818 470.891 110.367 469.184C110.026 469.269 109.556 469.312 108.959 469.312C106.996 469.312 105.503 468.416 104.479 466.624C103.626 466.709 102.516 466.283 101.151 465.344C99.871 464.32 99.3163 463.339 99.487 462.4C98.1217 462.059 96.9697 461.248 96.031 459.968C95.1777 458.603 94.7937 457.067 94.879 455.36C93.9403 455.019 93.215 454.336 92.703 453.312C92.191 452.288 91.935 451.136 91.935 449.856C91.935 448.491 92.1483 447.509 92.575 446.912C91.6363 445.461 91.167 443.797 91.167 441.92C91.167 439.957 91.7643 438.379 92.959 437.184C92.0203 436.501 91.551 435.477 91.551 434.112C91.551 433.259 91.7643 432.405 92.191 431.552C92.6177 430.699 93.1723 430.101 93.855 429.76C93.6843 428.565 93.8123 427.456 94.239 426.432C94.751 425.323 95.4337 424.512 96.287 424C96.1163 423.744 96.031 423.36 96.031 422.848C96.031 422.08 96.287 421.312 96.799 420.544C97.3963 419.776 98.0363 419.307 98.719 419.136C98.6337 418.88 98.591 418.539 98.591 418.112C98.591 416.32 99.2737 414.784 100.639 413.504C102.004 412.139 103.327 411.541 104.607 411.712C104.607 410.517 105.119 409.536 106.143 408.768C107.252 407.915 108.66 407.488 110.367 407.488C111.135 407.488 111.732 407.531 112.159 407.616C112.756 406.336 113.78 405.312 115.231 404.544C116.682 403.691 118.175 403.264 119.711 403.264C120.735 403.264 121.588 403.477 122.271 403.904C123.466 402.88 124.959 402.368 126.751 402.368C128.202 402.368 129.482 402.709 130.591 403.392C131.786 404.075 132.511 405.013 132.767 406.208C134.132 406.208 135.583 406.72 137.119 407.744C138.655 408.683 139.551 409.664 139.807 410.688C141.855 411.285 143.818 412.608 145.695 414.656C147.658 416.619 148.639 418.624 148.639 420.672C148.639 421.013 148.554 421.525 148.383 422.208C152.052 422.976 153.716 426.688 153.375 433.344C154.143 434.624 154.527 435.989 154.527 437.44C154.527 439.147 153.972 440.853 152.863 442.56C153.119 443.328 153.247 444.053 153.247 444.736C153.247 445.76 153.034 446.741 152.607 447.68C152.18 448.619 151.626 449.344 150.943 449.856C151.028 451.221 150.772 452.331 150.175 453.184C149.663 454.037 148.682 455.189 147.231 456.64C147.316 456.981 147.359 457.493 147.359 458.176C147.359 460.736 145.908 462.4 143.007 463.168C142.751 464.533 142.026 465.643 140.831 466.496C139.722 467.349 138.356 467.776 136.735 467.776C135.37 469.653 133.706 470.592 131.743 470.592C131.146 470.592 130.676 470.549 130.335 470.464ZM118.303 461.504C118.986 460.907 120.138 460.608 121.759 460.608C122.954 460.608 123.594 460.779 123.679 461.12C124.362 460.352 125.215 459.755 126.239 459.328C127.263 458.901 128.202 458.731 129.055 458.816C130.506 457.365 132.084 456.64 133.791 456.64C134.388 456.64 134.815 456.683 135.071 456.768C134.986 456 135.199 455.275 135.711 454.592C136.223 453.824 136.82 453.312 137.503 453.056C137.503 451.947 137.759 451.008 138.271 450.24C138.868 449.387 139.594 448.747 140.447 448.32C140.447 446.613 140.788 445.248 141.471 444.224C141.215 443.541 141.087 442.859 141.087 442.176C141.087 441.237 141.3 440.341 141.727 439.488C142.154 438.549 142.751 437.781 143.519 437.184C142.666 436.416 142.239 435.477 142.239 434.368C142.239 433.344 142.538 432.32 143.135 431.296C141.428 430.272 140.276 429.291 139.679 428.352C139.167 427.328 138.911 425.493 138.911 422.848C138.143 422.933 137.332 422.507 136.479 421.568C135.711 420.629 135.242 419.563 135.071 418.368C134.132 418.624 132.98 418.368 131.615 417.6C130.335 416.747 129.695 415.68 129.695 414.4C129.012 414.741 128.202 414.912 127.263 414.912C125.471 414.912 124.02 414.272 122.911 412.992C121.972 413.931 120.735 414.699 119.199 415.296C117.748 415.808 116.468 415.979 115.359 415.808C115.274 416.661 114.506 417.685 113.055 418.88C111.69 419.989 110.452 420.715 109.343 421.056C109.599 421.568 109.727 422.165 109.727 422.848C109.727 423.701 109.514 424.555 109.087 425.408C108.66 426.261 108.063 426.987 107.295 427.584C107.38 428.779 107.082 429.931 106.399 431.04C105.802 432.149 104.948 432.917 103.839 433.344C104.01 434.027 104.095 434.581 104.095 435.008C104.095 436.203 103.796 437.141 103.199 437.824C103.455 438.421 103.583 439.019 103.583 439.616C103.583 440.555 103.114 441.579 102.175 442.688C104.308 444.139 105.375 446.229 105.375 448.96C105.375 450.411 105.119 451.648 104.607 452.672C105.46 452.757 106.058 453.013 106.399 453.44C106.74 453.867 107.039 454.549 107.295 455.488C109.428 455.744 111.007 456.768 112.031 458.56C112.97 458.56 114.122 458.859 115.487 459.456C116.938 460.053 117.876 460.736 118.303 461.504ZM166.317 417.472C164.866 417.387 163.629 416.832 162.605 415.808C161.666 414.784 161.197 413.589 161.197 412.224C161.197 410.517 161.837 409.237 163.117 408.384C164.482 407.445 166.061 406.976 167.853 406.976C169.304 406.976 170.456 407.232 171.309 407.744L171.565 407.616C171.053 406.421 170.797 404.587 170.797 402.112C170.797 400.747 170.925 399.808 171.181 399.296C171.01 397.931 170.925 396.907 170.925 396.224C170.925 393.493 171.608 391.317 172.973 389.696C173.4 388.416 174.168 387.221 175.277 386.112C176.386 385.003 177.581 384.277 178.861 383.936C179.117 382.997 180.141 381.973 181.933 380.864C183.725 379.755 185.517 379.243 187.309 379.328C187.821 378.475 189.229 378.048 191.533 378.048C193.666 378.048 195.16 378.261 196.013 378.688C196.781 378.176 197.805 377.92 199.085 377.92C201.218 377.92 203.266 378.475 205.229 379.584C207.192 380.693 208.173 382.059 208.173 383.68C208.173 385.131 207.533 386.368 206.253 387.392C205.058 388.331 203.65 388.8 202.029 388.8C200.664 388.8 199.512 388.501 198.573 387.904C197.72 388.416 196.824 388.672 195.885 388.672C194.946 388.672 194.093 388.416 193.325 387.904C193.069 388.416 192.386 388.8 191.277 389.056C190.253 389.227 189.4 389.227 188.717 389.056C187.437 391.189 185.944 392.256 184.237 392.256C184.237 393.536 184.066 394.901 183.725 396.352C183.469 397.717 183 398.613 182.317 399.04C183 399.979 183.341 401.344 183.341 403.136C183.341 404.587 183.042 405.739 182.445 406.592C182.786 406.507 183.256 406.464 183.853 406.464C185.218 406.464 186.456 406.891 187.565 407.744C188.333 407.317 189.442 407.104 190.893 407.104C192.344 407.104 193.41 407.317 194.093 407.744C195.544 407.829 196.61 408.299 197.293 409.152C198.061 409.92 198.445 410.901 198.445 412.096C198.445 413.547 197.976 414.912 197.037 416.192C196.098 417.387 194.904 417.984 193.453 417.984C192.856 417.984 192.045 417.771 191.021 417.344C190.253 417.856 189.229 418.112 187.949 418.112C187.01 418.112 185.858 417.941 184.493 417.6C184.152 418.027 183.597 418.411 182.829 418.752C183 419.264 183.085 419.733 183.085 420.16C183.085 421.44 182.573 422.592 181.549 423.616C181.634 423.872 181.677 424.299 181.677 424.896C181.677 425.408 181.634 425.792 181.549 426.048C182.573 427.072 183.085 428.309 183.085 429.76C183.085 430.357 182.957 430.997 182.701 431.68C183.554 432.789 183.981 434.453 183.981 436.672C183.981 437.781 183.81 438.677 183.469 439.36C184.152 440.299 184.493 441.664 184.493 443.456C184.493 444.565 184.28 445.632 183.853 446.656C184.365 447.509 184.621 448.405 184.621 449.344C184.621 450.453 184.322 451.435 183.725 452.288C184.578 454.336 185.005 455.915 185.005 457.024C185.005 458.304 184.536 459.413 183.597 460.352C183.682 460.693 183.938 461.632 184.365 463.168C184.792 464.619 185.005 465.984 185.005 467.264C185.005 470.592 183.17 472.128 179.501 471.872C177.709 471.787 176.216 470.507 175.021 468.032C173.912 465.472 173.357 462.869 173.357 460.224C173.357 458.432 173.656 457.109 174.253 456.256C173.485 454.549 173.101 453.099 173.101 451.904C173.101 451.051 173.272 450.283 173.613 449.6C173.101 448.832 172.845 447.979 172.845 447.04C172.845 445.845 173.186 444.779 173.869 443.84C173.186 443.413 172.632 442.816 172.205 442.048C171.864 441.28 171.693 440.469 171.693 439.616C171.693 437.995 172.29 436.672 173.485 435.648C172.717 435.136 172.333 433.643 172.333 431.168C172.333 430.229 172.418 429.376 172.589 428.608C172.845 427.755 173.144 427.2 173.485 426.944C172.888 426.347 172.376 425.536 171.949 424.512C171.608 423.488 171.437 422.507 171.437 421.568C171.437 420.288 171.693 419.221 172.205 418.368C171.352 418.539 170.669 418.624 170.157 418.624C168.621 418.624 167.341 418.24 166.317 417.472ZM218.029 380.736C216.92 381.248 216.024 381.973 215.341 382.912C214.658 383.851 214.317 384.832 214.317 385.856C214.317 387.221 214.872 388.587 215.981 389.952C215.81 391.061 216.408 392.128 217.773 393.152C219.138 394.176 220.632 394.688 222.253 394.688C223.362 394.688 224.344 394.389 225.197 393.792C227.586 392.512 228.781 390.891 228.781 388.928C228.781 387.648 228.269 386.197 227.245 384.576C227.33 382.869 226.818 381.547 225.709 380.608C224.685 379.584 223.448 379.072 221.997 379.072C220.376 379.072 219.053 379.627 218.029 380.736ZM226.349 437.312C227.032 437.568 227.544 438.379 227.885 439.744C228.312 441.109 228.525 442.603 228.525 444.224C228.525 446.101 228.226 447.339 227.629 447.936C228.141 449.216 228.397 450.453 228.397 451.648C228.397 453.184 228.013 454.464 227.245 455.488C227.842 456.939 228.141 458.645 228.141 460.608C228.141 462.229 227.885 463.552 227.373 464.576C227.629 465.344 227.757 466.069 227.757 466.752C227.757 468.288 227.202 469.525 226.093 470.464C224.984 471.317 223.661 471.744 222.125 471.744C220.674 471.744 219.437 471.317 218.413 470.464C217.389 469.525 216.92 468.288 217.005 466.752C216.578 466.24 216.237 465.429 215.981 464.32C215.725 463.211 215.597 462.059 215.597 460.864C215.597 458.645 216.066 457.195 217.005 456.512C216.322 455.403 215.981 453.739 215.981 451.52C215.981 449.301 216.28 447.68 216.877 446.656C216.536 446.315 216.28 445.504 216.109 444.224C215.938 442.944 215.853 441.536 215.853 440C215.853 438.549 215.938 437.269 216.109 436.16C216.28 434.965 216.536 434.197 216.877 433.856C216.365 433.344 216.109 431.936 216.109 429.632C216.109 426.987 216.408 425.067 217.005 423.872C216.578 423.189 216.194 422.293 215.853 421.184C215.512 420.075 215.341 419.051 215.341 418.112C215.341 417.259 215.426 416.661 215.597 416.32C214.914 414.101 214.573 412.309 214.573 410.944C214.573 409.493 214.914 408 215.597 406.464C215.426 405.184 215.725 404.203 216.493 403.52C217.261 402.837 218.37 402.496 219.821 402.496C223.746 402.496 225.709 404.885 225.709 409.664C226.477 410.176 227.032 410.901 227.373 411.84C227.8 412.693 228.013 413.675 228.013 414.784C228.013 416.576 227.586 418.112 226.733 419.392C227.074 419.904 227.33 420.672 227.501 421.696C227.757 422.72 227.885 423.744 227.885 424.768C227.885 426.133 227.672 427.072 227.245 427.584C227.586 428.011 227.757 428.907 227.757 430.272C227.757 431.552 227.586 432.917 227.245 434.368C226.989 435.819 226.69 436.8 226.349 437.312ZM305.169 469.184C304.401 470.123 303.377 470.848 302.097 471.36C300.817 471.787 299.494 472 298.129 472C296.422 472 295.228 471.701 294.545 471.104C293.948 471.36 293.308 471.488 292.625 471.488C291.004 471.488 289.638 470.933 288.529 469.824C287.505 470.251 286.609 470.464 285.841 470.464C284.476 470.464 283.11 470.123 281.745 469.44C280.465 468.672 279.569 467.776 279.057 466.752C277.436 466.923 275.814 466.453 274.193 465.344C272.657 464.149 271.761 462.784 271.505 461.248C268.945 460.139 267.196 457.152 266.257 452.288C265.745 451.861 265.361 451.221 265.105 450.368C264.849 449.515 264.721 448.661 264.721 447.808C264.721 447.211 264.764 446.784 264.849 446.528C263.398 443.627 262.673 440.64 262.673 437.568C262.673 434.752 263.27 432.448 264.465 430.656C264.294 429.803 264.209 429.163 264.209 428.736C264.209 427.285 264.55 425.92 265.233 424.64C265.916 423.275 266.769 422.293 267.793 421.696C267.622 421.269 267.537 420.672 267.537 419.904C267.537 418.539 267.964 417.301 268.817 416.192C269.756 414.997 270.652 414.272 271.505 414.016C271.846 412.821 272.657 411.712 273.937 410.688C275.302 409.579 276.71 409.067 278.161 409.152C279.868 406.592 281.574 405.44 283.281 405.696C284.049 404.672 285.073 403.947 286.353 403.52C287.718 403.093 288.956 402.923 290.065 403.008C290.918 402.411 291.857 402.112 292.881 402.112C293.905 402.112 294.929 402.368 295.953 402.88C296.636 402.368 297.574 402.112 298.769 402.112C299.622 402.112 300.433 402.24 301.201 402.496C301.969 402.752 302.481 403.051 302.737 403.392C303.42 403.221 304.145 403.392 304.913 403.904C305.681 404.331 306.15 404.885 306.321 405.568C307.772 405.568 309.009 406.037 310.033 406.976C311.142 407.829 311.953 408.853 312.465 410.048C313.062 411.157 313.318 412.011 313.233 412.608C314.684 413.291 315.708 414.4 316.305 415.936C316.902 417.301 317.201 418.496 317.201 419.52C317.201 421.227 316.561 422.549 315.281 423.488C314.428 424.085 313.532 424.384 312.593 424.384C311.057 424.384 309.564 423.744 308.113 422.464C306.748 421.184 305.852 419.605 305.425 417.728C304.316 417.557 303.249 417.173 302.225 416.576C301.201 415.893 300.39 415.168 299.793 414.4C299.537 414.485 298.897 414.528 297.873 414.528C296.934 414.528 296.294 414.485 295.953 414.4C295.185 415.168 294.332 415.552 293.393 415.552C292.454 415.552 291.558 415.253 290.705 414.656C289.596 416.363 287.974 417.216 285.841 417.216C284.732 418.752 283.75 419.947 282.897 420.8C282.044 421.568 280.892 421.867 279.441 421.696C279.526 421.952 279.569 422.336 279.569 422.848C279.569 423.872 279.313 424.768 278.801 425.536C278.289 426.304 277.692 427.029 277.009 427.712C276.412 428.309 275.942 428.779 275.601 429.12C276.028 430.4 276.241 431.595 276.241 432.704C276.241 434.667 275.644 437.013 274.449 439.744C274.876 440.341 275.217 441.195 275.473 442.304C275.814 443.328 275.985 444.352 275.985 445.376C275.985 445.973 275.942 446.4 275.857 446.656C276.454 447.083 276.966 447.808 277.393 448.832C277.905 449.856 278.161 450.837 278.161 451.776C280.294 452.459 282.044 453.44 283.409 454.72C284.86 456 285.585 457.195 285.585 458.304C286.524 457.536 287.548 457.152 288.657 457.152C289.681 457.152 290.662 457.408 291.601 457.92C292.625 458.432 293.393 459.115 293.905 459.968C294.332 459.883 294.844 459.84 295.441 459.84C296.721 459.84 297.83 460.267 298.769 461.12C299.11 460.437 299.964 459.712 301.329 458.944C302.694 458.176 303.804 457.835 304.657 457.92C305.169 457.067 305.852 456.427 306.705 456C307.644 455.573 308.625 455.36 309.649 455.36C310.332 455.36 310.801 455.403 311.057 455.488C312.166 454.123 313.66 453.44 315.537 453.44C317.158 453.44 318.566 453.995 319.761 455.104C320.956 456.213 321.553 457.579 321.553 459.2C321.553 461.077 320.742 462.656 319.121 463.936C317.585 465.131 315.836 465.728 313.873 465.728C313.105 465.728 312.55 465.685 312.209 465.6C312.892 465.771 312.806 466.155 311.953 466.752C311.185 467.349 310.076 467.947 308.625 468.544C307.174 469.056 306.022 469.269 305.169 469.184ZM369.145 460.992C369.23 460.565 369.444 460.267 369.785 460.096C370.212 459.925 370.681 459.797 371.193 459.712C371.534 459.627 371.961 459.584 372.473 459.584C373.924 459.584 375.076 460.139 375.929 461.248C376.868 462.272 377.337 463.509 377.337 464.96C377.337 466.069 377.038 467.051 376.441 467.904C375.844 468.672 374.948 469.227 373.753 469.568C371.961 471.104 369.828 471.744 367.353 471.488C366.67 472.085 365.774 472.384 364.665 472.384C363.129 472.384 361.721 471.829 360.441 470.72C359.588 470.549 358.564 470.123 357.369 469.44C356.174 468.672 355.577 467.989 355.577 467.392C354.382 467.221 353.145 466.539 351.865 465.344C350.67 464.149 350.244 462.699 350.585 460.992C349.646 459.968 349.092 458.901 348.921 457.792C347.897 457.28 347.129 456.512 346.617 455.488C346.19 454.464 346.062 453.397 346.233 452.288C345.124 451.264 344.569 449.728 344.569 447.68C344.569 446.912 344.654 445.931 344.825 444.736C343.63 443.797 343.033 442.517 343.033 440.896C343.033 439.445 343.502 438.251 344.441 437.312C343.417 436.288 342.905 434.965 342.905 433.344C342.905 432.747 343.076 432.021 343.417 431.168C342.905 430.144 342.649 429.12 342.649 428.096C342.649 426.731 343.033 425.664 343.801 424.896C343.289 423.872 343.033 422.763 343.033 421.568C343.033 420.544 343.161 419.648 343.417 418.88C343.758 418.027 344.142 417.387 344.569 416.96C343.63 415.851 343.161 414.656 343.161 413.376C343.161 412.693 343.289 411.968 343.545 411.2C342.777 411.456 341.924 411.584 340.985 411.584C339.534 411.584 338.468 411.285 337.785 410.688C336.761 410.944 335.865 411.072 335.097 411.072C333.561 411.072 331.982 410.603 330.361 409.664C329.508 410.176 328.612 410.432 327.673 410.432C326.308 410.432 325.198 409.877 324.345 408.768C323.406 407.573 322.937 406.251 322.937 404.8C322.937 403.52 323.364 402.453 324.217 401.6C324.985 400.661 326.137 400.149 327.673 400.064C328.697 399.637 329.636 399.424 330.489 399.424C332.196 399.424 333.689 399.851 334.969 400.704C336.078 400.277 337.316 400.064 338.681 400.064C339.876 400.064 340.814 400.277 341.497 400.704C341.582 400.363 341.924 400.064 342.521 399.808C343.204 399.467 343.758 399.339 344.185 399.424C343.844 398.656 343.673 397.632 343.673 396.352C343.673 394.816 344.014 394.005 344.697 393.92C344.1 393.067 343.801 391.829 343.801 390.208C343.801 387.989 344.356 386.453 345.465 385.6C345.38 383.893 345.721 382.613 346.489 381.76C347.257 380.907 348.238 380.48 349.433 380.48C350.628 380.48 351.737 380.907 352.761 381.76C353.785 382.528 354.297 383.552 354.297 384.832C354.297 385.685 353.956 386.667 353.273 387.776C354.126 388.544 354.553 389.824 354.553 391.616C354.553 392.384 354.425 393.195 354.169 394.048C353.998 394.816 353.742 395.413 353.401 395.84C353.913 396.181 354.169 396.864 354.169 397.888C354.169 398.741 353.956 399.893 353.529 401.344C354.297 401.088 355.108 400.96 355.961 400.96C357.241 400.96 358.222 401.259 358.905 401.856C359.758 401.429 360.441 401.216 360.953 401.216C361.806 401.216 362.489 401.557 363.001 402.24C363.598 401.813 364.324 401.6 365.177 401.6C366.372 401.6 367.31 402.069 367.993 403.008C369.614 403.008 370.809 403.392 371.577 404.16C372.43 404.843 372.857 405.739 372.857 406.848C372.857 408.213 372.302 409.536 371.193 410.816C370.169 412.011 368.974 412.608 367.609 412.608C366.841 412.608 366.073 412.352 365.305 411.84C364.452 412.523 363.342 412.864 361.977 412.864C360.697 412.864 359.63 412.565 358.777 411.968C357.668 412.395 356.857 412.608 356.345 412.608C355.662 412.608 354.852 412.309 353.913 411.712C354.681 412.736 355.065 413.845 355.065 415.04C355.065 416.32 354.553 417.472 353.529 418.496C354.297 419.52 354.681 420.8 354.681 422.336C354.681 423.701 354.297 424.981 353.529 426.176C354.553 426.859 355.065 427.968 355.065 429.504C355.065 430.784 354.681 431.893 353.913 432.832C354.766 433.771 355.193 435.435 355.193 437.824C355.193 438.848 355.065 439.701 354.809 440.384C355.406 441.237 355.705 442.133 355.705 443.072C355.705 443.584 355.577 444.267 355.321 445.12C355.15 445.888 355.022 446.528 354.937 447.04C355.961 448.235 356.473 449.387 356.473 450.496C357.924 451.605 358.649 452.928 358.649 454.464C360.356 455.403 361.209 456.981 361.209 459.2C361.38 459.456 361.55 459.627 361.721 459.712C361.892 459.797 362.02 459.883 362.105 459.968L363.001 459.84C364.281 459.84 365.305 460.224 366.073 460.992C366.756 460.821 367.31 460.736 367.737 460.736C367.993 460.736 368.462 460.821 369.145 460.992ZM394.53 465.984C394.871 467.861 394.487 469.355 393.378 470.464C392.354 471.488 391.074 472 389.538 472C388.173 472 386.978 471.573 385.954 470.72C384.93 469.781 384.418 468.501 384.418 466.88C384.418 465.856 384.674 464.704 385.186 463.424C384.674 462.229 384.418 460.992 384.418 459.712C384.418 458.688 384.631 457.835 385.058 457.152C384.546 456.811 384.162 456.299 383.906 455.616C383.65 454.933 383.522 454.165 383.522 453.312C383.522 452.459 383.693 451.52 384.034 450.496C383.266 449.557 382.882 448.448 382.882 447.168C382.882 445.547 383.479 444.224 384.674 443.2C384.589 442.944 384.546 442.517 384.546 441.92C384.546 441.067 384.631 440.469 384.802 440.128C383.863 438.933 383.394 437.227 383.394 435.008C383.394 433.472 383.693 432.277 384.29 431.424C383.693 430.912 383.181 430.229 382.754 429.376C382.327 428.437 382.114 427.499 382.114 426.56C382.114 425.536 382.413 424.555 383.01 423.616C382.583 422.592 382.37 421.696 382.37 420.928C382.37 419.648 382.754 418.453 383.522 417.344C382.498 416.32 381.986 415.253 381.986 414.144C381.986 413.291 382.285 412.139 382.882 410.688C382.285 409.493 381.986 408.213 381.986 406.848C381.986 405.056 382.626 403.947 383.906 403.52C383.991 402.325 384.418 401.344 385.186 400.576C385.954 399.808 386.893 399.424 388.002 399.424C389.282 399.424 390.391 400.064 391.33 401.344C392.354 402.539 392.866 404.288 392.866 406.592C392.866 407.531 392.823 408.299 392.738 408.896C393.079 408.725 393.421 408.469 393.762 408.128C394.103 407.701 394.53 407.403 395.042 407.232C395.554 407.061 396.322 406.976 397.346 406.976C397.517 406.549 398.071 406.123 399.01 405.696C400.034 405.269 401.015 405.056 401.954 405.056C402.637 405.056 403.106 405.141 403.362 405.312C404.045 404.971 404.727 404.8 405.41 404.8C406.434 404.8 407.543 405.525 408.738 406.976C410.786 406.805 412.279 407.275 413.218 408.384C414.583 408.299 415.778 408.469 416.802 408.896C417.826 409.323 418.637 410.219 419.234 411.584C420.855 412.608 421.666 413.973 421.666 415.68C421.666 417.131 421.026 418.496 419.746 419.776C418.551 420.971 417.229 421.568 415.778 421.568C414.157 421.568 412.791 420.715 411.682 419.008C410.743 419.008 410.018 418.923 409.506 418.752C408.994 418.581 408.482 418.197 407.97 417.6C407.458 417.771 407.031 417.856 406.69 417.856C405.922 417.856 405.111 417.643 404.258 417.216C403.063 417.984 401.783 418.325 400.418 418.24C399.906 419.435 398.583 420.032 396.45 420.032C396.535 420.288 396.578 420.715 396.578 421.312C396.578 422.421 396.322 423.531 395.81 424.64C395.383 425.664 394.829 426.432 394.146 426.944C394.829 428.565 395.17 430.187 395.17 431.808C395.17 433.259 394.829 434.368 394.146 435.136C394.402 435.477 394.658 435.904 394.914 436.416C395.255 436.928 395.511 437.397 395.682 437.824C395.853 438.507 395.938 439.019 395.938 439.36C395.938 439.957 395.725 440.768 395.298 441.792C395.725 442.816 395.938 443.584 395.938 444.096C395.938 444.779 395.639 445.717 395.042 446.912C395.554 447.765 395.81 448.704 395.81 449.728C395.81 450.923 395.511 451.947 394.914 452.8C395.511 454.165 395.81 455.573 395.81 457.024C395.81 458.133 395.554 459.157 395.042 460.096C395.469 460.949 395.682 461.803 395.682 462.656C395.682 463.851 395.298 464.96 394.53 465.984ZM443.992 456C444.845 456.939 445.272 458.389 445.272 460.352C445.272 461.632 445.059 462.869 444.632 464.064C444.291 465.173 443.821 465.984 443.224 466.496C443.48 468.117 443.053 469.44 441.944 470.464C440.835 471.488 439.512 472 437.976 472C436.952 472 435.971 471.744 435.032 471.232C434.093 470.72 433.411 469.867 432.984 468.672C432.557 467.477 432.344 466.197 432.344 464.832C432.344 462.955 432.643 461.461 433.24 460.352C432.813 459.584 432.6 458.475 432.6 457.024C432.6 455.403 432.856 453.739 433.368 452.032C432.771 451.349 432.472 450.112 432.472 448.32C432.472 446.016 432.813 444.309 433.496 443.2C432.984 442.005 432.728 440.853 432.728 439.744C432.728 438.208 433.112 436.672 433.88 435.136C433.197 433.344 432.856 431.723 432.856 430.272C432.856 429.077 433.112 427.712 433.624 426.176C432.771 425.237 432.344 424.043 432.344 422.592C432.344 421.995 432.387 421.568 432.472 421.312C431.533 420.203 431.064 418.923 431.064 417.472C431.064 416.533 431.32 415.637 431.832 414.784C431.235 413.419 430.936 412.096 430.936 410.816C430.936 408.768 431.448 407.232 432.472 406.208C431.96 405.013 431.704 403.563 431.704 401.856C431.704 400.491 431.917 399.509 432.344 398.912C431.917 398.656 431.576 398.187 431.32 397.504C431.064 396.821 430.936 396.053 430.936 395.2C430.936 393.749 431.277 392.555 431.96 391.616C431.704 390.933 431.576 390.037 431.576 388.928C431.576 388.075 431.661 387.307 431.832 386.624C430.808 385.6 430.296 384.405 430.296 383.04C430.296 381.589 430.893 380.352 432.088 379.328C433.368 378.219 434.776 377.664 436.312 377.664C437.336 377.664 438.275 378.005 439.128 378.688C439.981 379.285 440.579 380.224 440.92 381.504C442.2 382.357 442.84 383.68 442.84 385.472C442.84 385.813 442.755 386.325 442.584 387.008C443.608 388.032 444.12 389.355 444.12 390.976C444.12 392.341 443.693 393.408 442.84 394.176C443.267 394.517 443.651 395.115 443.992 395.968C444.333 396.736 444.504 397.589 444.504 398.528C444.504 400.064 443.949 401.344 442.84 402.368C443.523 403.307 443.864 404.459 443.864 405.824C443.864 407.189 443.608 408.299 443.096 409.152C443.437 409.493 443.608 410.347 443.608 411.712C443.608 412.48 443.523 413.291 443.352 414.144C443.181 414.997 442.925 415.595 442.584 415.936C443.864 417.045 444.504 418.453 444.504 420.16C444.504 421.099 444.333 421.909 443.992 422.592C444.504 423.36 444.76 424.512 444.76 426.048C444.76 428.011 444.419 429.589 443.736 430.784C444.333 431.979 444.632 433.557 444.632 435.52C444.632 437.909 444.248 439.616 443.48 440.64C444.077 441.493 444.376 442.56 444.376 443.84C444.376 444.949 444.12 446.272 443.608 447.808C444.376 448.661 444.76 449.984 444.76 451.776C444.76 453.312 444.504 454.72 443.992 456Z" fill="#F1EADA"/>
</g>
<defs>
<clipPath id="clip0_127_18">
<rect width="500" height="500" fill="white"/>
</clipPath>
</defs>
</svg>
