<svg width="101" height="140" viewBox="0 0 101 140" fill="none" xmlns="http://www.w3.org/2000/svg">
<path d="M48.7842 4.87444C48.7842 4.87444 53.2972 6.37444 56.2842 6.37444C59.2711 6.37444 62.7842 4.87444 62.7842 4.87444M49.2842 15.3744L48.7842 4.87444C48.7842 4.87444 50.4508 2.84761 52.2842 1.87444C54.6988 0.592761 56.7578 0.830314 59.2842 1.87444C61.4572 2.77251 62.7842 4.87444 62.7842 4.87444L60.7842 15.3744M49.2842 15.3744H60.7842M29.2842 71.3744L28.0147 69.2586C27.8629 69.0056 27.769 68.7222 27.7396 68.4286L24.7842 38.8744C24.7842 38.8744 23.87 30.6465 23.2842 25.3744C26.2131 24.2479 30.7842 22.4898 30.7842 22.4898L49.2842 15.3744M23.2842 25.3744C30.0661 28.4284 40.2215 33.0014 42.4266 33.9944C42.7154 34.1245 43.0238 34.1809 43.3401 34.1651L69.2842 32.8744M69.2842 32.8744L85.7842 26.8744M69.2842 32.8744L66.2842 76.8744M81.2842 56.3744L99.0635 37.6834C99.9461 36.7555 99.7415 35.2488 98.6434 34.59L85.7842 26.8744L60.7842 15.3744M85.7842 26.8744L81.2842 56.3744M81.2842 56.3744L77.9612 72.5145C77.8484 73.0625 77.5111 73.5383 77.0313 73.8262L75.2842 74.8744M75.2842 74.8744C75.2842 74.8744 76.5466 80.6848 74.2842 82.8744C73.466 83.6663 71.7842 84.3744 71.7842 84.3744M29.2842 71.3744L44.4597 76.7593C44.6744 76.8355 44.9006 76.8744 45.1285 76.8744H66.2842L75.2842 74.8744M71.7842 84.3744V86.8744M71.7842 84.3744C71.7842 84.3744 64.9315 86.2514 60.2842 86.5C53.2842 86.8744 49.2842 87.5 42.2842 85.8744C38.1871 84.923 38.7842 85.5 32.2842 82.8744M32.2842 85.8744L27.7842 89.8744L23.9045 129.641C23.8308 130.397 24.1902 131.128 24.844 131.514C27.184 132.895 32.8927 136.096 36.7842 136.874C54.7842 139.374 53.2842 138.374 65.2842 136.874C69.4872 134.773 75.5017 131.766 78.0587 130.487C78.7994 130.117 79.2311 129.33 79.1507 128.506L75.2842 88.8744L71.7842 86.8744M71.7842 86.8744C71.7842 86.8744 65.5915 90.0152 61.2842 90.3744C53.7842 91 49.2842 91.5 41.2842 89.8744C37.515 89.1086 32.2842 85.8744 32.2842 85.8744M75.2842 88.8744L61.2842 93.8744M65.2842 136.874C63.7221 120.082 61.2842 93.8744 61.2842 93.8744M36.7842 136.874C38.151 120.082 40.2842 93.8744 40.2842 93.8744M27.7842 89.8744L40.2842 93.8744M32.2842 85.8744C32.2842 85.8744 32.2842 84.046 32.2842 82.8744M32.2842 82.8744C31.6984 82.0934 31.2903 81.7093 30.7842 80.8744C28.8373 77.6625 29.2842 71.3744 29.2842 71.3744M24.7842 38.8744L16.0992 34.7605C15.581 34.515 14.9823 34.5038 14.4552 34.7297L12.6097 35.5206C12.0846 35.7457 11.6808 36.1845 11.5002 36.7265L11.0102 38.1963C10.8641 38.6348 10.8743 39.1104 11.0391 39.5422L21.1565 66.0401C21.241 66.2612 21.364 66.4656 21.5198 66.6437L23.0795 68.4263C23.9419 69.4118 23.6401 70.9465 22.4688 71.5321L19.7415 72.8958C19.1434 73.1948 18.4354 73.1752 17.8548 72.8434L15.8679 71.708C15.4892 71.4916 15.1916 71.1573 15.0205 70.7561L1.16072 38.2574C0.92269 37.6992 0.950913 37.0632 1.23744 36.5283L7.7767 24.3217C8.09359 23.7302 8.68604 23.337 9.35422 23.2748L17.7842 22.4898H30.7842M40.2842 93.8744H61.2842" stroke="#41210A" stroke-width="2"/>
<path d="M49.2837 15.3744L42.8584 34.1893" stroke="#41210A" stroke-width="2"/>
<path d="M60.7842 15.3745L69.2842 32.8745" stroke="#41210A" stroke-width="2"/>
<path d="M42.8584 34.1895L44.7837 76.8747" stroke="#41210A" stroke-width="2"/>
</svg>
